<?xml version="1.0" encoding="UTF-8" standalone="no"?>
<svg
   xmlns:dc="http://purl.org/dc/elements/1.1/"
   xmlns:cc="http://creativecommons.org/ns#"
   xmlns:rdf="http://www.w3.org/1999/02/22-rdf-syntax-ns#"
   xmlns:svg="http://www.w3.org/2000/svg"
   xmlns="http://www.w3.org/2000/svg"
   xmlns:sodipodi="http://sodipodi.sourceforge.net/DTD/sodipodi-0.dtd"
   xmlns:inkscape="http://www.inkscape.org/namespaces/inkscape"
   aria-hidden="true"
   focusable="false"
   data-prefix="fas"
   data-icon="chart-line"
   class="svg-inline--fa fa-chart-line fa-w-16"
   role="img"
   viewBox="0 0 512 512"
   version="1.1"
   id="svg4"
   sodipodi:docname="chart.svg"
   inkscape:version="0.92.4 (5da689c313, 2019-01-14)">
  <metadata
     id="metadata10">
    <rdf:RDF>
      <cc:Work
         rdf:about="">
        <dc:format>image/svg+xml</dc:format>
        <dc:type
           rdf:resource="http://purl.org/dc/dcmitype/StillImage" />
        <dc:title />
      </cc:Work>
    </rdf:RDF>
  </metadata>
  <defs
     id="defs8" />
  <sodipodi:namedview
     pagecolor="#ffffff"
     bordercolor="#666666"
     borderopacity="1"
     objecttolerance="10"
     gridtolerance="10"
     guidetolerance="10"
     inkscape:pageopacity="0"
     inkscape:pageshadow="2"
     inkscape:window-width="1920"
     inkscape:window-height="1017"
     id="namedview6"
     showgrid="false"
     inkscape:zoom="1.3037281"
     inkscape:cx="-10.368138"
     inkscape:cy="232.8615"
     inkscape:window-x="-8"
     inkscape:window-y="-8"
     inkscape:window-maximized="1"
     inkscape:current-layer="g846" />
  <g
     id="g846"
     transform="matrix(0.83026174,0,0,0.83026174,43.95268,41.896561)">
    <path
       sodipodi:nodetypes="cssccccc"
       inkscape:connector-curvature="0"
       id="path820"
       d="m 7.1572369,16.57561 v 474.45327 c 0,17.67 -4.9410314,12.72897 12.7289691,12.72897 H 498.33948 v -11.9556 H 19.112842 V 16.57561 Z"
       style="fill:#897767;fill-opacity:0.60000002" />
    <path
       inkscape:connector-curvature="0"
       id="path826"
       d="M 100.67407,304.47461 30.495463,224.06343 29.571621,480.02972 H 70.856554 494.60473 c -9.8304,-4.5019 -93.17479,-37.97851 -93.17479,-37.97851 L 331.54094,389.7112 226.351,369.86775 190.98674,322.76434 Z"
       style="fill:#0494dc;fill-opacity:1;stroke-width:0.79679358"
       sodipodi:nodetypes="cccccccccc" />
    <path
       sodipodi:nodetypes="ccsccccscccc"
       style="fill:#d36484;fill-opacity:1;stroke-width:1.15264499"
       inkscape:connector-curvature="0"
       id="path2"
       d="M 482.30786,23.721078 371.90981,134.13263 253.182,69.840383 C 235.2643,60.137776 226.52768,58.208904 212.13114,72.616968 L 55.218165,215.38186 c -17.587646,31.97206 1.447015,21.65337 12.444793,12.44478 L 232.64982,82.527532 354.1542,149.59636 c 17.83886,9.84682 21.10116,14.40806 35.49769,0 L 500.30581,38.942451 529.69958,-4.4577186 Z" />
  </g>
</svg>
