<?xml version="1.0" encoding="UTF-8" standalone="no"?>
<svg
   xmlns:dc="http://purl.org/dc/elements/1.1/"
   xmlns:cc="http://creativecommons.org/ns#"
   xmlns:rdf="http://www.w3.org/1999/02/22-rdf-syntax-ns#"
   xmlns:svg="http://www.w3.org/2000/svg"
   xmlns="http://www.w3.org/2000/svg"
   xmlns:sodipodi="http://sodipodi.sourceforge.net/DTD/sodipodi-0.dtd"
   xmlns:inkscape="http://www.inkscape.org/namespaces/inkscape"
   id="svg"
   version="1.1"
   width="400"
   height="94.421883"
   viewBox="0 0 400 94.42189"
   sodipodi:docname="infla.svg"
   inkscape:version="0.92.4 (5da689c313, 2019-01-14)">
  <metadata
     id="metadata10">
    <rdf:RDF>
      <cc:Work
         rdf:about="">
        <dc:format>image/svg+xml</dc:format>
        <dc:type
           rdf:resource="http://purl.org/dc/dcmitype/StillImage" />
        <dc:title></dc:title>
      </cc:Work>
    </rdf:RDF>
  </metadata>
  <defs
     id="defs8" />
  <sodipodi:namedview
     pagecolor="#ffffff"
     bordercolor="#666666"
     borderopacity="1"
     objecttolerance="10"
     gridtolerance="10"
     guidetolerance="10"
     inkscape:pageopacity="0"
     inkscape:pageshadow="2"
     inkscape:window-width="1920"
     inkscape:window-height="1017"
     id="namedview6"
     showgrid="false"
     inkscape:zoom="1.4071425"
     inkscape:cx="336.7071"
     inkscape:cy="123.83589"
     inkscape:window-x="-8"
     inkscape:window-y="-8"
     inkscape:window-maximized="1"
     inkscape:current-layer="svg" />
  <path
     sodipodi:nodetypes="cccccccccccccccccccccccccccccccccsccccccccsscsc"
     inkscape:connector-curvature="0"
     style="fill:#d36384;fill-opacity:0.6"
     id="path0"
     d="m 397.45298,5.289512 c -2.38085,-0.229587 0.12566,0.476193 -5.47476,-0.578826 -6.01943,-1.13423 -6.802,-0.984374 -11.43313,2.200113 -12.77828,8.787797 -18.42152,12.463098 -20.22542,13.171471 -3.6056,1.414965 -14.02995,4.023162 -32.2825,8.076985 l -9.26565,2.056681 -1.65721,-0.189845 c -0.91004,-0.104672 -9.84622,-1.882697 -19.85976,-3.952433 -21.89117,-4.523368 -20.37045,-4.233964 -22.00064,-4.193094 -2.7018,0.06703 -1.85962,-0.508297 -14.01504,9.595794 -4.28235,3.558984 -8.24054,6.824957 -8.79676,7.257201 -0.81705,0.637107 -19.06035,9.922429 -21.02032,10.699871 -0.78476,0.310694 -2.10408,-0.09222 -12.33132,-3.774117 -5.76077,-2.074352 -11.31616,-4.02222 -12.34391,-4.327289 l -0.78203,0.228122 c -0.48636,0.03537 -0.66866,0.227998 -0.55643,0.585685 0.15183,0.478486 -0.1341,2.099246 -0.41431,2.35436 -0.16574,0.15151 -0.30835,0.741291 -0.43048,1.779211 -0.17904,1.531676 -0.56088,2.903566 -0.84784,3.041333 -0.0805,0.0388 -0.11517,0.186927 -0.0779,0.329605 0.14514,0.542135 -1.10924,2.736019 -1.42444,2.491744 -0.0986,-0.07572 -0.11874,-0.03709 -0.0536,0.09846 0.0793,0.164184 0.007,0.186078 -0.2758,0.08296 -0.2934,-0.107247 -0.27077,-0.06933 0.089,0.16253 l 0.47094,0.302823 -0.57212,-0.162236 c -0.31339,-0.08924 -0.7514,-0.217397 -0.97575,-0.283203 -0.22346,-0.06471 0.0232,0.12252 0.54538,0.416695 0.806,0.453711 8.37487,3.254091 23.87203,8.830056 4.96548,1.786664 7.18128,1.973064 9.71181,0.818174 2.15554,-0.983124 22.85275,-11.328602 23.71002,-11.850877 0.8412,-0.512904 3.97874,-3.07137 16.77175,-13.683617 l 2.02008,-1.675027 1.01395,0.106539 c 0.55892,0.05873 3.95701,0.714526 7.55485,1.459575 32.2907,6.689971 31.04087,6.455707 33.41996,6.292425 4.03392,-0.27597 36.30031,-7.809822 44.00402,-10.274285 4.74047,-1.516931 5.17119,-1.770325 20.56031,-12.209332 5.53362,-3.754298 2.56249,-3.519871 8.11512,-2.440719 10.75995,6.798059 8.64145,-10.835267 5.25788,-12.84351 z M 206.11241,41.797606 c 0.0905,0.0095 0.0657,0.0451 -0.0534,0.07883 -0.11928,0.03472 -0.1803,0.134222 -0.13736,0.223196 0.0429,0.08897 0.002,0.155312 -0.0899,0.145699 -0.0905,-0.0095 -0.19928,-0.09163 -0.24222,-0.180598 -0.0768,-0.158898 0.20074,-0.300984 0.52297,-0.267126 z" />
  <path
     style="fill:#2b92db;fill-opacity:0.60000002"
     sodipodi:nodetypes="cccsscsccscsscccsccscscccccccccccccccccccccsccccccccccccccssccscsccccc"
     inkscape:connector-curvature="0"
     id="path1"
     d="m 269.09146,24.925144 c -183.283106,45.489399 -91.64155,22.7447 0,0 z m 48.10873,5.106046 c -0.50223,-0.05277 -0.71241,-0.04237 -0.46576,0.02176 0.24665,0.06413 0.65835,0.107385 0.91294,0.09593 0.25459,-0.01146 0.0541,-0.06501 -0.44718,-0.117684 z m -56.33972,1.756946 c -0.0655,-0.02133 -0.46932,0.300429 -2.182,1.720857 -2.33472,1.936428 -2.33989,1.9351 0.0397,0.05131 1.18114,-0.93469 2.14842,-1.718888 2.15103,-1.743751 0.002,-0.01492 6.5e-4,-0.02536 -0.009,-0.02841 z m 16.51919,3.560182 c -0.0249,-0.0026 -0.7867,0.616133 -1.69381,1.373487 -1.83141,1.524964 -1.83375,1.521484 0.04,0.04937 1.56941,-1.232747 1.77417,-1.410213 1.65383,-1.422857 z m -10.77269,8.92312 c -181.626779,32.591865 -90.81339,16.295935 0,0 z m -75.68796,-7.923391 c -0.66211,-0.07912 -1.32134,-0.121302 -1.73775,-0.09618 -1.17093,0.07203 -3.02199,0.721703 -13.65679,4.784623 -13.50604,5.158879 -11.658,4.346801 -24.59605,10.769954 -25.20654,12.512449 -22.77345,11.438659 -24.67311,10.905219 -0.59082,-0.16665 -9.58608,-2.89978 -19.9904,-6.073396 -28.208022,-9.28431 -24.299937,-6.177369 -40.975895,5.584576 -5.251867,3.70447 -3.628159,3.3617 -14.396045,3.03569 -13.49582,-1.54454 -18.044225,3.59211 -29.194017,10.68156 -5.703857,3.63284 -4.23081,3.24948 -15.8478312,4.12431 -5.10823143,0.3853 -9.5189578,0.73518 -9.8008661,0.77695 l -0.5146183,0.0756 -0.6709507,5.9743 -0.6711565,5.97627 0.5312181,0.14028 c 0.9881684,0.26069 3.3471922,0.14946 14.0418491,-0.65537 13.0623836,-0.98439 12.2974006,-0.81933 16.5255276,-3.54643 0.939381,-0.60515 2.838243,-1.80608 4.219607,-2.66544 5.42984,-3.37909 9.915192,-6.19758 11.381805,-7.15054 2.569437,-1.66863 1.339058,-1.56902 14.711778,-1.16236 9.951863,0.30262 9.077465,0.53842 15.865897,-4.27756 2.254454,-1.59917 5.455659,-3.84282 12.427646,-8.71191 1.641819,-1.14671 2.020466,-1.27138 3.056426,-0.99662 0.755129,0.20102 17.375926,5.24825 29.588316,8.98489 13.89671,4.25248 12.05637,4.32195 22.46086,-0.84106 3.84132,-1.90703 11.599,-5.75598 17.23848,-8.55599 12.66872,-6.290572 11.76192,-5.862173 15.43269,-7.294423 13.9452,-5.443546 17.92775,-6.883004 18.79896,-6.791463 0.51218,0.05382 3.01431,0.864381 6.19344,2.005846 5.35744,1.922372 6.20893,2.167445 4.65913,1.33795 -0.85684,-0.458046 -0.82645,-0.458861 0.70805,-0.01005 0.36882,0.107129 0.36347,0.09079 -0.0628,-0.187272 -0.3633,-0.236258 -0.38484,-0.274971 -0.0886,-0.166416 0.28277,0.103114 0.35508,0.08122 0.2758,-0.08296 -0.0652,-0.135556 -0.0451,-0.174177 0.0536,-0.09846 0.3152,0.244275 1.56957,-1.949608 1.42443,-2.491744 -0.0373,-0.142678 -0.003,-0.290804 0.0779,-0.329605 0.28697,-0.137766 0.66881,-1.509657 0.84785,-3.041333 0.12213,-1.03792 0.26474,-1.627699 0.43047,-1.77921 0.2802,-0.255117 0.56615,-1.875875 0.41432,-2.354361 -0.11224,-0.357687 0.0701,-0.550313 0.55643,-0.585685 0.31415,-0.0233 -11.39326,-4.33191 -13.28832,-4.889996 -0.42957,-0.127086 -1.0951,-0.242987 -1.75721,-0.322109 z m 15.1934,5.449559 c -0.0915,-0.0096 -0.26449,0.0104 -0.38366,0.04413 -0.23946,0.06835 -0.16063,0.375897 0.10291,0.403589 0.0915,0.0096 0.13288,-0.05673 0.0899,-0.145698 -0.0429,-0.08897 0.0178,-0.1885 0.13736,-0.223197 0.11918,-0.03373 0.14395,-0.06932 0.0534,-0.07883 z" />
  <g
     transform="matrix(1.2661284,0,0,1.2661284,-65.66165,-135.56207)"
     id="text826"
     style="font-style:normal;font-weight:normal;font-size:40px;line-height:1.25;font-family:sans-serif;letter-spacing:0px;word-spacing:0px;fill:#2b92db;fill-opacity:0.60000002;stroke:none"
     aria-label="Depósitos">
    <path
       inkscape:connector-curvature="0"
       id="path832"
       style="font-style:normal;font-variant:normal;font-weight:normal;font-stretch:normal;font-size:17.33333397px;font-family:'Arial Black';-inkscape-font-specification:'Arial Black, ';fill:#2b92db;fill-opacity:0.60000002"
       d="m 107.85297,109.46156 h 5.69596 q 1.68424,0 2.7168,0.45703 1.04101,0.45703 1.7181,1.31185 0.67708,0.85482 0.98177,1.98893 0.30468,1.13411 0.30468,2.40365 0,1.98893 -0.45703,3.08919 -0.44856,1.0918 -1.2526,1.83659 -0.80404,0.73633 -1.72656,0.98177 -1.26107,0.33854 -2.28516,0.33854 h -5.69596 z m 3.83398,2.80989 v 6.7793 h 0.93945 q 1.20183,0 1.70964,-0.26237 0.50781,-0.27083 0.79557,-0.93099 0.28776,-0.66862 0.28776,-2.1582 0,-1.97201 -0.64323,-2.69987 -0.64323,-0.72787 -2.13281,-0.72787 z" />
    <path
       inkscape:connector-curvature="0"
       id="path834"
       style="font-style:normal;font-variant:normal;font-weight:normal;font-stretch:normal;font-size:17.33333397px;font-family:'Arial Black';-inkscape-font-specification:'Arial Black, ';fill:#2b92db;fill-opacity:0.60000002"
       d="m 131.02614,118.22979 h -6.90625 q 0.0931,0.82942 0.44857,1.23567 0.49935,0.58399 1.30339,0.58399 0.50781,0 0.96484,-0.25391 0.2793,-0.1608 0.60091,-0.56705 l 3.39388,0.31315 q -0.77864,1.35416 -1.8789,1.94661 -1.10026,0.58399 -3.1569,0.58399 -1.78581,0 -2.8099,-0.49935 -1.02409,-0.50782 -1.70117,-1.59961 -0.66862,-1.10026 -0.66862,-2.58138 0,-2.10743 1.3457,-3.41081 1.35417,-1.30339 3.73242,-1.30339 1.92969,0 3.04688,0.58399 1.11719,0.58398 1.70117,1.69271 0.58398,1.10872 0.58398,2.88606 z m -3.5039,-1.65039 q -0.10156,-0.9987 -0.54167,-1.43034 -0.43164,-0.43164 -1.14258,-0.43164 -0.82096,0 -1.31185,0.65169 -0.31315,0.40625 -0.39778,1.21029 z" />
    <path
       inkscape:connector-curvature="0"
       id="path836"
       style="font-style:normal;font-variant:normal;font-weight:normal;font-stretch:normal;font-size:17.33333397px;font-family:'Arial Black';-inkscape-font-specification:'Arial Black, ';fill:#2b92db;fill-opacity:0.60000002"
       d="m 132.64268,125.28838 v -12.40755 h 3.22461 v 1.32877 q 0.66862,-0.83789 1.22721,-1.13411 0.75326,-0.39779 1.66732,-0.39779 1.80274,0 2.78451,1.37956 0.99023,1.37956 0.99023,3.41081 0,2.24284 -1.07487,3.42773 -1.07487,1.17644 -2.7168,1.17644 -0.79557,0 -1.45572,-0.27084 -0.6517,-0.27083 -1.16797,-0.80403 v 4.29101 z m 3.45313,-7.88802 q 0,1.06641 0.44856,1.58268 0.44857,0.51628 1.13412,0.51628 0.60091,0 1.00716,-0.49089 0.40625,-0.49935 0.40625,-1.68424 0,-1.0918 -0.42318,-1.59961 -0.42317,-0.51628 -1.03255,-0.51628 -0.66016,0 -1.10026,0.51628 -0.4401,0.51627 -0.4401,1.67578 z" />
    <path
       inkscape:connector-curvature="0"
       id="path838"
       style="font-style:normal;font-variant:normal;font-weight:normal;font-stretch:normal;font-size:17.33333397px;font-family:'Arial Black';-inkscape-font-specification:'Arial Black, ';fill:#2b92db;fill-opacity:0.60000002"
       d="m 143.7807,117.40036 q 0,-2.05664 1.38802,-3.38542 1.38803,-1.33724 3.74935,-1.33724 2.69987,0 4.07943,1.56576 1.10872,1.26107 1.10872,3.10612 0,2.07357 -1.37955,3.40234 -1.3711,1.32032 -3.80013,1.32032 -2.16667,0 -3.50391,-1.10027 -1.64193,-1.36263 -1.64193,-3.57161 z m 3.45313,-0.008 q 0,1.20182 0.48242,1.77734 0.49089,0.57552 1.22721,0.57552 0.7448,0 1.21875,-0.56706 0.48243,-0.56705 0.48243,-1.81966 0,-1.16797 -0.48243,-1.73502 -0.48242,-0.57552 -1.19336,-0.57552 -0.75325,0 -1.24414,0.58398 -0.49088,0.57552 -0.49088,1.76042 z m 1.625,-8.14193 h 2.96224 l -2.73373,2.5306 h -1.65039 z" />
    <path
       inkscape:connector-curvature="0"
       id="path840"
       style="font-style:normal;font-variant:normal;font-weight:normal;font-stretch:normal;font-size:17.33333397px;font-family:'Arial Black';-inkscape-font-specification:'Arial Black, ';fill:#2b92db;fill-opacity:0.60000002"
       d="m 155.17263,119.38083 3.41927,-0.32162 q 0.21159,0.60938 0.59245,0.87175 0.38086,0.26237 1.01562,0.26237 0.69401,0 1.07487,-0.29623 0.29623,-0.22005 0.29623,-0.55013 0,-0.37239 -0.38932,-0.57552 -0.2793,-0.14388 -1.48112,-0.35547 -1.79428,-0.31315 -2.49675,-0.57552 -0.69401,-0.27083 -1.17643,-0.90559 -0.47396,-0.63477 -0.47396,-1.44727 0,-0.88867 0.51628,-1.5319 0.51627,-0.64323 1.42187,-0.95638 0.9056,-0.32162 2.42904,-0.32162 1.60807,0 2.36979,0.24545 0.77018,0.24544 1.27799,0.76172 0.51628,0.51627 0.85482,1.39648 l -3.26693,0.32161 q -0.12695,-0.43164 -0.42317,-0.63476 -0.40625,-0.27083 -0.98177,-0.27083 -0.58399,0 -0.85482,0.21158 -0.26237,0.20313 -0.26237,0.49935 0,0.33008 0.33854,0.49935 0.33854,0.16927 1.47266,0.30469 1.7181,0.19466 2.55599,0.54167 0.83789,0.347 1.27799,0.99023 0.44857,0.64323 0.44857,1.41341 0,0.77865 -0.47396,1.51498 -0.46549,0.73632 -1.48112,1.17643 -1.00716,0.43164 -2.75065,0.43164 -2.46289,0 -3.51237,-0.70248 -1.04102,-0.70247 -1.33724,-1.99739 z" />
    <path
       inkscape:connector-curvature="0"
       id="path842"
       style="font-style:normal;font-variant:normal;font-weight:normal;font-stretch:normal;font-size:17.33333397px;font-family:'Arial Black';-inkscape-font-specification:'Arial Black, ';fill:#2b92db;fill-opacity:0.60000002"
       d="m 166.50531,109.46156 h 3.44466 v 2.3444 h -3.44466 z m 0,3.41927 h 3.44466 v 8.98828 h -3.44466 z" />
    <path
       inkscape:connector-curvature="0"
       id="path844"
       style="font-style:normal;font-variant:normal;font-weight:normal;font-stretch:normal;font-size:17.33333397px;font-family:'Arial Black';-inkscape-font-specification:'Arial Black, ';fill:#2b92db;fill-opacity:0.60000002"
       d="m 176.32302,109.46156 v 3.41927 h 1.89583 v 2.51367 h -1.89583 v 3.19076 q 0,0.57552 0.11002,0.76171 0.16928,0.28777 0.59245,0.28777 0.38086,0 1.06641,-0.22006 l 0.25391,2.37826 q -1.278,0.2793 -2.38672,0.2793 -1.28646,0 -1.89584,-0.33008 -0.60937,-0.33008 -0.9056,-0.9987 -0.28776,-0.67708 -0.28776,-2.18359 v -3.16537 h -1.26953 v -2.51367 h 1.26953 v -1.65039 z" />
    <path
       inkscape:connector-curvature="0"
       id="path846"
       style="font-style:normal;font-variant:normal;font-weight:normal;font-stretch:normal;font-size:17.33333397px;font-family:'Arial Black';-inkscape-font-specification:'Arial Black, ';fill:#2b92db;fill-opacity:0.60000002"
       d="m 179.42914,117.40036 q 0,-2.05664 1.38802,-3.38542 1.38802,-1.33724 3.74935,-1.33724 2.69987,0 4.07943,1.56576 1.10872,1.26107 1.10872,3.10612 0,2.07357 -1.37956,3.40234 -1.37109,1.32032 -3.80013,1.32032 -2.16666,0 -3.5039,-1.10027 -1.64193,-1.36263 -1.64193,-3.57161 z m 3.45313,-0.008 q 0,1.20182 0.48242,1.77734 0.49088,0.57552 1.22721,0.57552 0.74479,0 1.21875,-0.56706 0.48242,-0.56705 0.48242,-1.81966 0,-1.16797 -0.48242,-1.73502 -0.48242,-0.57552 -1.19336,-0.57552 -0.75325,0 -1.24414,0.58398 -0.49088,0.57552 -0.49088,1.76042 z" />
    <path
       inkscape:connector-curvature="0"
       id="path848"
       style="font-style:normal;font-variant:normal;font-weight:normal;font-stretch:normal;font-size:17.33333397px;font-family:'Arial Black';-inkscape-font-specification:'Arial Black, ';fill:#2b92db;fill-opacity:0.60000002"
       d="m 190.82107,119.38083 3.41927,-0.32162 q 0.21159,0.60938 0.59245,0.87175 0.38086,0.26237 1.01562,0.26237 0.69401,0 1.07487,-0.29623 0.29623,-0.22005 0.29623,-0.55013 0,-0.37239 -0.38933,-0.57552 -0.27929,-0.14388 -1.48112,-0.35547 -1.79427,-0.31315 -2.49674,-0.57552 -0.69401,-0.27083 -1.17643,-0.90559 -0.47396,-0.63477 -0.47396,-1.44727 0,-0.88867 0.51627,-1.5319 0.51628,-0.64323 1.42188,-0.95638 0.9056,-0.32162 2.42903,-0.32162 1.60808,0 2.3698,0.24545 0.77018,0.24544 1.27799,0.76172 0.51628,0.51627 0.85482,1.39648 l -3.26693,0.32161 q -0.12695,-0.43164 -0.42318,-0.63476 -0.40625,-0.27083 -0.98177,-0.27083 -0.58398,0 -0.85481,0.21158 -0.26237,0.20313 -0.26237,0.49935 0,0.33008 0.33854,0.49935 0.33854,0.16927 1.47265,0.30469 1.7181,0.19466 2.55599,0.54167 0.83789,0.347 1.278,0.99023 0.44857,0.64323 0.44857,1.41341 0,0.77865 -0.47396,1.51498 -0.4655,0.73632 -1.48112,1.17643 -1.00716,0.43164 -2.75065,0.43164 -2.46289,0 -3.51237,-0.70248 -1.04102,-0.70247 -1.33724,-1.99739 z" />
  </g>
  <g
     transform="matrix(1.2661284,0,0,1.2661284,-45.795518,71.035803)"
     id="text830"
     style="font-style:normal;font-weight:normal;font-size:40px;line-height:1.25;font-family:sans-serif;letter-spacing:0px;word-spacing:0px;fill:#d36384;fill-opacity:0.60000002;stroke:none"
     aria-label="Retiradas">
    <path
       inkscape:connector-curvature="0"
       id="path851"
       style="font-style:normal;font-variant:normal;font-weight:normal;font-stretch:normal;font-size:17.33333397px;font-family:'Arial Black';-inkscape-font-specification:'Arial Black, ';fill:#d36384;fill-opacity:0.60000002"
       d="M 209.10924,17.346498 V 4.938946 h 6.38997 q 1.77735,0 2.7168,0.3046875 0.93945,0.3046875 1.51497,1.1341146 0.57552,0.8209636 0.57552,2.0058594 0,1.0325522 -0.4401,1.7858075 -0.4401,0.744792 -1.21029,1.210286 -0.49088,0.296224 -1.3457,0.490886 0.68555,0.228515 0.9987,0.457031 0.21159,0.152344 0.60937,0.651693 0.40625,0.499349 0.54167,0.770182 l 1.85352,3.597005 h -4.33334 l -2.04818,-3.791666 q -0.38932,-0.736328 -0.69401,-0.956381 -0.41471,-0.28776 -0.93945,-0.28776 h -0.33854 v 5.035807 z m 3.85091,-7.3802081 h 1.61654 q 0.26237,0 1.01562,-0.1692709 0.38086,-0.076172 0.61784,-0.3893229 0.24544,-0.313151 0.24544,-0.7194011 0,-0.6009114 -0.38086,-0.922526 -0.38086,-0.3216146 -1.43034,-0.3216146 h -1.68424 z" />
    <path
       inkscape:connector-curvature="0"
       id="path853"
       style="font-style:normal;font-variant:normal;font-weight:normal;font-stretch:normal;font-size:17.33333397px;font-family:'Arial Black';-inkscape-font-specification:'Arial Black, ';fill:#d36384;fill-opacity:0.60000002"
       d="m 231.84231,13.707175 h -6.90625 q 0.0931,0.829428 0.44857,1.235678 0.49935,0.583984 1.30338,0.583984 0.50782,0 0.96485,-0.253906 0.27929,-0.160808 0.60091,-0.567058 l 3.39388,0.313151 q -0.77865,1.354167 -1.87891,1.946615 -1.10026,0.583984 -3.1569,0.583984 -1.7858,0 -2.80989,-0.499348 -1.02409,-0.507813 -1.70118,-1.59961 -0.66862,-1.10026 -0.66862,-2.58138 0,-2.107422 1.34571,-3.4108076 1.35416,-1.3033855 3.73242,-1.3033855 1.92969,0 3.04687,0.5839844 1.11719,0.5839844 1.70118,1.6927087 0.58398,1.108724 0.58398,2.886068 z m -3.50391,-1.65039 q -0.10156,-0.998698 -0.54166,-1.430339 -0.43164,-0.43164 -1.14258,-0.43164 -0.82096,0 -1.31185,0.651692 -0.31315,0.40625 -0.39779,1.210287 z" />
    <path
       inkscape:connector-curvature="0"
       id="path855"
       style="font-style:normal;font-variant:normal;font-weight:normal;font-stretch:normal;font-size:17.33333397px;font-family:'Arial Black';-inkscape-font-specification:'Arial Black, ';fill:#d36384;fill-opacity:0.60000002"
       d="m 237.59752,4.938946 v 3.4192709 h 1.89583 v 2.5136721 h -1.89583 v 3.190755 q 0,0.575521 0.11003,0.761719 0.16927,0.28776 0.59244,0.28776 0.38086,0 1.06641,-0.220052 l 0.25391,2.378256 q -1.278,0.279296 -2.38672,0.279296 -1.28646,0 -1.89584,-0.330078 -0.60937,-0.330078 -0.90559,-0.998698 -0.28776,-0.677083 -0.28776,-2.183593 v -3.165365 h -1.26954 V 8.3582169 h 1.26954 V 6.7078262 Z" />
    <path
       inkscape:connector-curvature="0"
       id="path857"
       style="font-style:normal;font-variant:normal;font-weight:normal;font-stretch:normal;font-size:17.33333397px;font-family:'Arial Black';-inkscape-font-specification:'Arial Black, ';fill:#d36384;fill-opacity:0.60000002"
       d="m 241.25377,4.938946 h 3.44466 v 2.3444011 h -3.44466 z m 0,3.4192709 h 3.44466 v 8.9882811 h -3.44466 z" />
    <path
       inkscape:connector-curvature="0"
       id="path859"
       style="font-style:normal;font-variant:normal;font-weight:normal;font-stretch:normal;font-size:17.33333397px;font-family:'Arial Black';-inkscape-font-specification:'Arial Black, ';fill:#d36384;fill-opacity:0.60000002"
       d="m 246.94973,8.3582169 h 3.22461 v 1.4726563 q 0.4655,-0.9563802 0.95638,-1.311849 0.49935,-0.3639323 1.22722,-0.3639323 0.76171,0 1.66731,0.4739584 l -1.0664,2.4544267 q -0.60938,-0.253906 -0.96485,-0.253906 -0.67708,0 -1.04948,0.558594 -0.5332,0.787109 -0.5332,2.945313 v 3.01302 h -3.46159 z" />
    <path
       inkscape:connector-curvature="0"
       id="path861"
       style="font-style:normal;font-variant:normal;font-weight:normal;font-stretch:normal;font-size:17.33333397px;font-family:'Arial Black';-inkscape-font-specification:'Arial Black, ';fill:#d36384;fill-opacity:0.60000002"
       d="m 258.04544,11.269675 -3.29232,-0.347005 q 0.1862,-0.863281 0.5332,-1.3541666 0.35547,-0.499349 1.01563,-0.8632813 0.47396,-0.2623698 1.30338,-0.40625 0.82943,-0.1438802 1.79428,-0.1438802 1.54882,0 2.48828,0.1777344 0.93945,0.1692708 1.56575,0.7194011 0.44011,0.3808593 0.69401,1.0833336 0.25391,0.69401 0.25391,1.328776 v 3.969401 q 0,0.634766 0.0762,0.998698 0.0846,0.355469 0.35547,0.914062 h -3.23307 q -0.19467,-0.347005 -0.25391,-0.524739 -0.0593,-0.186198 -0.11849,-0.575521 -0.67708,0.651693 -1.3457,0.93099 -0.91407,0.372395 -2.12435,0.372395 -1.60808,0 -2.44597,-0.744791 -0.82942,-0.744792 -0.82942,-1.836589 0,-1.024088 0.60091,-1.684245 0.60091,-0.660156 2.21745,-0.981771 1.93815,-0.389322 2.51367,-0.541666 0.57552,-0.160808 1.21875,-0.414714 0,-0.634765 -0.26237,-0.888672 -0.26237,-0.253906 -0.92253,-0.253906 -0.84635,0 -1.26953,0.270833 -0.33008,0.211589 -0.5332,0.795573 z m 2.98763,1.811198 q -0.71094,0.253907 -1.48112,0.448568 -1.04948,0.279297 -1.32878,0.55013 -0.28776,0.279297 -0.28776,0.634766 0,0.40625 0.2793,0.66862 0.28776,0.253906 0.83789,0.253906 0.57552,0 1.06641,-0.279297 0.49935,-0.279297 0.70247,-0.677083 0.21159,-0.40625 0.21159,-1.049479 z" />
    <path
       inkscape:connector-curvature="0"
       id="path863"
       style="font-style:normal;font-variant:normal;font-weight:normal;font-stretch:normal;font-size:17.33333397px;font-family:'Arial Black';-inkscape-font-specification:'Arial Black, ';fill:#d36384;fill-opacity:0.60000002"
       d="m 275.94583,4.938946 v 12.407552 h -3.22461 v -1.328776 q -0.67708,0.846355 -1.23568,1.142579 -0.74479,0.389322 -1.65885,0.389322 -1.83659,0 -2.8099,-1.396484 -0.96484,-1.396484 -0.96484,-3.39388 0,-2.234375 1.0664,-3.4192712 1.07487,-1.1848959 2.72527,-1.1848959 0.80403,0 1.45572,0.2708333 0.66016,0.2708334 1.16797,0.8125001 V 4.938946 Z m -3.45313,7.888021 q 0,-1.057943 -0.44856,-1.574219 -0.44857,-0.524739 -1.13412,-0.524739 -0.60091,0 -1.00716,0.499349 -0.40625,0.499349 -0.40625,1.675781 0,1.10026 0.41471,1.616536 0.42318,0.507813 1.04102,0.507813 0.66016,0 1.10026,-0.516276 0.4401,-0.516276 0.4401,-1.684245 z" />
    <path
       inkscape:connector-curvature="0"
       id="path865"
       style="font-style:normal;font-variant:normal;font-weight:normal;font-stretch:normal;font-size:17.33333397px;font-family:'Arial Black';-inkscape-font-specification:'Arial Black, ';fill:#d36384;fill-opacity:0.60000002"
       d="m 281.20169,11.269675 -3.29232,-0.347005 q 0.1862,-0.863281 0.5332,-1.3541666 0.35547,-0.499349 1.01563,-0.8632813 0.47396,-0.2623698 1.30338,-0.40625 0.82943,-0.1438802 1.79428,-0.1438802 1.54882,0 2.48828,0.1777344 0.93945,0.1692708 1.56575,0.7194011 0.44011,0.3808593 0.69401,1.0833336 0.25391,0.69401 0.25391,1.328776 v 3.969401 q 0,0.634766 0.0762,0.998698 0.0846,0.355469 0.35547,0.914062 h -3.23307 q -0.19467,-0.347005 -0.25391,-0.524739 -0.0593,-0.186198 -0.11849,-0.575521 -0.67708,0.651693 -1.3457,0.93099 -0.91407,0.372395 -2.12435,0.372395 -1.60808,0 -2.44597,-0.744791 -0.82942,-0.744792 -0.82942,-1.836589 0,-1.024088 0.60091,-1.684245 0.60091,-0.660156 2.21745,-0.981771 1.93815,-0.389322 2.51367,-0.541666 0.57552,-0.160808 1.21875,-0.414714 0,-0.634765 -0.26237,-0.888672 -0.26237,-0.253906 -0.92253,-0.253906 -0.84635,0 -1.26953,0.270833 -0.33008,0.211589 -0.5332,0.795573 z m 2.98763,1.811198 q -0.71094,0.253907 -1.48112,0.448568 -1.04948,0.279297 -1.32878,0.55013 -0.28776,0.279297 -0.28776,0.634766 0,0.40625 0.2793,0.66862 0.28776,0.253906 0.83789,0.253906 0.57552,0 1.06641,-0.279297 0.49935,-0.279297 0.70247,-0.677083 0.21159,-0.40625 0.21159,-1.049479 z" />
    <path
       inkscape:connector-curvature="0"
       id="path867"
       style="font-style:normal;font-variant:normal;font-weight:normal;font-stretch:normal;font-size:17.33333397px;font-family:'Arial Black';-inkscape-font-specification:'Arial Black, ';fill:#d36384;fill-opacity:0.60000002"
       d="m 289.03046,14.858217 3.41928,-0.321614 q 0.21158,0.609375 0.59244,0.871744 0.38086,0.26237 1.01563,0.26237 0.69401,0 1.07487,-0.296224 0.29622,-0.220052 0.29622,-0.55013 0,-0.372396 -0.38932,-0.575521 -0.2793,-0.14388 -1.48112,-0.355469 -1.79427,-0.313151 -2.49675,-0.57552 -0.69401,-0.270834 -1.17643,-0.905599 -0.47396,-0.634766 -0.47396,-1.447266 0,-0.888672 0.51628,-1.5319013 0.51628,-0.6432291 1.42187,-0.9563802 0.9056,-0.3216146 2.42904,-0.3216146 1.60807,0 2.36979,0.2454427 0.77019,0.2454427 1.278,0.7617188 0.51627,0.5162761 0.85482,1.3964846 l -3.26693,0.321614 q -0.12695,-0.43164 -0.42318,-0.634765 -0.40625,-0.2708336 -0.98177,-0.2708336 -0.58398,0 -0.85482,0.2115886 -0.26237,0.203125 -0.26237,0.499349 0,0.330078 0.33854,0.499349 0.33855,0.169271 1.47266,0.304687 1.7181,0.194662 2.55599,0.541667 0.83789,0.347005 1.278,0.990235 0.44856,0.643229 0.44856,1.413411 0,0.778646 -0.47396,1.514974 -0.46549,0.736328 -1.48112,1.176432 -1.00716,0.431641 -2.75065,0.431641 -2.46289,0 -3.51237,-0.702474 -1.04101,-0.702474 -1.33724,-1.997396 z" />
  </g>
</svg>
