<?xml version="1.0" encoding="UTF-8" standalone="no"?>
<svg
   xmlns:dc="http://purl.org/dc/elements/1.1/"
   xmlns:cc="http://creativecommons.org/ns#"
   xmlns:rdf="http://www.w3.org/1999/02/22-rdf-syntax-ns#"
   xmlns:svg="http://www.w3.org/2000/svg"
   xmlns="http://www.w3.org/2000/svg"
   xmlns:sodipodi="http://sodipodi.sourceforge.net/DTD/sodipodi-0.dtd"
   xmlns:inkscape="http://www.inkscape.org/namespaces/inkscape"
   id="svg"
   version="1.1"
   width="400"
   height="400"
   viewBox="0, 0, 400,400"
   sodipodi:docname="maze.svg"
   inkscape:version="0.92.4 (5da689c313, 2019-01-14)">
  <metadata
     id="metadata11">
    <rdf:RDF>
      <cc:Work
         rdf:about="">
        <dc:format>image/svg+xml</dc:format>
        <dc:type
           rdf:resource="http://purl.org/dc/dcmitype/StillImage" />
        <dc:title></dc:title>
      </cc:Work>
    </rdf:RDF>
  </metadata>
  <defs
     id="defs9" />
  <sodipodi:namedview
     pagecolor="#ffffff"
     bordercolor="#666666"
     borderopacity="1"
     objecttolerance="10"
     gridtolerance="10"
     guidetolerance="10"
     inkscape:pageopacity="0"
     inkscape:pageshadow="2"
     inkscape:window-width="1920"
     inkscape:window-height="1017"
     id="namedview7"
     showgrid="false"
     inkscape:zoom="1.668772"
     inkscape:cx="401.28019"
     inkscape:cy="259.47862"
     inkscape:window-x="-8"
     inkscape:window-y="-8"
     inkscape:window-maximized="1"
     inkscape:current-layer="svg" />
  <g
     id="svgg"
     transform="matrix(1.0149811,0,0,1.0134611,-2.99622,-2.69222)">
    <path
       id="path0"
       d="m 45.28,50.88 c -0.624,0.624 -0.685,21.59 -0.066,22.746 0.505,0.943 12.195,1.205 13.106,0.294 0.685,-0.685 0.685,-22.355 0,-23.04 -0.671,-0.671 -12.369,-0.671 -13.04,0 m 0,32.4 c -0.69,0.69 -0.69,33.15 0,33.84 0.331,0.331 2.356,0.48 6.52,0.48 4.164,0 6.189,-0.149 6.52,-0.48 0.69,-0.69 0.69,-33.15 0,-33.84 -0.331,-0.331 -2.356,-0.48 -6.52,-0.48 -4.164,0 -6.189,0.149 -6.52,0.48 m 7.99,35.541 c -0.485,1.312 -0.569,10.068 -0.108,11.279 l 0.418,1.1 h 11.796 c 11.253,0 11.815,-0.036 12.21,-0.774 0.539,-1.006 0.539,-10.646 0,-11.652 -0.666,-1.245 -23.854,-1.2 -24.316,0.047 m 32.768,-0.267 c -0.313,0.377 -0.424,2.456 -0.349,6.5 L 85.8,131 l 11.369,0.106 11.368,0.107 -3.868,3.937 c -4.995,5.084 -5,4.84 0.231,10 5.259,5.187 4.451,5.356 12.324,-2.575 11.32392,-17.68344 12.25059,-17.17741 19.31,-19.736 4.508,-4.669 4.225,-4.839 -8.083,-4.839 -10.414,0 -10.446,0.007 -10.459,2.38 -0.007,1.255 -0.447,1.86 -3.799,5.22 l -3.791,3.8 -0.001,-4.926 C 110.4,117.333 111.674,118 98.035,118 c -9.343,0 -11.625,0.105 -11.997,0.554 m 257.252,7.116 c -0.567,0.567 -0.71,21.363 -0.154,22.241 0.246,0.386 1.826,0.484 6.494,0.4 l 6.17,-0.111 v -11.4 -11.4 l -6.01,-0.11 c -4.336,-0.079 -6.147,0.027 -6.5,0.38 M 85.972,154.446 c -9.261,9.605 -9.048,8.793 -3.692,14.082 5.223,5.158 4.664,5.246 11.559,-1.828 11.596,-11.898 11.157,-10.64 5.645,-16.2 -5.201,-5.247 -4.434,-5.471 -13.512,3.946 m 257.279,2.892 c -0.333,0.402 -0.434,3.752 -0.357,11.911 L 343,180.6 h 6.4 6.4 V 168.8 157 l -6.043,-0.11 c -4.786,-0.087 -6.139,0.006 -6.506,0.448 M 70.99,170.094 c -0.435,0.235 -1.69,1.368 -2.79,2.52 -1.1,1.151 -4.385,4.525 -7.3,7.497 -6.711,6.844 -6.663,6.523 -1.69,11.364 5.479,5.334 5.01,5.382 11.495,-1.181 12.153,-12.3 11.635,-10.991 6.395,-16.158 -4.224,-4.164 -4.969,-4.658 -6.11,-4.042 m 272.29,19.586 c -0.278,0.278 -0.48,1.607 -0.48,3.153 v 2.672 l -4,4.456 c -4.651,5.181 -4.651,5.18 -1.9,7.759 6.915,6.48 7.688,6.776 10.3,3.941 0.77,-0.835 3.065,-3.347 5.1,-5.582 l 3.7,-4.063 v -6.165 c 0,-5.253 -0.094,-6.201 -0.633,-6.408 -1.228,-0.472 -11.582,-0.268 -12.087,0.237 m -297.931,6.432 c -3.029,3.068 -3.495,3.84 -3.036,5.037 0.413,1.079 12.526,13.651 13.152,13.651 0.289,0 0.955,0.675 1.48,1.5 1.842,2.895 9.474,10.5 10.537,10.5 1.598,0 9.517,-7.953 9.194,-9.233 -0.278,-1.097 -2.413,-3.421 -12.961,-14.101 -7.591,-7.686 -8.612,-8.491 -9.872,-7.786 -0.659,0.369 -2.857,-1.052 -3.372,-2.18 -0.5,-1.093 -2.442,-0.102 -5.122,2.612 M 325.36,214.7 c -1.286,1.485 -3.448,3.87 -4.804,5.3 -1.356,1.43 -3.431,3.709 -4.611,5.063 -1.18,1.355 -3.9,4.384 -6.045,6.73 -4.884,5.343 -4.883,5.336 -0.816,9.13 1.696,1.582 3.534,3.312 4.085,3.844 1.032,0.996 3.081,1.313 3.566,0.55 0.256,-0.402 4.73,-5.376 9.265,-10.3 1.21,-1.314 2.38,-2.595 2.6,-2.847 0.22,-0.252 2.041,-2.239 4.047,-4.414 7.203,-7.815 7.088,-7.063 1.853,-12.043 -5.122,-4.873 -5.739,-4.941 -9.14,-1.013 M 77.98,227.903 c -5.507,5.401 -5.755,4.459 3.757,14.257 9.165,9.44 8.099,9.169 13.877,3.523 5.292,-5.172 5.949,-3.442 -5.893,-15.519 -7.362,-7.508 -6.549,-7.352 -11.741,-2.261 M 296.696,246.3 C 291.282,251.915 284,260.439 284,261.162 c 0,0.732 3.628,4.491 7.151,7.409 2.556,2.118 2.706,2.028 9.649,-5.784 1.65,-1.857 3.841,-4.278 4.869,-5.381 4.838,-5.191 4.862,-4.923 -0.911,-10.185 -4.754,-4.334 -4.77,-4.336 -8.062,-0.921 m -195.967,4.789 c -5.79,5.689 -6.094,4.478 3.596,14.279 9.084,9.187 8.377,8.999 13.83,3.686 5.375,-5.237 6.041,-3.508 -6.213,-16.139 -6.811,-7.021 -6.051,-6.897 -11.213,-1.826 m 171.645,21.929 C 260.57,285.97 259.952,284.8 278.6,284.8 c 16.575,0 15,0.678 15,-6.455 0,-7.058 0.266,-6.745 -5.731,-6.745 h -4.902 l -1.767,-1.8 c -2.888,-2.943 -3.371,-2.767 -8.826,3.218 m -146.631,-0.976 c -1.204,1.204 -1.274,1.222 -2.25,0.582 -1.763,-1.155 -2.661,-0.461 -13.62,10.525 -12.758,12.79 -12.183,11.419 -6.999,16.705 5.512,5.621 3.915,6.358 19.129,-8.832 14.651,-14.63 13.979,-13.476 10.159,-17.432 -3.197,-3.312 -4.372,-3.595 -6.419,-1.548 m 175.937,0.038 c -0.607,0.607 -0.664,10.829 -0.066,11.946 0.395,0.739 0.96,0.774 12.429,0.774 h 12.014 l -3.128,3.612 c -4.62,5.334 -4.606,5.312 -4.246,6.271 0.512,1.366 8.4,8.117 9.483,8.117 0.717,0 2.45,-1.71 7.287,-7.192 8.644,-9.795 8.881,-10.73 3.88,-15.346 l -2.533,-2.339 v -2.388 c 0,-4.297 1.634,-3.935 -17.734,-3.935 -12.616,0 -17.028,0.122 -17.386,0.48 M 84.199,308.85 c -4.93,4.929 -7.848,8.15 -8.018,8.849 -0.316,1.302 7.338,9.501 8.869,9.501 0.856,0 15.624,-14.45 16.287,-15.937 0.642,-1.439 -0.04,-2.595 -3.623,-6.139 -5.253,-5.196 -4.339,-5.447 -13.515,3.726 m 227.328,-7.15 c -0.344,0.275 -2.581,2.75 -4.972,5.5 -2.391,2.75 -5.059,5.77 -5.928,6.712 -4.449,4.821 -4.426,5.019 1.173,9.841 5.398,4.65 5.018,4.715 10.655,-1.83 2.5,-2.902 4.905,-5.655 5.345,-6.118 5.288,-5.566 5.557,-6.541 2.5,-9.062 -1.155,-0.953 -2.19,-1.824 -2.3,-1.938 -3.17,-3.256 -5.115,-4.19 -6.473,-3.105 M 60.921,332.1 c -8.169,8.179 -8.431,8.58 -6.949,10.66 0.524,0.736 0.654,1.27 0.406,1.662 -0.872,1.378 -0.447,11.484 0.511,12.155 1.052,0.737 31.8,0.95 33.685,0.233 l 1.026,-0.39 v -5.93 c 0,-7.573 1.046,-6.89 -10.543,-6.89 h -9.583 l 4.563,-4.614 c 5.887,-5.953 5.855,-5.586 0.917,-10.612 -5.44,-5.538 -4.542,-5.776 -14.033,3.726 m 227.213,-3.807 c -1.284,1.481 -2.893,3.326 -3.576,4.1 -1.291,1.462 -3.509,3.992 -7.491,8.541 -2.077,2.374 -2.493,2.667 -3.8,2.672 -2.589,0.011 -2.653,0.155 -2.797,6.349 -0.17,7.325 -0.235,7.245 5.897,7.245 5.568,0 4.901,0.373 10.292,-5.75 2.543,-2.887 5.658,-6.42 6.922,-7.85 1.265,-1.43 3.222,-3.711 4.349,-5.07 1.127,-1.358 2.234,-2.584 2.46,-2.724 1.27,-0.784 0.412,-2.948 -2.013,-5.078 -1.333,-1.17 -3.178,-2.798 -4.1,-3.617 -2.498,-2.219 -3.335,-2.058 -6.143,1.182 M 97.818,344.239 c -1.207,1.207 -0.712,11.787 0.582,12.454 1.43,0.736 22.525,0.544 23.281,-0.213 0.807,-0.808 0.735,-11.973 -0.081,-12.488 -1.14,-0.721 -23.042,-0.493 -23.782,0.247 m 38.582,-0.148 c -0.55,0.24 -1.514,0.674 -2.143,0.964 -0.788,0.363 -1.371,0.405 -1.874,0.136 -0.402,-0.215 -1.192,-0.391 -1.757,-0.391 H 129.6 v 5.324 c 0,7.565 -1.281,6.876 12.782,6.876 9.918,0 11.703,-0.089 12.026,-0.6 0.689,-1.09 0.488,-11.447 -0.237,-12.171 -0.77,-0.771 -16.052,-0.889 -17.771,-0.138 m 26.7,-0.059 c -0.617,0.36 -0.7,1.115 -0.7,6.398 v 5.99 l 1.026,0.39 c 0.604,0.229 7.51,0.39 16.774,0.39 9.264,0 16.17,-0.161 16.774,-0.39 L 198,356.42 v -5.996 c 0,-5.519 -0.062,-6.029 -0.774,-6.41 -1.048,-0.561 -33.161,-0.544 -34.126,0.018 m 43.129,0.197 c -0.724,0.724 -0.926,11.081 -0.238,12.171 0.467,0.74 21.5,1.126 23.336,0.428 l 1.073,-0.408 v -5.996 c 0,-5.519 -0.062,-6.029 -0.774,-6.41 -1.384,-0.741 -22.637,-0.546 -23.397,0.215 m 32.4,0 c -0.725,0.724 -0.926,11.081 -0.237,12.171 0.662,1.047 23.467,0.881 24.24,-0.176 0.984,-1.345 0.798,-10.794 -0.232,-11.824 -1.1,-1.1 -22.687,-1.256 -23.771,-0.171"
       inkscape:connector-curvature="0"
       style="fill:#0494dc;fill-rule:evenodd;stroke:none"
       sodipodi:nodetypes="ccssccsssssccccsccccccccccccsccccscccccccccccccccccccccccccccccccsccccccsccccscscsccccsccccccscccccccccscccccccscccsssccccccccccccscccscccsscccsccccscccccccccccccsscccccccccscccccccccccccccscssccccsccsccsccccccscccccsc" />
    <path
       id="path1"
       d="m 129.246,45.314 c 1.55304,2.862726 -1.15188,15.148699 -0.875,17.086 0.262,0 0.384,0.149 0.271,0.331 8.70388,3.030902 31.83296,38.94248 37.199,39.269 3.01024,-1.3815 11.39618,-8.225105 8.373,-10.718 -0.543,-0.427 -0.9,-0.862 -0.794,-0.968 C 163.60455,78.205954 153.11909,70.519491 145.101,60 c 0.131,0 -0.184,-0.45 -0.701,-1 l -0.939,-1 h 4.269 c 2.349,0 4.376,0.012 4.506,0.027 1.585,0.178 2.095,-11.778 0.544,-12.747 -1.087,-0.678 -22.853,-0.647 -23.534,0.034 m 32.48,0.043 c -0.179,0.319 -0.236,3.249 -0.126,6.511 l 0.2,5.932 16.2,0.115 c 16.07,0.114 19.04,-0.003 18.588,-0.735 -0.13,-0.209 -0.04,-0.38 0.2,-0.38 0.297,0 0.399,-1.738 0.323,-5.5 -0.083,-4.14 -0.235,-5.475 -0.611,-5.4 -0.275,0.055 -0.455,-0.125 -0.4,-0.4 0.161,-0.803 -33.923,-0.944 -34.374,-0.143 m 54.268,0.254 c -0.282,0.527 -0.397,2.886 -0.318,6.508 l 0.124,5.681 27,0.117 c 26.471,0.114 29.861,0.029 29.388,-0.737 -0.13,-0.209 -0.045,-0.38 0.188,-0.38 0.781,0 0.55,-10.244 -0.251,-11.18 -1.089,-1.271 -55.451,-1.28 -56.131,-0.009 m 64.888,0.006 c -0.833,1.335 -0.652,11.166 0.218,11.826 1.126,0.855 22.61,0.79 23.471,-0.072 1.011,-1.01 0.915,-10.988 -0.114,-11.919 -1.218,-1.102 -22.878,-0.95 -23.575,0.165 m 32.556,-0.479 c -0.098,0.159 -0.147,3.073 -0.108,6.475 l 0.07,6.187 h 17.2 17.2 l 0.111,-5.946 c 0.077,-4.111 -0.034,-6.12 -0.359,-6.511 -0.508,-0.613 -33.738,-0.813 -34.114,-0.205 m 13.61,18.59 c -10.02433,11.283336 -20.237,19.92045 -30.648,31.613 0,0.137 -1.08,1.319 -2.4,2.627 -2.64,2.615 -2.59,2.519 -1.947,3.758 0.512,0.987 6.34,6.821 6.36,6.367 0.008,-0.161 0.333,0.089 0.723,0.555 7.32175,2.17006 34.59849,-32.073032 38.88,-36.084 2.068,-1.906 2.106,-3.685 0.123,-5.777 -0.819,-0.864 -1.572,-1.487 -1.675,-1.384 -0.103,0.102 -0.581,-0.349 -1.064,-1.003 -0.483,-0.654 -0.995,-1.072 -1.139,-0.928 -0.143,0.144 -0.267,0.006 -0.274,-0.305 -0.016,-0.761 -1.857,-2.063 -3.111,-2.2 -0.797,-0.088 -1.611,0.499 -3.828,2.761 M 282.064,110.3 c -4.48688,4.97434 -8.73952,8.60328 -12.864,13.719 0,1.133 4.131,5.981 5.096,5.981 0.22,0 0.829,0.629 1.352,1.397 0.524,0.769 1.132,1.422 1.352,1.451 10.15283,-4.57621 20.82086,-14.50659 13.536,-21.537 -5.099,-4.917 -4.656,-4.864 -8.472,-1.011 M 179.6,116.135 c 0,1.068 0.992,2.458 3.7,5.186 4.42519,3.63324 15.67146,19.50045 19.954,19.879 1.216,0 9.146,-7.334 9.146,-8.458 0,-0.832 -1.195,-2.392 -1.627,-2.125 -0.205,0.127 -0.373,0.035 -0.373,-0.204 -7.51507,-6.75279 -12.91376,-16.99659 -20.862,-22.113 -0.186,0.055 -0.338,-0.08 -0.338,-0.3 m -61.83949,22.1361 c -6.0057,6.94721 7.6535,18.51017 11.08449,15.4639 1.42764,-1.40327 3.1446,-2.59758 4.319,-3.8 1.176,-1.21 1.98,-2.203 1.787,-2.206 -0.193,-0.003 -0.089,-0.172 0.231,-0.374 -1.29229,-6.66546 -12.82111,-13.21078 -15.51471,-10.77881 M 216.887,139.738 c -0.501,0.277 -0.807,0.609 -0.679,0.737 0.129,0.129 -0.36,0.611 -1.087,1.072 -5.508,3.496 -6.922,6.935 -3.996,9.72 4.84499,4.58326 12.28848,16.72759 17.092,11.733 1.153,-1.21 2.214,-2.2 2.357,-2.2 0.144,0 0.973,-0.659 1.843,-1.464 2.346,-2.17 2.229,-3.585 -0.517,-6.296 -5.58802,-3.54329 -6.98167,-10.92751 -13.317,-13.569 -0.431,-0.13 -1.194,-0.009 -1.696,0.267 M 150,145.484 c -0.33,0.114 -1.77,1.377 -3.2,2.809 -1.43,1.431 -3.017,2.986 -3.526,3.455 -1.522,1.4 -0.97,3.113 1.91,5.932 8.01709,8.62228 36.55978,36.06686 36.816,35.766 0,-0.209 0.116,-0.264 0.257,-0.122 0.141,0.141 1.942,-1.42 4.001,-3.469 4.815,-4.791 4.817,-4.867 0.24,-9.355 -1.85,-1.815 -3.222,-3.3 -3.047,-3.3 -6.0082,-6.83814 -30.75114,-31.74818 -33.451,-31.716 m 85.144,21.734 c -2.122,2.164 -3.758,4.035 -3.635,4.158 0.124,0.123 0.014,0.224 -0.242,0.224 7.64967,6.99657 22.40349,32.49572 35.663,40.137 0.148,-0.149 0.27,-0.06 0.27,0.196 0,0.257 0.559,0.467 1.243,0.467 1.304,0 5.763,-3.742 5.318,-4.463 11.49707,-11.04567 -21.39094,-33.1959 -28.94,-41.19 -4.454,-4.668 -4.647,-4.659 -9.677,0.471 M 141.6,195.995 c -1.43,0.15 -3.538,0.242 -4.684,0.204 -1.146,-0.038 -1.991,0.079 -1.879,0.261 0.112,0.182 -0.613,0.218 -1.611,0.082 -1.119,-0.154 -2.023,-0.077 -2.357,0.201 -0.299,0.247 -0.661,0.332 -0.806,0.187 -0.377,-0.377 -0.419,0.233 -0.442,6.367 -0.012,3.023 0.125,5.498 0.303,5.5 0.178,0.002 0.225,0.163 0.104,0.358 -0.421,0.682 1.647,0.834 11.383,0.84 11.045,0.006 11.555,-0.105 11.378,-2.478 -0.054,-0.724 -0.119,-3.419 -0.144,-5.988 -0.062,-6.382 -0.609,-6.651 -11.245,-5.534 m 20.098,0.406 c -0.683,0.553 -0.75,1.028 -0.593,4.211 0.097,1.973 0.218,4.639 0.269,5.923 0.059,1.486 0.299,2.471 0.659,2.709 0.674,0.444 32.366,0.303 32.367,-0.144 0,-0.165 0.341,-0.3 0.757,-0.3 0.417,0 0.836,-0.225 0.933,-0.5 0.387,-1.105 0.349,-11.08 -0.046,-11.817 -0.577,-1.078 -33.019,-1.156 -34.346,-0.082 M 44.39,237.982 c 0.624,1.164 11.787,1.183 12.409,0.021 0.877,-1.639 0.504,-12.965 -0.428,-14.149 -0.805,-1.024 -11.172,-1.72 -12.081,-0.811 m 199.885,-5.054 c 0.062,0.116 -0.492,0.801 -1.231,1.522 -2.49524,2.7341 -23.21459,20.47869 -21.604,22.822 0.331,0.367 0.574,0.757 0.539,0.867 -0.149,0.47 2.274,2.755 2.677,2.525 0.244,-0.139 0.305,-0.101 0.136,0.086 -0.374,0.411 2.449,3.389 3.213,3.389 0.298,0 0.437,0.171 0.307,0.38 -0.337,0.545 1.124,1.225 2.192,1.019 9.64456,0.52057 34.91723,-31.03723 15.041,-32.785 -0.76,-0.02 -1.331,0.059 -1.27,0.175 M 44.177,247.716 c -0.102,0.266 -0.138,9.664 -0.081,20.884 L 44.2,289 h 6.4 6.4 v -20.8 -20.8 l -6.319,-0.084 c -4.643,-0.063 -6.367,0.044 -6.504,0.4 m 161.899,8.059 c -7.552,7.631 -7.691,7.802 -7.559,9.3 1.07883,3.29488 4.39659,4.19325 6.35,7.377 -0.074,0.301 -0.01,0.424 0.142,0.272 0.152,-0.152 0.651,0.073 1.109,0.5 1.238,1.154 0.968,1.357 9.338,-7.024 4.284,-4.29 7.676,-7.8 7.538,-7.8 -0.138,0 0.032,-0.283 0.377,-0.629 0.811,-0.811 0.794,-1.235 -0.071,-1.739 -0.385,-0.224 -0.524,-0.413 -0.309,-0.42 0.214,-0.007 -1.032,-1.443 -2.771,-3.192 -1.739,-1.749 -3.337,-3.071 -3.552,-2.938 -0.216,0.133 -0.269,0.043 -0.119,-0.2 0.311,-0.503 -0.928,-1.282 -2.038,-1.282 -0.432,0 -3.947,3.239 -8.435,7.775 M 191.6,271.2 c 0.48,0.311 0.412,0.389 -0.346,0.394 -13.1411,8.79088 -23.56742,25.38404 -36.454,35.36 0,-0.167 -0.54,0.214 -1.2,0.846 -2.204,2.111 -1.808,3.299 2.547,7.639 2.06,2.054 3.86,3.62 4,3.481 0.139,-0.139 0.253,-0.073 0.253,0.146 0,1.104 2.204,0.087 3.514,-1.62 4.74784,-5.3617 11.87345,-10.03887 16.886,-17.007 0,-0.241 0.225,-0.439 0.5,-0.439 0.995,-10e-4 19.161,-18.711 19.287,-19.866 0.118,-1.073 -7.012,-8.9 -7.866,-8.634 -0.176,0.055 -0.321,-0.08 -0.321,-0.3 0,-0.22 -0.315,-0.397 -0.7,-0.394 -0.598,0.005 -0.613,0.063 -0.1,0.394 m 150.865,18.444 c -0.36757,6.55061 -0.15743,-0.26539 -0.298,3.735 -0.218,6.202 -0.178,6.824 0.474,7.3 0.996,0.729 10.881,0.707 11.845,-0.026 0.831,-0.631 1.075,-10.782 0.257,-11.288 -1.028,-0.636 -11.86,-0.39 -12.278,0.279 m -0.225,20.291 c -0.12,0.195 -0.178,9.604 -0.129,20.91 l 0.089,20.555 5.861,0.11 c 8.043,0.152 7.167,2.82 7.043,-21.442 L 355,309.8 l -6.27,-0.11 c -3.449,-0.061 -6.369,0.05 -6.49,0.245 M 137.2,324.902 c 0,0.237 -0.108,0.323 -0.24,0.192 -0.286,-0.286 -2.79,2.173 -2.654,2.606 0.052,0.165 -0.076,0.3 -0.285,0.3 -11.51937,15.10844 -0.25829,17.32281 12.556,6.394 -0.207,-0.003 -0.107,-0.183 0.223,-0.4 0.376,-0.247 0.451,-0.506 0.2,-0.694 -0.22,-0.165 -0.459,-0.566 -0.531,-0.892 -0.128,-0.583 -6.785,-7.388 -7.369,-7.533 -0.165,-0.041 -0.345,-0.089 -0.4,-0.106 -0.873,-0.267 -1.5,-0.211 -1.5,0.133"
       inkscape:connector-curvature="0"
       style="fill:#d36484;fill-rule:evenodd;stroke:none"
       sodipodi:nodetypes="cccccccccsccccccccscccccccccscccccsccccccccccccccccccsccccccscccccccscccccccscccscccsccccccccccccccccccssccccssccscsccccccccccscccccccccccccsccccccccccccccccsccscccsccscccccccscccccsccccccccccccccccccccccccccc" />
    <path
       id="path2"
       d="M 20,380 H 380 V 20 H 20 m 52.8,25.476 v 29.488 c 0,19.319 0.141,29.752 0.409,30.252 0.397,0.742 1.296,0.765 30.261,0.779 l 29.852,0.015 1.143,1.195 85.535,85.498 v 15.752 c -3.91546,5.01149 -8.43567,8.39847 -12.364,12.345 h -13.794 c -8.765,0 -13.885,-0.146 -14.042,-0.4 -0.161,-0.261 -10.852,-0.405 -30.724,-0.413 -32.721,-0.015 -32.276,0.012 -32.276,-1.951 0,-0.24 -0.162,-0.436 -0.361,-0.436 -14.75853,-15.02995 -9.22513,-25.11459 3.222,-37.6 h 14.137 c 19.612,0 19.309,0.424 7.902,-11.053 l -7.5,-7.546 c -5.02367,-0.0833 -10.04733,-0.16666 -15.071,-0.25 l -15.954,16 -15.955,16 0.09,7.553 0.09,7.554 59.4,59.429 v 13.882 c -13.23273,15.61297 -30.33413,29.93618 -41.714,42.831 0.117,0 -0.006,0.263 -0.272,0.584 -0.297,0.356 -0.381,1.056 -0.218,1.8 l 0.268,1.216 h 6.987 6.988 c 40.88901,-43.77581 82.84444,-82.76384 120.722,-120.746 V 192.771 C 170.55374,126.25036 117.23321,70.468338 106,59.235 V 52.4 45.565 l 6.783,-6.782 6.782,-6.783 h 235.923 l 4.247,4.2 c 2.335,2.31 4.43,4.2 4.655,4.2 0.226,0 0.41,0.167 0.41,0.372 0,0.506 2.599,3.228 3.083,3.228 0.969,0 1.317,2.278 1.317,8.61 v 6.572 L 281.673,146.8 h -7.006 -7.007 l -6.19,-6.2 c -3.405,-3.41 -6.399,-6.2 -6.654,-6.2 -0.255,0 -0.352,-0.18 -0.216,-0.4 0.136,-0.22 0.057,-0.4 -0.176,-0.4 -0.283,0 -0.424,-2.452 -0.424,-7.38 v -7.38 L 264.764,108.051 297.6,74.793 178.016,73.571 c -0.68,1.27 -0.466,1.514 14.834,16.89 8.113,8.153 14.752,15.029 14.754,15.281 0.005,0.584 13.343,13.858 13.925,13.858 0.57,0 60.071,59.439 60.071,60.009 0,0.401 4.509,5.192 10.092,10.721 l 2.291,2.27 0.009,7.877 L 294,208.354 181.923,320.8 c 0,0 -3.894,3.976 -3.273,6.293 l 0.24,0.893 44.084,0.011 44.084,0.01 28.145,-28.488 c 1.31,-0.746 1.739,-3.371 0.692,-4.24 -0.328,-0.273 -5.397,-0.434 -14.5,-0.462 L 267.4,294.774 260.713,288.087 254.025,281.4 255.69,264.8 328,192.957 V 155.723 118.49 l 1.17,-0.932 c 0.644,-0.512 1.08,-1.077 0.97,-1.254 -0.11,-0.178 -0.051,-0.275 0.13,-0.216 16.47723,-15.37466 19.64168,-15.79811 37.73,2.43 l 0.7,89.452 c -15.75958,15.60221 -27.86498,27.8084 -42.404,42.037 l 0.221,1.654 c 0.319,2.376 -10e-4,2.326 14.988,2.333 17.73128,-0.46058 17.6698,3.17577 27.164,12.81 l 0.266,21.664 c 0.146,11.915 0.265,31.796 0.265,44.181 v 22.517 l -6.989,7.017 -6.988,7.017 h -6.812 c -4.274,0 -6.811,-0.149 -6.811,-0.4 0,-0.22 -0.27,-0.4 -0.6,-0.4 -0.33,0 -0.604,-0.135 -0.609,-0.3 -4.32728,-4.55894 -7.83475,-8.18464 -12.377,-12.7 l -0.007,-14.076 c -0.008,-15.455 -2.575,-14.761 -2.575,-14.761 L 282.032,368 45.076,368.619 C 44.757,368.3 44.384,368.15 44.248,368.286 44.111,368.422 44,368.338 44,368.099 37.894414,359.24257 24.103621,349.81791 32.776,340.118 c 0.427,-0.458 0.667,-0.942 0.533,-1.075 -0.133,-0.134 -0.018,-0.243 0.256,-0.243 0.623,0 28.041,-27.46 27.729,-27.772 -0.125,-0.125 -0.021,-0.228 0.232,-0.228 0.252,0 3.071,-2.597 6.265,-5.77 3.193,-3.174 6.113,-5.83 6.489,-5.902 0.377,-0.073 0.783,-0.547 0.902,-1.054 0.12,-0.507 0.312,-0.866 0.428,-0.798 0.335,0.198 1.281,-0.672 8.84,-8.13 l 7.15,-7.055 v -7.522 -7.522 l -8.166,-8.124 c -6.793,-6.758 -8.356,-8.122 -9.3,-8.117 -1.258,0.007 -2.213,0.474 -2.108,1.031 0.038,0.199 0.047,7.15 0.021,15.446 L 72,282.366 66.197,288.183 60.393,294 H 52.397 44.4 l -6.2,-6.219 -6.2,-6.219 v -43.906 c 0,-42.898 0.018,-43.924 0.776,-44.738 0.427,-0.458 0.667,-0.942 0.533,-1.075 -0.133,-0.134 -0.025,-0.243 0.24,-0.243 10.952399,-13.86496 41.57,-43.786 41.57,-43.786 L 75,146.2 59.6,146 44.2,145.8 38.6,140.064 C 35.52,136.91 32.775,134.087 32.5,133.793 32.106,133.371 32,123.933 32,89.397 V 45.537 M 161.358,51.8 c 0,3.08 0.063,4.287 0.139,2.682 0.076,-1.604 0.076,-4.124 -0.001,-5.6 -0.077,-1.475 -0.139,-0.162 -0.138,2.918 M 52.48,119.68 c -0.666,0.666 -0.601,1.52 0.116,1.52 0.39,0 0.567,-0.344 0.512,-1 -0.045,-0.55 -0.097,-1 -0.115,-1 -0.018,0 -0.249,0.216 -0.513,0.48 m 72.72,17.72 c 0.274,0.33 0.678,0.6 0.898,0.6 0.223,0 0.18,-0.265 -0.098,-0.6 -0.274,-0.33 -0.678,-0.6 -0.898,-0.6 -0.223,0 -0.18,0.265 0.098,0.6 M 150,163 c 0.517,0.55 1.131,1 1.366,1 0.234,0 -0.059,-0.45 -0.653,-1 -0.593,-0.55 -1.207,-1 -1.365,-1 -0.158,0 0.135,0.45 0.652,1 m 13.7,32.876 c 0.385,0.1 1.015,0.1 1.4,0 0.385,-0.101 0.07,-0.183 -0.7,-0.183 -0.77,0 -1.085,0.082 -0.7,0.183 m 13.615,0.02 c 1.273,0.08 3.253,0.079 4.4,-0.002 1.147,-0.08 0.105,-0.145 -2.315,-0.144 -2.42,0.001 -3.358,0.066 -2.085,0.146 m -40.61,0.387 c 0.497,0.096 1.217,0.092 1.6,-0.008 0.382,-0.1 -0.025,-0.179 -0.905,-0.174 -0.88,0.004 -1.193,0.086 -0.695,0.182 m 24.188,5.317 c 0,0.77 0.082,1.085 0.183,0.7 0.1,-0.385 0.1,-1.015 0,-1.4 -0.101,-0.385 -0.183,-0.07 -0.183,0.7 m -31.151,3.4 c -10e-4,1.98 0.066,2.84 0.15,1.912 0.084,-0.928 0.085,-2.548 0.003,-3.6 -0.083,-1.052 -0.152,-0.292 -0.153,1.688 m 31.559,0.8 c 0.004,0.88 0.086,1.193 0.182,0.695 0.096,-0.497 0.092,-1.217 -0.008,-1.6 -0.1,-0.382 -0.179,0.025 -0.174,0.905 m 22.399,3.687 c 0.605,0.091 1.595,0.091 2.2,0 0.605,-0.092 0.11,-0.167 -1.1,-0.167 -1.21,0 -1.705,0.075 -1.1,0.167 m 4.805,0 c 0.609,0.092 1.509,0.09 2,-0.005 0.492,-0.095 -0.005,-0.171 -1.105,-0.168 -1.1,0.003 -1.503,0.081 -0.895,0.173 m -24.005,0.404 c 0.825,0.087 2.175,0.087 3,0 0.825,-0.086 0.15,-0.157 -1.5,-0.157 -1.65,0 -2.325,0.071 -1.5,0.157 m 68.3,19.181 c -0.887,0.938 -0.903,1.006 -0.147,0.604 0.469,-0.25 0.958,-0.729 1.087,-1.065 0.314,-0.817 0.228,-0.775 -0.94,0.461 m 14.8,4.743 c -2.347,2.319 -1.916,2.308 0.578,-0.015 1.063,-0.99 1.773,-1.792 1.578,-1.782 -0.196,0.01 -1.166,0.819 -2.156,1.797 M 204,271.413 c 0,0.279 2.361,2.587 2.646,2.587 0.121,0 -0.375,-0.63 -1.102,-1.4 -1.332,-1.412 -1.544,-1.575 -1.544,-1.187 m -45.522,31.592 c -0.705,0.702 -0.799,0.991 -0.4,1.222 0.287,0.166 0.398,0.164 0.248,-0.004 -0.151,-0.168 0.209,-0.731 0.8,-1.252 0.59,-0.52 0.894,-0.932 0.674,-0.916 -0.22,0.016 -0.815,0.444 -1.322,0.95 m 12.499,7.162 c -0.427,0.312 -0.67,0.673 -0.541,0.803 0.13,0.129 0.562,-0.126 0.962,-0.568 0.85,-0.939 0.675,-1.036 -0.421,-0.235 m -39.174,34.858 c 1.117,0.384 1.659,0.392 2.352,0.032 0.784,-0.407 0.598,-0.471 -1.452,-0.499 l -2.352,-0.032 1.452,0.499"
       inkscape:connector-curvature="0"
       style="fill:#f3f0ed;fill-opacity:1;fill-rule:evenodd;stroke:none"
       sodipodi:nodetypes="cccccscccccccsccsccsccccccccccccccccccccccccsssscccccssssccccccsscccccccccccccccccccccccccccccscccsssccccccccccssscccccccccccccccccccscccccccccsccccccscsccscsccscscccscccsccccccccccsccccccccscccscccsccccccccccsccccccscccccccccc" />
  </g>
</svg>
