<?xml version="1.0" encoding="UTF-8" standalone="no"?>
<svg
   xmlns:dc="http://purl.org/dc/elements/1.1/"
   xmlns:cc="http://creativecommons.org/ns#"
   xmlns:rdf="http://www.w3.org/1999/02/22-rdf-syntax-ns#"
   xmlns:svg="http://www.w3.org/2000/svg"
   xmlns="http://www.w3.org/2000/svg"
   xmlns:sodipodi="http://sodipodi.sourceforge.net/DTD/sodipodi-0.dtd"
   xmlns:inkscape="http://www.inkscape.org/namespaces/inkscape"
   aria-hidden="true"
   focusable="false"
   data-prefix="far"
   data-icon="play-circle"
   class="svg-inline--fa fa-play-circle fa-w-16"
   role="img"
   viewBox="0 0 512 512"
   version="1.1"
   id="svg4"
   sodipodi:docname="play-circle-regular.svg"
   inkscape:version="0.92.4 (5da689c313, 2019-01-14)">
  <metadata
     id="metadata10">
    <rdf:RDF>
      <cc:Work
         rdf:about="">
        <dc:format>image/svg+xml</dc:format>
        <dc:type
           rdf:resource="http://purl.org/dc/dcmitype/StillImage" />
      </cc:Work>
    </rdf:RDF>
  </metadata>
  <defs
     id="defs8" />
  <sodipodi:namedview
     pagecolor="#ffffff"
     bordercolor="#666666"
     borderopacity="1"
     objecttolerance="10"
     gridtolerance="10"
     guidetolerance="10"
     inkscape:pageopacity="0"
     inkscape:pageshadow="2"
     inkscape:window-width="1920"
     inkscape:window-height="1017"
     id="namedview6"
     showgrid="false"
     inkscape:zoom="0.921875"
     inkscape:cx="282.11553"
     inkscape:cy="95.138308"
     inkscape:window-x="-8"
     inkscape:window-y="-8"
     inkscape:window-maximized="1"
     inkscape:current-layer="svg4" />
  <path
     d="m 375.7,240 -176,-107 c -15.8,-8.8 -35.7,2.5 -35.7,21 v 208 c 0,18.4 19.8,29.8 35.7,21 l 176,-101 c 16.4,-9.1 16.4,-32.8 0,-42 z M 508,258 C 508,121 397,10 260,10 123,10 12,121 12,258 12,395 123,506 260,506 397,506 508,395 508,258 Z M 60,258 C 60,147.5 149.5,58 260,58 370.5,58 460,147.5 460,258 460,368.5 370.5,458 260,458 149.5,458 60,368.5 60,258 Z"
     id="path2"
     style="fill:#800000"
     inkscape:connector-curvature="0" />
  <path
     id="path4520"
     d="m 369.7,236 -176,-107 c -15.8,-8.8 -35.7,2.5 -35.7,21 v 208 c 0,18.4 19.8,29.8 35.7,21 l 176,-101 c 16.4,-9.1 16.4,-32.8 0,-42 z M 502,254 C 502,117 391,6 254,6 117,6 6,117 6,254 6,391 117,502 254,502 391,502 502,391 502,254 Z M 54,254 C 54,143.5 143.5,54 254,54 364.5,54 454,143.5 454,254 454,364.5 364.5,454 254,454 143.5,454 54,364.5 54,254 Z"
     inkscape:connector-curvature="0"
     style="fill:#ff0000" />
</svg>
