<?xml version="1.0" encoding="UTF-8" standalone="no"?>
<svg
   xmlns:dc="http://purl.org/dc/elements/1.1/"
   xmlns:cc="http://creativecommons.org/ns#"
   xmlns:rdf="http://www.w3.org/1999/02/22-rdf-syntax-ns#"
   xmlns:svg="http://www.w3.org/2000/svg"
   xmlns="http://www.w3.org/2000/svg"
   xmlns:sodipodi="http://sodipodi.sourceforge.net/DTD/sodipodi-0.dtd"
   xmlns:inkscape="http://www.inkscape.org/namespaces/inkscape"
   id="svg"
   version="1.1"
   width="400"
   height="400"
   viewBox="0, 0, 400,400"
   sodipodi:docname="rota.svg"
   inkscape:version="0.92.4 (5da689c313, 2019-01-14)">
  <metadata
     id="metadata12">
    <rdf:RDF>
      <cc:Work
         rdf:about="">
        <dc:format>image/svg+xml</dc:format>
        <dc:type
           rdf:resource="http://purl.org/dc/dcmitype/StillImage" />
      </cc:Work>
    </rdf:RDF>
  </metadata>
  <defs
     id="defs10" />
  <sodipodi:namedview
     pagecolor="#ffffff"
     bordercolor="#666666"
     borderopacity="1"
     objecttolerance="10"
     gridtolerance="10"
     guidetolerance="10"
     inkscape:pageopacity="0"
     inkscape:pageshadow="2"
     inkscape:window-width="1920"
     inkscape:window-height="1017"
     id="namedview8"
     showgrid="false"
     inkscape:zoom="1.668772"
     inkscape:cx="114.37737"
     inkscape:cy="245.40895"
     inkscape:window-x="-8"
     inkscape:window-y="-8"
     inkscape:window-maximized="1"
     inkscape:current-layer="svg" />
  <g
     aria-label="A"
     style="font-style:normal;font-weight:normal;font-size:40px;line-height:1.25;font-family:sans-serif;letter-spacing:0px;word-spacing:0px;fill:#f36484;fill-opacity:1;stroke:none"
     id="text848"
     transform="matrix(0.85632818,0,0,0.84985452,1.8229123,57.962118)" />
  <g
     id="g868"
     transform="matrix(0.81980537,0,0,0.81973845,34.321634,37.924479)">
    <path
       id="path0"
       d="m 388.8,72 c 0,0.226 -1.133,0.4 -2.6,0.4 -1.467,0 -2.6,0.174 -2.6,0.4 0,0.22 -0.979,0.4 -2.176,0.4 -1.197,0 -2.288,0.18 -2.424,0.4 -0.136,0.22 -0.76,0.4 -1.386,0.4 h -1.138 l 0.215,2.5 c 0.119,1.375 0.372,2.803 0.563,3.174 0.19,0.37 0.346,1.369 0.346,2.22 0,0.85 0.169,1.717 0.375,1.926 0.206,0.209 0.431,1.19 0.5,2.18 0.13,1.878 1.376,2.709 2.451,1.634 0.239,-0.239 1.388,-0.434 2.554,-0.434 1.166,0 2.12,-0.18 2.12,-0.4 0,-0.222 1.059,-0.4 2.376,-0.4 1.307,0 2.488,-0.18 2.624,-0.4 0.136,-0.22 1.239,-0.4 2.452,-0.4 1.378,0 2.42,-0.214 2.777,-0.571 0.67,-0.671 0.815,-6.431 0.171,-6.829 -0.22,-0.136 -0.406,-1.362 -0.413,-2.724 -0.018,-3.479 -0.42,-3.876 -3.931,-3.876 -1.637,0 -2.856,0.171 -2.856,0.4 m -25.2,4.4 c -0.33,0.213 -1.149,0.391 -1.82,0.394 -0.671,0.003 -1.391,0.177 -1.601,0.387 -0.209,0.209 -1.055,0.426 -1.88,0.482 -0.824,0.055 -1.499,0.244 -1.499,0.419 0,0.175 -0.72,0.318 -1.6,0.318 -0.88,0 -1.6,0.18 -1.6,0.4 0,0.22 -0.36,0.4 -0.8,0.4 -0.693,0 -0.8,0.267 -0.8,2 0,1.1 0.18,2 0.4,2 0.22,0 0.4,0.72 0.4,1.6 0,0.88 0.18,1.6 0.4,1.6 0.22,0 0.4,0.63 0.4,1.4 0,0.77 0.18,1.4 0.4,1.4 0.22,0 0.4,0.463 0.4,1.029 0,1.789 3.675,3.175 4.963,1.871 0.163,-0.165 1.588,-0.512 3.166,-0.77 5.209,-0.853 5.656,-1.03 5.802,-2.293 0.072,-0.624 -0.063,-1.329 -0.3,-1.566 -0.237,-0.237 -0.431,-1.115 -0.431,-1.951 0,-0.836 -0.18,-1.52 -0.4,-1.52 -0.22,0 -0.4,-0.799 -0.4,-1.776 0,-0.977 -0.18,-1.888 -0.4,-2.024 -0.22,-0.136 -0.4,-0.839 -0.4,-1.562 0,-1.832 -1.239,-2.988 -2.4,-2.238 m -25.8,7.2 c -0.136,0.22 -0.687,0.4 -1.224,0.4 -0.537,0 -0.976,0.18 -0.976,0.4 0,0.22 -0.54,0.4 -1.2,0.4 -0.66,0 -1.2,0.18 -1.2,0.4 0,0.22 -0.439,0.4 -0.976,0.4 -0.537,0 -1.088,0.18 -1.224,0.4 -0.136,0.22 -0.676,0.4 -1.2,0.4 -0.524,0 -1.064,0.18 -1.2,0.4 -0.136,0.22 -0.597,0.4 -1.024,0.4 -0.427,0 -0.776,0.18 -0.776,0.4 0,0.22 -0.45,0.4 -1,0.4 -0.55,0 -1,0.18 -1,0.4 0,0.22 -0.36,0.4 -0.8,0.4 -0.44,0 -0.8,0.18 -0.8,0.4 0,0.22 -0.54,0.4 -1.2,0.4 -0.66,0 -1.2,0.18 -1.2,0.4 0,0.22 -0.36,0.4 -0.8,0.4 -0.44,0 -0.8,0.18 -0.8,0.4 0,0.22 -0.349,0.4 -0.776,0.4 -0.427,0 -0.888,0.18 -1.024,0.4 -0.136,0.22 -0.62,0.4 -1.075,0.4 -0.882,0 -0.797,3.222 0.094,3.533 0.209,0.074 0.381,0.479 0.381,0.9 0,0.422 0.18,0.767 0.4,0.767 0.22,0 0.4,0.36 0.4,0.8 0,0.44 0.18,0.8 0.4,0.8 0.22,0 0.4,0.36 0.4,0.8 0,0.44 0.18,0.8 0.4,0.8 0.22,0 0.4,0.36 0.4,0.8 0,0.44 0.18,0.8 0.4,0.8 0.22,0 0.4,0.234 0.4,0.52 0,1.902 1.331,3.04 2.705,2.313 1.702,-0.9 4.539,-2.033 5.091,-2.033 0.332,0 0.604,-0.18 0.604,-0.4 0,-0.22 0.36,-0.4 0.8,-0.4 0.44,0 0.8,-0.18 0.8,-0.4 0,-0.22 0.54,-0.4 1.2,-0.4 0.66,0 1.2,-0.18 1.2,-0.4 0,-0.22 0.36,-0.4 0.8,-0.4 0.44,0 0.8,-0.18 0.8,-0.4 0,-0.22 0.54,-0.4 1.2,-0.4 0.66,0 1.2,-0.18 1.2,-0.4 0,-0.22 0.439,-0.4 0.976,-0.4 0.537,0 1.088,-0.18 1.224,-0.4 0.136,-0.22 0.687,-0.4 1.224,-0.4 0.537,0 0.976,-0.18 0.976,-0.4 0,-0.22 0.54,-0.4 1.2,-0.4 0.66,0 1.2,-0.18 1.2,-0.4 0,-0.22 0.36,-0.4 0.8,-0.4 0.861,0 1.174,-1.722 0.4,-2.2 C 344.18,94.064 344,93.513 344,92.976 344,92.439 343.82,92 343.6,92 c -0.22,0 -0.4,-0.54 -0.4,-1.2 0,-0.66 -0.18,-1.2 -0.4,-1.2 -0.22,0 -0.4,-0.54 -0.4,-1.2 0,-0.66 -0.157,-1.2 -0.348,-1.2 -0.192,0 -0.468,-0.9 -0.614,-2 l -0.266,-2 h -1.562 c -0.86,0 -1.674,0.18 -1.81,0.4 m -45.4,22 c 0,0.22 -0.23,0.4 -0.512,0.4 -0.281,0 -0.771,0.36 -1.088,0.8 -0.317,0.44 -0.814,0.8 -1.105,0.8 -0.291,0 -0.746,0.183 -1.012,0.407 -1.777,1.499 -2.437,1.993 -2.661,1.993 -0.14,0 -0.878,0.586 -1.639,1.303 -0.76,0.717 -1.98,1.727 -2.709,2.246 -1.294,0.92 -2.907,2.495 -8.714,8.509 -1.562,1.618 -3.56,3.572 -4.44,4.342 -0.879,0.77 -1.835,1.85 -2.122,2.4 -0.288,0.55 -0.855,1.291 -1.261,1.647 -1.114,0.978 -0.935,2.463 0.39,3.246 0.62,0.366 1.925,1.395 2.9,2.287 0.975,0.891 1.885,1.62 2.023,1.62 0.137,0 0.937,0.63 1.778,1.4 2.32,2.125 3.315,1.941 5.383,-1 1.242,-1.767 10.88,-11.401 13,-12.995 0.874,-0.657 2.111,-1.692 2.748,-2.3 0.638,-0.608 1.331,-1.105 1.54,-1.105 0.209,0 0.884,-0.54 1.501,-1.2 0.617,-0.66 1.318,-1.2 1.56,-1.2 0.241,0 1.178,-0.697 2.082,-1.549 l 1.644,-1.548 -0.663,-1.398 c -0.364,-0.768 -0.969,-1.736 -1.343,-2.151 -0.374,-0.415 -0.935,-1.249 -1.248,-1.854 -0.312,-0.605 -0.717,-1.1 -0.9,-1.1 -0.182,0 -0.332,-0.23 -0.332,-0.512 0,-0.281 -0.36,-0.771 -0.8,-1.088 -0.44,-0.317 -0.8,-0.82 -0.8,-1.117 0,-0.297 -0.257,-0.797 -0.571,-1.112 -0.65,-0.649 -2.629,-0.778 -2.629,-0.171 m -36.4,37 c 0,0.33 -0.18,0.6 -0.4,0.6 -0.22,0 -0.4,0.236 -0.4,0.525 0,0.288 -0.36,0.911 -0.8,1.383 -0.44,0.472 -0.8,1.096 -0.8,1.387 0,0.291 -0.36,0.788 -0.8,1.105 -0.44,0.317 -0.8,0.897 -0.8,1.288 0,0.392 -0.18,0.712 -0.4,0.712 -0.22,0 -0.4,0.32 -0.4,0.712 0,0.391 -0.36,0.971 -0.8,1.288 -0.47,0.339 -0.8,1.035 -0.8,1.688 0,0.845 0.192,1.112 0.8,1.112 0.44,0 0.8,0.145 0.8,0.321 0,0.177 0.897,0.762 1.994,1.3 1.096,0.539 1.996,1.114 2,1.279 0.003,0.165 0.289,0.3 0.635,0.3 0.345,0 0.898,0.27 1.228,0.6 0.33,0.33 0.947,0.6 1.372,0.6 0.424,0 0.771,0.18 0.771,0.4 0,0.22 0.27,0.4 0.6,0.4 0.33,0 0.6,0.18 0.6,0.4 0,1.323 1.825,0.15 2.8,-1.8 0.33,-0.66 0.915,-1.549 1.3,-1.975 0.385,-0.427 0.7,-1.012 0.7,-1.3 0,-0.289 0.15,-0.525 0.332,-0.525 0.183,0 0.588,-0.495 0.9,-1.1 0.312,-0.605 0.657,-1.19 0.767,-1.3 0.974,-0.97 1.604,-3.6 0.863,-3.6 -0.186,0 -0.861,-0.45 -1.5,-1 -0.639,-0.549 -1.387,-0.999 -1.662,-1 -0.275,0 -0.5,-0.15 -0.5,-0.332 0,-0.183 -0.495,-0.588 -1.1,-0.9 -0.605,-0.313 -1.449,-0.883 -1.875,-1.268 -0.427,-0.385 -0.935,-0.7 -1.129,-0.7 -0.194,0 -0.623,-0.27 -0.953,-0.6 -0.33,-0.33 -1.217,-0.6 -1.972,-0.6 -0.952,0 -1.371,0.183 -1.371,0.6 m -13.118,22.9 c -0.449,1.045 -1.055,2.665 -1.347,3.6 -0.291,0.935 -0.666,1.7 -0.832,1.7 -0.167,0 -0.303,0.36 -0.303,0.8 0,0.44 -0.18,0.8 -0.4,0.8 -0.22,0 -0.4,0.36 -0.4,0.8 0,0.44 -0.18,0.8 -0.4,0.8 -0.22,0 -0.4,0.36 -0.4,0.8 0,0.44 -0.18,0.8 -0.4,0.8 -0.22,0 -0.4,0.349 -0.4,0.776 0,0.427 -0.18,0.888 -0.4,1.024 -0.22,0.136 -0.4,0.597 -0.4,1.024 0,0.427 -0.18,0.776 -0.4,0.776 -0.22,0 -0.4,0.36 -0.4,0.8 0,0.44 -0.18,0.8 -0.4,0.8 -0.22,0 -0.4,0.349 -0.4,0.776 0,0.427 -0.18,0.888 -0.4,1.024 -0.22,0.136 -0.4,0.687 -0.4,1.224 0,0.537 -0.18,0.976 -0.4,0.976 -0.22,0 -0.4,0.36 -0.4,0.8 0,0.44 -0.18,0.8 -0.4,0.8 -0.22,0 -0.4,0.54 -0.4,1.2 0,0.933 0.178,1.2 0.8,1.2 0.44,0 0.8,0.18 0.8,0.4 0,0.22 0.236,0.4 0.525,0.4 0.289,0 1.237,0.344 2.107,0.764 0.87,0.421 2.254,0.891 3.075,1.045 0.821,0.154 1.493,0.44 1.493,0.636 0,0.195 0.349,0.355 0.776,0.355 0.427,0 0.888,0.18 1.024,0.4 0.476,0.771 2.6,0.472 2.6,-0.367 0,-0.421 0.135,-0.826 0.3,-0.9 0.278,-0.123 1.784,-3.075 2.517,-4.933 1.07,-2.711 1.411,-3.4 1.681,-3.4 0.166,0 0.302,-0.439 0.302,-0.976 0,-0.537 0.18,-1.088 0.4,-1.224 0.22,-0.136 0.4,-0.597 0.4,-1.024 0,-0.427 0.18,-0.776 0.4,-0.776 0.22,0 0.4,-0.36 0.4,-0.8 0,-0.44 0.18,-0.8 0.4,-0.8 0.22,0 0.4,-0.36 0.4,-0.8 0,-0.44 0.18,-0.8 0.4,-0.8 0.22,0 0.4,-0.36 0.4,-0.8 0,-0.44 0.18,-0.8 0.4,-0.8 0.22,0 0.4,-0.345 0.4,-0.767 0,-0.421 0.192,-0.83 0.426,-0.908 0.87,-0.29 0.968,-3.525 0.107,-3.525 -0.425,0 -0.944,-0.169 -1.153,-0.377 -0.561,-0.555 -9.866,-5.223 -10.413,-5.223 -0.258,0 -0.836,0.855 -1.285,1.9 M 223.7,210.998 c -0.275,0.313 -0.5,0.835 -0.5,1.162 0,0.326 -0.18,0.704 -0.4,0.84 -0.22,0.136 -0.4,0.687 -0.4,1.224 0,0.537 -0.18,0.976 -0.4,0.976 -0.22,0 -0.4,0.36 -0.4,0.8 0,0.44 -0.18,0.8 -0.4,0.8 -0.22,0 -0.4,0.439 -0.4,0.976 0,0.537 -0.18,1.088 -0.4,1.224 -0.22,0.136 -0.4,0.597 -0.4,1.024 0,0.427 -0.18,0.776 -0.4,0.776 -0.22,0 -0.4,0.36 -0.4,0.8 0,0.44 -0.18,0.8 -0.4,0.8 -0.22,0 -0.4,0.45 -0.4,1 0,0.55 -0.18,1 -0.4,1 -0.22,0 -0.4,0.234 -0.4,0.52 0,0.736 -0.941,2.673 -1.3,2.677 -0.165,0.002 -0.3,0.256 -0.3,0.565 0,0.485 -0.552,1.758 -2.05,4.733 -0.193,0.382 -0.35,0.967 -0.35,1.3 0,0.333 -0.18,0.605 -0.4,0.605 -0.22,0 -0.4,0.36 -0.4,0.8 0,0.44 -0.18,0.8 -0.4,0.8 -0.22,0 -0.4,0.36 -0.4,0.8 0,0.44 -0.18,0.8 -0.4,0.8 -0.22,0 -0.4,0.272 -0.4,0.605 0,0.564 -0.734,2.139 -1.208,2.595 -1.102,1.059 -1.552,4.4 -0.592,4.4 0.33,0 0.6,0.18 0.6,0.4 0,0.22 0.371,0.4 0.824,0.4 0.453,0 0.712,0.18 0.576,0.4 -0.136,0.22 -0.002,0.4 0.297,0.4 0.754,0 2.696,0.935 2.7,1.3 0.002,0.165 0.363,0.3 0.803,0.3 0.44,0 0.8,0.18 0.8,0.4 0,0.22 0.36,0.4 0.8,0.4 0.44,0 0.8,0.18 0.8,0.4 0,0.22 0.36,0.4 0.8,0.4 0.44,0 0.8,0.18 0.8,0.4 0,0.22 0.54,0.4 1.2,0.4 0.933,0 1.2,-0.178 1.2,-0.8 0,-0.44 0.18,-0.8 0.4,-0.8 0.22,0 0.4,-0.253 0.4,-0.562 0,-0.589 1.608,-3.891 2.063,-4.239 0.145,-0.11 0.39,-0.875 0.545,-1.7 0.154,-0.824 0.407,-1.499 0.562,-1.499 0.154,0 0.528,-0.63 0.83,-1.4 0.302,-0.77 0.696,-1.4 0.875,-1.4 0.179,0 0.325,-0.45 0.325,-1 0,-0.55 0.18,-1 0.4,-1 0.22,0 0.4,-0.349 0.4,-0.776 0,-0.427 0.18,-0.888 0.4,-1.024 0.22,-0.136 0.4,-0.597 0.4,-1.024 0,-0.427 0.18,-0.776 0.4,-0.776 0.22,0 0.4,-0.36 0.4,-0.8 0,-0.44 0.18,-0.8 0.4,-0.8 0.22,0 0.4,-0.36 0.4,-0.8 0,-0.44 0.18,-0.8 0.4,-0.8 0.22,0 0.4,-0.54 0.4,-1.2 0,-0.66 0.18,-1.2 0.4,-1.2 0.22,0 0.4,-0.36 0.4,-0.8 0,-0.44 0.18,-0.8 0.4,-0.8 0.22,0 0.4,-0.36 0.4,-0.8 0,-0.44 0.18,-0.8 0.4,-0.8 0.22,0 0.4,-0.45 0.4,-1 0,-0.55 0.18,-1 0.4,-1 0.22,0 0.4,-0.272 0.4,-0.605 0,-0.333 0.208,-1.008 0.462,-1.5 0.971,-1.877 1.138,-2.302 1.138,-2.89 0,-0.333 0.18,-0.605 0.4,-0.605 1.761,0 -0.115,-2.111 -2.5,-2.814 -1.045,-0.309 -1.9,-0.701 -1.9,-0.873 0,-0.172 -0.349,-0.313 -0.776,-0.313 -0.427,0 -0.888,-0.18 -1.024,-0.4 -0.136,-0.22 -0.687,-0.4 -1.224,-0.4 -0.537,0 -0.976,-0.18 -0.976,-0.4 0,-0.22 -0.36,-0.4 -0.8,-0.4 -0.44,0 -0.8,-0.18 -0.8,-0.4 0,-0.609 -2.532,-0.447 -3.1,0.198 m -21.168,44.61 c -0.388,0.656 -0.846,1.192 -1.018,1.192 -0.173,0 -0.314,0.278 -0.314,0.617 0,0.339 -0.331,0.972 -0.736,1.406 -0.405,0.435 -0.99,1.282 -1.299,1.884 -0.31,0.601 -0.678,1.183 -0.818,1.293 -1.784,1.403 -2.284,4.491 -0.847,5.232 0.605,0.313 1.449,0.883 1.875,1.268 0.427,0.385 1.012,0.7 1.3,0.7 0.289,0 0.525,0.158 0.525,0.351 0,0.194 0.54,0.576 1.2,0.849 0.66,0.273 1.2,0.655 1.2,0.849 0,0.193 0.236,0.351 0.525,0.351 0.288,0 0.911,0.36 1.383,0.8 1.109,1.033 3.292,1.092 3.292,0.088 0,-0.391 0.36,-0.971 0.8,-1.288 0.44,-0.317 0.8,-0.897 0.8,-1.288 0,-0.392 0.18,-0.712 0.4,-0.712 0.22,0 0.4,-0.27 0.4,-0.6 0,-0.33 0.18,-0.6 0.4,-0.6 0.22,0 0.4,-0.27 0.4,-0.6 0,-0.33 0.18,-0.6 0.4,-0.6 0.22,0 0.4,-0.278 0.4,-0.617 0,-0.339 0.36,-1.003 0.8,-1.475 0.44,-0.472 0.8,-1.095 0.8,-1.383 0,-0.289 0.18,-0.525 0.4,-0.525 0.794,0 0.432,-2.067 -0.4,-2.284 -0.44,-0.115 -0.8,-0.368 -0.8,-0.563 0,-0.194 -0.283,-0.353 -0.629,-0.353 -0.345,0 -0.898,-0.27 -1.228,-0.6 -0.33,-0.33 -0.947,-0.6 -1.372,-0.6 -0.424,0 -0.771,-0.18 -0.771,-0.4 0,-0.22 -0.27,-0.4 -0.6,-0.4 -0.33,0 -0.6,-0.159 -0.6,-0.353 0,-0.195 -0.315,-0.454 -0.7,-0.576 -0.385,-0.122 -1.24,-0.53 -1.9,-0.907 -2.489,-1.421 -2.52,-1.423 -3.268,-0.156 M 189.3,275.465 c -0.275,0.111 -0.5,0.417 -0.5,0.68 0,0.263 -0.36,0.738 -0.8,1.055 -0.44,0.317 -0.8,0.775 -0.8,1.018 0,0.242 -0.9,1.404 -2,2.582 -1.1,1.178 -2,2.314 -2,2.524 0,0.21 -0.32,0.673 -0.711,1.029 -0.392,0.356 -1.337,1.457 -2.1,2.446 -0.764,0.989 -2.151,2.566 -3.082,3.504 -2.489,2.505 -2.997,3.408 -2.563,4.55 0.329,0.864 5.324,6.347 5.783,6.347 0.104,0 0.766,0.54 1.473,1.2 1.624,1.517 4.4,1.244 4.4,-0.433 0,-0.214 0.765,-1.165 1.7,-2.115 2.284,-2.32 3.5,-3.784 3.5,-4.215 0,-0.196 0.9,-1.275 2,-2.398 1.1,-1.124 2,-2.156 2,-2.294 0,-0.138 0.324,-0.542 0.719,-0.898 0.395,-0.356 1.152,-1.277 1.681,-2.047 0.529,-0.77 1.241,-1.672 1.581,-2.004 0.768,-0.75 1.619,-2.237 1.619,-2.83 0,-0.506 -2.307,-2.766 -2.824,-2.766 -0.187,0 -0.79,-0.45 -1.34,-1 -0.55,-0.55 -1.154,-1 -1.342,-1 -0.189,0 -0.692,-0.32 -1.119,-0.71 -1.936,-1.774 -4.115,-2.693 -5.275,-2.225 m -33.546,35.833 c -0.635,0.494 -1.745,1.484 -2.467,2.2 -0.723,0.716 -1.482,1.302 -1.687,1.302 -0.205,0 -1.003,0.63 -1.773,1.4 -0.77,0.77 -1.56,1.4 -1.754,1.4 -0.195,0 -0.919,0.54 -1.61,1.2 -0.691,0.66 -1.345,1.2 -1.455,1.2 -0.202,0 -1.466,0.991 -2.424,1.9 -0.29,0.275 -0.647,0.5 -0.795,0.5 -0.147,0 -0.772,0.54 -1.389,1.2 -0.617,0.66 -1.331,1.2 -1.587,1.2 -0.257,0 -1.056,0.45 -1.777,1 -0.722,0.55 -1.52,1 -1.774,1 -0.254,0 -0.462,0.168 -0.462,0.373 0,0.205 -0.338,0.48 -0.751,0.611 -0.413,0.132 -1.268,0.683 -1.9,1.227 -0.632,0.543 -1.374,0.988 -1.649,0.989 -0.275,0 -0.5,0.136 -0.5,0.302 0,0.167 -0.54,0.542 -1.2,0.834 -1.471,0.651 -1.668,2.611 -0.4,3.972 0.44,0.472 0.8,0.969 0.8,1.103 0,0.135 0.54,1.03 1.2,1.989 0.66,0.959 1.2,1.897 1.2,2.084 0,0.187 0.36,0.599 0.8,0.916 0.44,0.317 0.8,0.82 0.8,1.117 0,1.611 2.613,2.252 3.6,0.883 0.317,-0.44 0.897,-0.8 1.288,-0.8 0.392,0 0.712,-0.18 0.712,-0.4 0,-0.22 0.256,-0.4 0.569,-0.4 0.313,0 1.104,-0.45 1.758,-1 0.654,-0.55 1.348,-1 1.542,-1 0.195,0 0.614,-0.36 0.931,-0.8 0.317,-0.44 0.857,-0.8 1.2,-0.8 0.343,0 0.883,-0.36 1.2,-0.8 0.317,-0.44 0.78,-0.8 1.029,-0.8 0.249,0 1.017,-0.54 1.708,-1.2 0.691,-0.66 1.488,-1.2 1.771,-1.2 0.283,0 0.775,-0.36 1.092,-0.8 0.317,-0.44 0.807,-0.8 1.088,-0.8 0.282,0 0.512,-0.18 0.512,-0.4 0,-0.22 0.198,-0.4 0.44,-0.4 0.241,0 0.943,-0.54 1.56,-1.2 0.617,-0.66 1.319,-1.2 1.56,-1.2 0.242,0 0.44,-0.18 0.44,-0.4 0,-0.22 0.258,-0.4 0.573,-0.4 0.315,0 0.687,-0.36 0.827,-0.8 0.14,-0.44 0.52,-0.8 0.845,-0.8 0.325,0 1.031,-0.405 1.569,-0.9 2.327,-2.143 2.904,-2.628 3.916,-3.291 1.28,-0.839 1.46,-2.764 0.351,-3.762 -0.395,-0.356 -1.155,-1.277 -1.689,-2.047 -0.533,-0.77 -1.83,-2.243 -2.881,-3.274 -1.051,-1.031 -1.911,-2.046 -1.911,-2.257 0,-0.366 -0.914,-0.869 -1.579,-0.869 -0.172,0 -0.832,0.404 -1.467,0.898 M 116,339.2 c 0,0.22 -0.36,0.4 -0.8,0.4 -0.44,0 -0.8,0.18 -0.8,0.4 0,0.22 -0.236,0.4 -0.525,0.4 -0.288,0 -0.911,0.36 -1.383,0.8 -0.472,0.44 -1.047,0.8 -1.278,0.8 -1.759,0 -4.414,2.213 -4.414,3.679 0,0.836 0.18,1.521 0.4,1.521 0.22,0 0.4,0.345 0.4,0.767 0,0.421 0.135,0.826 0.3,0.9 0.165,0.073 1.185,1.888 2.266,4.033 1.564,3.102 2.14,3.9 2.82,3.9 1.001,0 3.006,-0.866 3.011,-1.3 0.002,-0.165 0.363,-0.3 0.803,-0.3 0.44,0 0.8,-0.18 0.8,-0.4 0,-0.22 0.345,-0.4 0.767,-0.4 0.421,0 0.826,-0.142 0.9,-0.315 0.14,-0.331 3.636,-2.481 4.833,-2.972 0.906,-0.372 0.899,-1.94 -0.014,-3.159 -0.393,-0.525 -1.141,-1.809 -1.663,-2.854 -0.522,-1.045 -1.1,-1.9 -1.286,-1.9 -0.185,0 -0.337,-0.27 -0.337,-0.6 0,-0.33 -0.18,-0.6 -0.4,-0.6 -0.22,0 -0.4,-0.36 -0.4,-0.8 0,-0.44 -0.18,-0.8 -0.4,-0.8 -0.22,0 -0.4,-0.36 -0.4,-0.8 0,-0.667 -0.267,-0.8 -1.6,-0.8 -0.88,0 -1.6,0.18 -1.6,0.4 M 95.4,350 c -0.136,0.22 -0.597,0.4 -1.024,0.4 -0.427,0 -0.776,0.18 -0.776,0.4 0,0.22 -0.36,0.4 -0.8,0.4 -0.44,0 -0.8,0.18 -0.8,0.4 0,0.22 -0.36,0.4 -0.8,0.4 -0.44,0 -0.8,0.18 -0.8,0.4 0,0.22 -0.36,0.4 -0.8,0.4 -0.44,0 -0.8,0.18 -0.8,0.4 0,0.22 -0.36,0.4 -0.8,0.4 -0.44,0 -0.8,0.18 -0.8,0.4 0,0.22 -0.36,0.4 -0.8,0.4 -0.44,0 -0.8,0.18 -0.8,0.4 0,0.22 -0.439,0.4 -0.976,0.4 -0.537,0 -1.088,0.18 -1.224,0.4 -0.136,0.22 -0.597,0.4 -1.024,0.4 -0.427,0 -0.776,0.18 -0.776,0.4 0,0.22 -0.36,0.4 -0.8,0.4 -0.44,0 -0.8,0.18 -0.8,0.4 0,0.22 -0.45,0.4 -1,0.4 -0.55,0 -1,0.18 -1,0.4 0,0.22 -0.315,0.401 -0.7,0.402 -0.385,0.002 -1.216,0.272 -1.846,0.6 -0.63,0.329 -1.395,0.598 -1.7,0.598 -0.349,0 -0.554,0.444 -0.554,1.2 0,0.66 0.18,1.2 0.4,1.2 0.22,0 0.4,0.54 0.4,1.2 0,0.66 0.143,1.2 0.317,1.2 0.174,0 0.545,0.851 0.823,1.89 0.987,3.693 2.794,6.91 3.88,6.91 0.539,0 0.98,-0.18 0.98,-0.4 0,-0.22 0.36,-0.4 0.8,-0.4 0.44,0 0.8,-0.147 0.8,-0.328 0,-0.18 0.9,-0.572 2,-0.872 1.1,-0.3 2,-0.692 2,-0.872 0,-0.181 0.36,-0.328 0.8,-0.328 0.44,0 0.8,-0.18 0.8,-0.4 0,-0.22 0.45,-0.4 1,-0.4 0.55,0 1,-0.18 1,-0.4 0,-0.22 0.234,-0.4 0.52,-0.4 0.736,0 2.673,-0.941 2.677,-1.3 0.002,-0.165 0.363,-0.3 0.803,-0.3 0.44,0 0.8,-0.18 0.8,-0.4 0,-0.22 0.439,-0.4 0.976,-0.4 0.537,0 1.088,-0.18 1.224,-0.4 0.136,-0.22 0.597,-0.4 1.024,-0.4 0.427,0 0.776,-0.18 0.776,-0.4 0,-0.22 0.36,-0.4 0.8,-0.4 0.44,0 0.8,-0.18 0.8,-0.4 0,-0.22 0.36,-0.4 0.8,-0.4 0.44,0 0.8,-0.18 0.8,-0.4 0,-0.22 0.29,-0.4 0.643,-0.4 0.5,0 0.584,-0.246 0.378,-1.1 -0.386,-1.598 -1.169,-3.3 -1.519,-3.3 -0.166,0 -0.302,-0.216 -0.302,-0.48 0,-0.264 -0.845,-2.244 -1.878,-4.4 C 96.774,349.871 96.011,349.011 95.4,350 M 48,369.6 c 0,0.22 -0.439,0.4 -0.976,0.4 -0.537,0 -1.088,0.18 -1.224,0.4 -0.136,0.22 -0.687,0.4 -1.224,0.4 -0.537,0 -0.976,0.18 -0.976,0.4 0,0.22 -0.349,0.4 -0.776,0.4 -0.427,0 -0.888,0.18 -1.024,0.4 -0.136,0.22 -0.766,0.4 -1.4,0.4 -0.634,0 -1.264,0.18 -1.4,0.4 -0.136,0.22 -0.676,0.4 -1.2,0.4 -0.524,0 -1.064,0.18 -1.2,0.4 -0.136,0.22 -0.657,0.4 -1.157,0.4 -0.5,0 -1.029,0.119 -1.175,0.265 -0.265,0.265 -6.296,2.002 -8.368,2.409 -0.605,0.119 -1.1,0.376 -1.1,0.571 0,0.195 -0.529,0.355 -1.176,0.355 -0.647,0 -1.288,0.18 -1.424,0.4 -0.136,0.22 -0.766,0.4 -1.4,0.4 -0.634,0 -1.264,0.18 -1.4,0.4 -0.136,0.22 -0.676,0.4 -1.2,0.4 -0.524,0 -1.064,0.18 -1.2,0.4 -0.136,0.22 -0.597,0.4 -1.024,0.4 -0.665,0 -0.776,0.287 -0.776,2 0,1.1 0.18,2 0.4,2 0.22,0 0.4,0.619 0.4,1.376 0,0.757 0.18,1.488 0.4,1.624 0.22,0.136 0.4,0.777 0.4,1.424 0,0.647 0.18,1.176 0.4,1.176 0.22,0 0.4,0.553 0.4,1.229 0,0.675 0.257,1.485 0.571,1.8 0.649,0.649 4.229,0.794 4.229,0.171 0,-0.22 0.54,-0.4 1.2,-0.4 0.66,0 1.2,-0.157 1.2,-0.348 0,-0.192 1.075,-0.47 2.388,-0.619 1.313,-0.148 2.494,-0.442 2.623,-0.651 0.13,-0.21 0.665,-0.382 1.189,-0.382 0.524,0 1.064,-0.18 1.2,-0.4 0.136,-0.22 0.777,-0.4 1.424,-0.4 0.647,0 1.176,-0.18 1.176,-0.4 0,-0.22 0.529,-0.4 1.176,-0.4 0.647,0 1.288,-0.18 1.424,-0.4 0.136,-0.22 0.676,-0.4 1.2,-0.4 0.524,0 1.064,-0.18 1.2,-0.4 0.136,-0.22 0.676,-0.4 1.2,-0.4 0.524,0 1.064,-0.18 1.2,-0.4 0.136,-0.22 0.676,-0.4 1.2,-0.4 0.524,0 1.064,-0.18 1.2,-0.4 0.136,-0.22 0.777,-0.4 1.424,-0.4 0.647,0 1.176,-0.18 1.176,-0.4 0,-0.22 0.349,-0.4 0.776,-0.4 0.427,0 0.888,-0.18 1.024,-0.4 0.136,-0.22 0.676,-0.4 1.2,-0.4 0.524,0 1.064,-0.18 1.2,-0.4 0.136,-0.22 0.687,-0.4 1.224,-0.4 0.537,0 0.976,-0.168 0.976,-0.373 0,-0.206 0.495,-0.431 1.1,-0.5 1.099,-0.127 1.976,-2.327 0.927,-2.327 -0.235,0 -0.427,-0.439 -0.427,-0.976 0,-0.537 -0.18,-1.088 -0.4,-1.224 -0.22,-0.136 -0.4,-0.687 -0.4,-1.224 0,-0.537 -0.18,-0.976 -0.4,-0.976 -0.22,0 -0.4,-0.54 -0.4,-1.2 0,-0.66 -0.147,-1.2 -0.328,-1.2 -0.18,0 -0.572,-0.9 -0.872,-2 l -0.545,-2 h -1.927 c -1.061,0 -1.928,0.18 -1.928,0.4"
       inkscape:connector-curvature="0"
       style="fill:#0494dc;fill-rule:evenodd;stroke:none" />
    <path
       id="path1"
       d="m 24.406,22.382 c -0.547,0.42 -0.907,0.842 -0.8,0.939 0.107,0.096 0.64,-0.252 1.186,-0.773 1.19,-1.138 0.99,-1.224 -0.386,-0.166 m 35.356,10.88 c -0.17,0.275 -0.111,0.353 0.148,0.194 0.25,-0.155 0.506,0.115 0.607,0.638 0.151,0.784 0.181,0.758 0.229,-0.194 0.055,-1.125 -0.472,-1.467 -0.984,-0.638 m 304.006,306.39 c -0.171,0.276 -0.063,0.375 0.276,0.254 0.306,-0.109 0.916,-0.032 1.356,0.17 0.787,0.362 0.788,0.358 0.024,-0.254 -0.924,-0.74 -1.281,-0.776 -1.656,-0.17 m -19.186,4.863 c -0.837,0.972 -1.035,1.48 -0.494,1.273 0.604,-0.232 1.677,-1.796 1.215,-1.773 -0.166,0.009 -0.491,0.234 -0.721,0.5 m 33.818,8.48 c 0,0.144 0.289,0.552 0.643,0.905 0.591,0.591 0.632,0.583 0.5,-0.095 -0.132,-0.683 -1.143,-1.399 -1.143,-0.81 m 1.083,3.401 c 0.114,0.437 0.36,0.701 0.545,0.587 0.394,-0.244 0.037,-1.383 -0.433,-1.383 -0.176,0 -0.226,0.358 -0.112,0.796"
       inkscape:connector-curvature="0"
       style="fill:#947b64;fill-rule:evenodd;stroke:none" />
    <path
       style="fill:#f36484;fill-opacity:1;stroke-width:0.09723434"
       inkscape:connector-curvature="0"
       d="m 379.64942,67.138201 c -14.12796,-20.48134 -16.75037,-22.58335 -16.75037,-30.11055 0,-10.31064 8.35836,-18.66899 18.66899,-18.66899 10.31063,0 18.669,8.35835 18.669,18.66899 0,7.5272 -2.62241,9.62921 -16.75037,30.11055 -0.92713,1.3393 -2.91022,1.33921 -3.83725,0 z m 1.91862,-22.33181 c 4.29611,0 7.77875,-3.48264 7.77875,-7.77874 0,-4.29611 -3.48264,-7.77875 -7.77875,-7.77875 -4.2961,0 -7.77874,3.48264 -7.77874,7.77875 0,4.2961 3.48264,7.77874 7.77874,7.77874 z"
       id="path831" />
    <path
       id="path844"
       d="M 20.702842,372.15291 C 6.5748818,351.67157 3.9524718,349.56956 3.9524718,342.04236 c 0,-10.31064 8.3583602,-18.66899 18.6689902,-18.66899 10.31063,0 18.669,8.35835 18.669,18.66899 0,7.5272 -2.62241,9.62921 -16.75037,30.11055 -0.92713,1.3393 -2.91022,1.33921 -3.83725,0 z m 1.91862,-22.33181 c 4.29611,0 7.77875,-3.48264 7.77875,-7.77874 0,-4.29611 -3.48264,-7.77875 -7.77875,-7.77875 -4.2961,0 -7.77874,3.48264 -7.77874,7.77875 0,4.2961 3.48264,7.77874 7.77874,7.77874 z"
       inkscape:connector-curvature="0"
       style="fill:#f36484;fill-opacity:1;stroke-width:0.09723434" />
    <path
       id="path854"
       style="font-style:normal;font-variant:normal;font-weight:normal;font-stretch:normal;font-size:40px;line-height:1.25;font-family:'Arial Black';-inkscape-font-specification:'Arial Black, ';letter-spacing:0px;word-spacing:0px;fill:#f36484;fill-opacity:1;stroke:none"
       d="M 64.890858,332.95215 H 54.812733 l -1.386719,4.72656 H 44.383045 L 55.144764,309.0459 h 9.648437 l 10.761719,28.63281 h -9.257812 z m -1.855469,-6.19141 -3.164063,-10.29297 -3.144531,10.29297 z"
       inkscape:connector-curvature="0" />
    <g
       id="text852"
       style="font-style:normal;font-weight:normal;font-size:40px;line-height:1.25;font-family:sans-serif;letter-spacing:0px;word-spacing:0px;fill:#f36484;fill-opacity:1;stroke:none"
       aria-label="B">
      <path
         id="path857"
         style="font-style:normal;font-variant:normal;font-weight:normal;font-stretch:normal;font-family:'Arial Black';-inkscape-font-specification:'Arial Black, ';fill:#f36484;fill-opacity:1"
         d="m 331.33441,2.2334785 h 16.5625 q 4.14063,0 6.34766,2.0507813 2.22656,2.0507812 2.22656,5.078125 0,2.5390622 -1.58203,4.3554692 -1.05469,1.210937 -3.08594,1.914062 3.08594,0.742188 4.53125,2.558594 1.46485,1.796875 1.46485,4.53125 0,2.226562 -1.03516,4.003906 -1.03516,1.777344 -2.83203,2.8125 -1.11328,0.644531 -3.35938,0.9375 -2.98828,0.390625 -3.96484,0.390625 h -15.27344 z m 8.92578,11.2304685 h 3.84766 q 2.07031,0 2.87109,-0.703125 0.82032,-0.722656 0.82032,-2.070312 0,-1.2500002 -0.82032,-1.9531252 -0.80078,-0.703125 -2.8125,-0.703125 h -3.90625 z m 0,11.25 h 4.51172 q 2.28516,0 3.22266,-0.800781 0.9375,-0.820312 0.9375,-2.1875 0,-1.269531 -0.9375,-2.03125 -0.91797,-0.78125 -3.24219,-0.78125 h -4.49219 z"
         inkscape:connector-curvature="0" />
    </g>
  </g>
</svg>
