<?xml version="1.0" encoding="UTF-8" standalone="no"?>
<svg
   xmlns:dc="http://purl.org/dc/elements/1.1/"
   xmlns:cc="http://creativecommons.org/ns#"
   xmlns:rdf="http://www.w3.org/1999/02/22-rdf-syntax-ns#"
   xmlns:svg="http://www.w3.org/2000/svg"
   xmlns="http://www.w3.org/2000/svg"
   xmlns:sodipodi="http://sodipodi.sourceforge.net/DTD/sodipodi-0.dtd"
   xmlns:inkscape="http://www.inkscape.org/namespaces/inkscape"
   id="svg"
   version="1.1"
   width="360"
   height="333.41666"
   viewBox="0 0 360 333.41667"
   sodipodi:docname="alvo.svg"
   inkscape:version="0.92.4 (5da689c313, 2019-01-14)">
  <metadata
     id="metadata11">
    <rdf:RDF>
      <cc:Work
         rdf:about="">
        <dc:format>image/svg+xml</dc:format>
        <dc:type
           rdf:resource="http://purl.org/dc/dcmitype/StillImage" />
        <dc:title></dc:title>
      </cc:Work>
    </rdf:RDF>
  </metadata>
  <defs
     id="defs9" />
  <sodipodi:namedview
     pagecolor="#ffffff"
     bordercolor="#666666"
     borderopacity="1"
     objecttolerance="10"
     gridtolerance="10"
     guidetolerance="10"
     inkscape:pageopacity="0"
     inkscape:pageshadow="2"
     inkscape:window-width="1920"
     inkscape:window-height="1017"
     id="namedview7"
     showgrid="false"
     inkscape:zoom="0.63712038"
     inkscape:cx="200"
     inkscape:cy="185.20833"
     inkscape:window-x="-8"
     inkscape:window-y="-8"
     inkscape:window-maximized="1"
     inkscape:current-layer="svgg" />
  <g
     id="svgg"
     transform="translate(0,-36.99985)">
    <path
       d="m 2.570312,41.546875 c -0.01904,0.0054 -0.02734,0.02047 -0.02734,0.04297 0,0.21 31.284344,24.317218 31.402343,24.199218 0.177,-0.176 1.48886,0.864329 -15.61914,-12.388671 C 5.539609,43.494766 2.855917,41.465269 2.570312,41.546875 Z M 4.470703,51.9375 c -0.04535,0.0034 -0.03194,0.05491 0.02344,0.144531 0.217,0.351 30.91725,24 31.15625,24 0.112,0 0.291437,-0.154703 0.398437,-0.345703 0.243,-0.435 0.978781,-0.03816 3.175781,1.714844 0.801,0.639 1.56436,1.126984 1.69336,1.083984 0.227,-0.076 -8.586235,-6.938687 -20.615235,-16.054687 -0.143,-0.109 -0.259765,-0.15175 -0.259765,-0.09375 0,0.058 2.552781,2.170312 5.675781,4.695312 5.07,4.1 7.91725,6.500688 7.03125,5.929688 -0.854,-0.551 -6.023969,-4.417266 -12.292969,-9.197266 C 8.021531,54.333828 4.788178,51.914039 4.470703,51.9375 Z m 16.621094,7.904297 c -0.08742,-0.02353 0.02742,0.118125 0.310547,0.398437 0.806,0.799 30.608078,23.945657 30.705078,23.847657 0.182,-0.182 -0.645031,-0.845172 -15.707031,-12.576172 C 25.648578,63.138906 21.470615,59.943759 21.091797,59.841797 Z m -7.910156,2.708984 c -0.02988,0.01187 -0.02092,0.07295 0.01758,0.189453 0.185,0.56 31.21875,24.414094 31.21875,23.996094 0,-0.155 -9.121391,-7.231266 -31.025391,-24.072266 -0.113,-0.087 -0.181062,-0.125156 -0.210937,-0.113281 z m 4.986328,9.638672 c 0.405,0.426 13.530765,10.729094 14.009765,10.996094 1.268,0.708 -0.159546,-0.562547 -3.435546,-3.060547 -7.831,-5.968 -10.878219,-8.255547 -10.574219,-7.935547 z m 33.929687,7.197266 c -0.144156,0.0071 -0.179687,0.130625 -0.179687,0.328125 0,0.165 1.687,3.488718 3.75,7.386718 3.745,7.080001 3.978281,7.601157 3.488281,7.785157 -0.143,0.053 -3.797141,-0.744438 -8.119141,-1.773438 -10.032,-2.388 -9.929593,-2.415937 -5.058593,1.414063 1.719,1.351 4.567078,3.683596 6.330078,5.183596 8.455,7.194 9.96489,8.3214 13.46289,10.0664 3.385,1.689 6.941032,2.86889 14.582032,4.83789 2.987,0.769 4.403904,1.2374 5.003904,1.6504 0.766,0.52599 66.0621,51.09543 67.4961,52.27343 1.236,1.015 1.27665,0.88278 -1.27735,4.17578 -1.454,1.875 -1.77979,2.56689 -1.34179,2.83789 0.501,0.309 20.98489,6.56357 21.21289,6.47657 0.587,-0.224 0.0273,-1.28703 -5.17774,-9.83203 -7.017,-11.517 -6.00433,-10.6883 -8.73633,-7.1543 -2.164,2.799 -2.21515,2.82256 -3.66015,1.72656 -5.447,-4.13 -67.01644,-51.93669 -67.52344,-52.42969 -0.421,-0.409 -1.31634,-2.01087 -2.402344,-4.29687 -4.21,-8.864 -5.613469,-10.77178 -10.980469,-14.925782 -4.084,-3.161001 -6.494375,-4.908969 -6.609375,-4.792969 -0.034,0.034 1.718531,3.399515 3.894531,7.478515 3.864,7.240996 4.172906,7.914826 3.753906,8.173826 -0.112,0.069 -3.699703,-0.71709 -7.970703,-1.74609 -4.271,-1.03 -8.091187,-1.93572 -8.492187,-2.01172 -0.756,-0.145 -2.085938,-1.00847 -2.085938,-1.35547 0,-0.384 1.104391,-0.17958 8.025391,1.48242 7.037,1.691 8.062594,1.84308 8.183594,1.20508 0.036,-0.19 -1.385204,-3.07039 -3.158204,-6.400389 -3.537,-6.64 -3.606671,-6.792078 -3.263671,-7.205079 0.308,-0.370999 -0.524516,-1.210812 -3.353516,-3.382812 -1.163,-0.894 -2.841516,-2.188 -3.728516,-2.875 -4.2375,-3.288 -5.631984,-4.321969 -6.064453,-4.300781 z m 16.306641,45.781251 c -0.0628,0.0123 -0.108547,0.0429 -0.138672,0.0918 -0.074,0.119 1.467781,3.25379 3.425781,6.96679 3.439,6.523 3.764906,7.24638 3.378906,7.48438 -0.098,0.061 -3.530906,-0.68802 -7.628906,-1.66602 -9.341,-2.227 -9.396422,-2.21875 -5.357422,0.90625 1.34,1.037 3.609016,2.87303 5.041016,4.08203 1.432,1.208 3.9915,3.36593 5.6875,4.79492 6.841,5.76401 10.0825,7.3278 21.1875,10.2168 2.464,0.641 4.75952,1.29322 5.10352,1.44922 0.344,0.156 11.35951,8.60725 24.47851,18.78125 13.12,10.173 26.68458,20.68824 30.14258,23.36523 6.917,5.35601 6.58245,4.96135 6.06445,7.15235 -5.338,22.578 12.25628,34.9453 34.36328,24.1543 21.883,-10.681 34.78811,-38.55977 24.53711,-53.00977 -10.8,-15.225 -37.65659,-7.65248 -52.68359,14.85352 -1.332,1.996 -2.30769,3.82606 -4.67969,8.78906 -0.192,0.4 -0.4862,0.75125 -0.6582,0.78125 -0.357,0.062 -59.39414,-45.63681 -60.24414,-46.63281 -0.306,-0.359 -1.23164,-2.11721 -2.05664,-3.90821 -3.458,-7.511 -5.15481,-9.84736 -9.75781,-13.44336 -1.18801,-0.929 -2.96904,-2.32075 -3.95704,-3.09375 -1.784996,-1.394 -5.227762,-4.05389 -6.259762,-4.83789 -1.164,-0.883 -5.329062,-4.13198 -6.039062,-4.70898 -2.25575,-1.83663 -3.509627,-2.65441 -3.949219,-2.56836 z m 31.251953,6.97656 c -0.0208,0.0165 -0.002,0.0658 0.0469,0.14453 0.08,0.13 4.61894,3.67782 10.08594,7.88282 5.467,4.20499 10.29171,7.9199 10.72071,8.2539 0.43,0.335 0.7832,0.56377 0.7832,0.50977 0,-0.115 -0.68247,-0.65478 -12.35547,-9.80078 -7.06562,-5.53525 -9.13544,-7.10588 -9.28125,-6.99024 z m 29.96875,9.43555 c 0,0.19 24.43988,19.29936 24.54688,19.19336 0.22399,-0.225 0.67915,0.13945 -13.71485,-10.93555 -4.067,-3.13 -8.16828,-6.29139 -9.11328,-7.02539 -0.946,-0.734 -1.71875,-1.28842 -1.71875,-1.23242 z m 227.08984,15.26367 c -0.12896,-0.0132 -0.21484,0.86827 -0.21484,2.72852 -0.003,53.082 -30.492,110.08159 -81.875,153.05859 -49.941,41.771 -113.00167,56.23294 -151.88867,34.83594 -32.557,-17.914 -47.326736,-51.6818 -41.427736,-94.7168 2.153,-15.713 5.956766,-29.3938 12.884766,-46.3418 1.552,-3.798 1.52855,-4.2864 -0.0644,-1.3164 C 81.365906,228.8858 73.806547,263.278 75.685547,289 c 3.609,49.408 42.157973,82.3055 92.792973,79.1875 54.893,-3.379 111.6104,-38.90898 152.1914,-95.33398 24.864,-34.571 39.25502,-78.40655 36.66602,-111.68555 -0.21825,-2.80856 -0.45529,-4.30725 -0.6211,-4.32422 z"
       id="path0"
       style="fill:#897767;fill-opacity:1"
       inkscape:connector-curvature="0" />
    <path
       id="path1"
       d="m 240.458,132.675 c -8.535,0.773 -20.329,3.378 -24.791,5.476 -1.179,0.554 -0.999,0.529 4.255,-0.611 25.993,-5.64 45.53,-0.223 58.972,16.351 20.848,25.703 12.495,70.756 -19.7,106.255 -32.764,36.126 -78.897,49.406 -106.861,30.76 -18.691,-12.463 -26.12,-34.077 -20.929,-60.888 1.078,-5.564 2.459,-10.52 4.604,-16.516 1.565,-4.376 1.603,-4.958 0.135,-2.093 -10.419,20.337 -13.418,48.222 -7.144,66.417 9.132,26.485 34.676,40.635 65.626,36.356 49.526,-6.849 98.527,-54.581 107.798,-105.007 5.589,-30.399 -2.651,-53.808 -23.84,-67.729 -10.101,-6.637 -24.67,-9.988 -38.125,-8.771 m -13.229,13.839 c -11.53,1.073 -26.834,6.152 -35.686,11.843 -2.144,1.379 -2.072,1.506 0.298,0.526 9.349,-3.866 13.518,-5.142 20.441,-6.257 17.891,-2.879 32.911,2.893 41.951,16.12 10.915,15.972 8.399,42.114 -6.23,64.733 -23.261,35.964 -66.463,53.04 -91.522,36.174 -17.596,-11.843 -21.906,-33.879 -11.834,-60.502 1.704,-4.504 1.145,-4.109 -1.365,0.965 -11.168,22.575 -12.057,47.251 -2.244,62.322 22.178,34.058 79.056,21.074 114.629,-26.168 20.877,-27.726 26.418,-61.06 13.451,-80.916 -8.84,-13.535 -24.277,-20.479 -41.889,-18.84 m -12.812,11.364 c -5.81,0.703 -13.229,2.539 -15.732,3.893 l -0.622,0.337 0.833,0.008 c 0.458,0.005 1.63,-0.14 2.604,-0.322 16.16,-3.016 30.577,5.82 33.633,20.611 5.067,24.531 -17.013,57.797 -45.468,68.502 -23.422,8.812 -42.694,-0.98 -44.439,-22.579 -0.282,-3.489 -0.443,-3.836 -0.881,-1.9 -1.812,8.003 -0.403,18.64 3.334,25.176 14.303,25.015 53.436,18.754 81.64,-13.061 26.319,-29.69 27.988,-66.156 3.558,-77.757 -4.973,-2.362 -12.795,-3.594 -18.46,-2.908"
       style="fill:#2b92db;fill-opacity:0.94117647;fill-rule:evenodd;stroke:none"
       inkscape:connector-curvature="0" />
  </g>
</svg>
