<?xml version="1.0" encoding="UTF-8" standalone="no"?>
<svg
   xmlns:dc="http://purl.org/dc/elements/1.1/"
   xmlns:cc="http://creativecommons.org/ns#"
   xmlns:rdf="http://www.w3.org/1999/02/22-rdf-syntax-ns#"
   xmlns:svg="http://www.w3.org/2000/svg"
   xmlns="http://www.w3.org/2000/svg"
   xmlns:sodipodi="http://sodipodi.sourceforge.net/DTD/sodipodi-0.dtd"
   xmlns:inkscape="http://www.inkscape.org/namespaces/inkscape"
   aria-hidden="true"
   focusable="false"
   data-prefix="fas"
   data-icon="brain"
   class="svg-inline--fa fa-brain fa-w-18"
   role="img"
   viewBox="0 0 512 512"
   version="1.1"
   id="svg4"
   sodipodi:docname="autoconhecimento.svg"
   inkscape:version="0.92.4 (5da689c313, 2019-01-14)"
   width="512"
   height="512">
  <metadata
     id="metadata10">
    <rdf:RDF>
      <cc:Work
         rdf:about="">
        <dc:format>image/svg+xml</dc:format>
        <dc:type
           rdf:resource="http://purl.org/dc/dcmitype/StillImage" />
        <dc:title></dc:title>
      </cc:Work>
    </rdf:RDF>
  </metadata>
  <defs
     id="defs8" />
  <sodipodi:namedview
     pagecolor="#ffffff"
     bordercolor="#666666"
     borderopacity="1"
     objecttolerance="10"
     gridtolerance="10"
     guidetolerance="10"
     inkscape:pageopacity="0"
     inkscape:pageshadow="2"
     inkscape:window-width="1758"
     inkscape:window-height="972"
     id="namedview6"
     showgrid="false"
     inkscape:zoom="0.921875"
     inkscape:cx="425.80353"
     inkscape:cy="312.12179"
     inkscape:window-x="0"
     inkscape:window-y="0"
     inkscape:window-maximized="0"
     inkscape:current-layer="svg4"
     showguides="false" />
  <g
     id="g4743"
     transform="translate(85.776386,2.538533)">
    <g
       transform="matrix(1.09117,0,0,1.09117,-4.8884431,-46.447597)"
       id="g4728"
       style="fill:#897767;fill-opacity:1">
      <g
         id="g4695"
         transform="matrix(1.7580866,0,0,1.7580866,-81.47464,-79.176517)"
         style="fill:#897767;fill-opacity:1">
        <path
           style="fill:#897767;fill-opacity:1;fill-rule:evenodd;stroke:none"
           d="m 134.11328,195.76758 c -8.36214,0.0895 -16.04526,0.9867 -18.46094,3.37695 -48.486936,84.0723 -83.527534,30.45506 -51.335934,63.44531 7.8012,7.84658 18.724013,-4.34178 35.501953,-17.72461 4.531001,-4.092 4.696581,-3.62486 6.142581,17.36915 l 0.41406,5.99609 0.875,12.70898 -15.099609,5.0293 c -33.063,11.011 -49.008407,30.63089 -34.816407,42.83789 10.500425,9.0321 29.793726,7.89091 59.132816,-3.46289 -14.32872,-3.66489 -25.148441,-11.56641 -25.148441,-11.56641 1.674773,-3.0146 22.690821,6.02823 47.849611,3.31446 11.25881,-2.06461 20.89259,-5.79034 39.74205,-5.52496 -9.91225,2.48215 -22.03413,5.74163 -31.7733,9.43707 -1.47645,0.56361 -2.8363,1.10352 -3.93945,1.57812 l -9.27539,3.99024 16.50781,3.25976 c 37.662,7.436 59.71599,6.3393 67.33398,-3.3457 11.43501,-14.536 -3.87967,-32.0248 -36.63867,-41.8418 l -13.58789,-4.07226 0.90234,-12.3418 h 0.13086 l 0.41602,-5.99609 c 1.45405,-20.994 1.62155,-21.46115 6.17773,-17.36915 16.87124,13.38283 27.85464,25.57119 35.69922,17.72461 32.37056,-32.99025 -2.86459,20.62699 -51.62109,-63.44531 -2.42912,-2.39025 -10.15582,-3.28745 -18.56446,-3.37695 -1.08851,-0.0116 -2.18989,-0.001 -3.29101,0.0137 -1.0953,-0.0147 -2.19068,-0.0253 -3.27344,-0.0137 z"
           id="path0"
           inkscape:connector-curvature="0"
           sodipodi:nodetypes="ccccccccccccccccccccccccccccc" />
      </g>
      <path
         style="opacity:1;vector-effect:none;fill:#897767;fill-opacity:1;stroke:none;stroke-width:5.27425957;stroke-linecap:butt;stroke-linejoin:miter;stroke-miterlimit:4;stroke-dasharray:none;stroke-dashoffset:0;stroke-opacity:1"
         d="m 84.54531,473.94552 c 0.600123,-3.00064 28.56713,8.66865 39.05039,9.60256 4.25605,0.37915 12.14365,1.71795 26.09493,-1.62813 2.14683,1.81842 -20.2075,9.70824 -21.47485,8.89766 -7.08082,0.28157 -25.69803,-7.45951 -43.67047,-16.87209 z"
         id="path4679"
         inkscape:connector-curvature="0"
         sodipodi:nodetypes="csccc" />
    </g>
    <g
       transform="matrix(4.1613581,0,0,4.1613581,-484.56209,-533.52766)"
       id="text4732"
       style="font-style:normal;font-weight:normal;font-size:40px;line-height:1.25;font-family:sans-serif;letter-spacing:0px;word-spacing:0px;fill:#2b92db;fill-opacity:0.94117647;stroke:none"
       aria-label="?">
      <path
         inkscape:connector-curvature="0"
         id="path4734"
         style="font-style:normal;font-variant:normal;font-weight:normal;font-stretch:normal;font-size:74.66666412px;font-family:'Arial Black';-inkscape-font-specification:'Arial Black, ';fill:#2b92db;fill-opacity:0.94117647"
         d="m 164.21301,166.5512 h -13.85417 v -1.38541 q 0,-3.53646 0.80208,-5.72396 0.80209,-2.22396 2.3698,-4.04688 1.60416,-1.82291 7.14583,-6.41666 2.95312,-2.40625 2.95312,-4.41146 0,-2.00521 -1.20312,-3.09896 -1.16667,-1.13021 -3.57292,-1.13021 -2.58854,0 -4.30208,1.71354 -1.67708,1.71355 -2.15104,5.97917 l -14.14584,-1.75 q 0.72917,-7.80208 5.65105,-12.54166 4.95833,-4.77605 15.16666,-4.77605 7.94792,0 12.83333,3.31771 6.63542,4.48438 6.63542,11.95833 0,3.09896 -1.71354,5.97917 -1.71354,2.88021 -7,7.03646 -3.68229,2.91667 -4.66667,4.70312 -0.94791,1.75 -0.94791,4.59375 z m -14.32813,3.6823 h 14.83854 v 13.08854 h -14.83854 z" />
    </g>
  </g>
</svg>
