<?xml version="1.0" encoding="UTF-8"?>
<!-- Created with Inkscape (http://www.inkscape.org/) -->
<svg width="4096" height="4096" version="1.1" viewBox="0 0 4096 4096" xml:space="preserve" xmlns="http://www.w3.org/2000/svg" xmlns:cc="http://creativecommons.org/ns#" xmlns:dc="http://purl.org/dc/elements/1.1/" xmlns:rdf="http://www.w3.org/1999/02/22-rdf-syntax-ns#" xmlns:xlink="http://www.w3.org/1999/xlink"><metadata><rdf:RDF><cc:Work rdf:about=""><dc:format>image/svg+xml</dc:format><dc:type rdf:resource="http://purl.org/dc/dcmitype/StillImage"/><dc:title/></cc:Work></rdf:RDF></metadata><g transform="matrix(1.3333 0 0 -1.3333 0 4096)"><path d="m22.896 3049.1h3026.2v-3026.2h-3026.2z" fill="#fff200" fill-rule="evenodd"/><path d="m2271.4 2435.2 253.3-173.57 247.91 165.67 0.726 340.35zm-1464.8-1803.8-252.44 172.13-255.23-172.43 2.5388-333.57zm958.64 1472.2 247.4-166.41-1175.5-795.34 726.34-490.24 341.11 231.2-264.98 175.5 611.56 409.91 511.67-339.49-1236.2-824.08-1219.8 818.34zm-463.07-1128.3-247.37 166.41 1175.5 795.34-726.34 490.23-341.11-231.18 264.95-175.54-611.54-409.88-511.69 339.48 1231.8 824.09 1223-821.95z" fill="#1a5dad" fill-rule="evenodd"/><text transform="scale(1,-1)" x="6284.4463" y="351.62384" fill="#231f20" font-family="Arial" font-size="69.522px" stroke-width="8.6903"><tspan x="6284.4463" y="413.1347" stroke-width="8.6903"/></text>

</g></svg>
