<?xml version="1.0" encoding="UTF-8"?>
<!-- Created with Inkscape (http://www.inkscape.org/) -->
<svg width="256" height="256" version="1.1" viewBox="0 0 67.733 67.733" xmlns="http://www.w3.org/2000/svg" xmlns:cc="http://creativecommons.org/ns#" xmlns:dc="http://purl.org/dc/elements/1.1/" xmlns:rdf="http://www.w3.org/1999/02/22-rdf-syntax-ns#">
 <metadata>
  <rdf:RDF>
   <cc:Work rdf:about="">
    <dc:format>image/svg+xml</dc:format>
    <dc:type rdf:resource="http://purl.org/dc/dcmitype/StillImage"/>
    <dc:title/>
   </cc:Work>
  </rdf:RDF>
 </metadata>
 <g transform="translate(0 -229.27)">
  <g transform="translate(-30.168 122.89)">
   <g stroke-width=".26458">
    <path d="m37.983 165.47 2.8587-0.0852 5.3952 0.1712-11.112-5.3e-4 2.8587-0.0852z" fill="#c4f0fb"/>
    <path d="m38.101 117.05 2.712-0.0858 5.424 0.1715h-10.848z" fill="#9ee6f9"/>
    <path d="m35.379 165.07-0.12611-0.33073 0.1394-47.625 0.12942 48.011 10.716 0.1548-10.732 0.1206z" fill="#08c2f1"/>
   </g>
   <path d="m53.91 165.68-1.0583-0.22962-2.9104-1.1123-2.5899-1.9768-0.98197-0.726v3.5041h-10.848v-47.89h10.84l0.07027 7.4138 0.07027 7.4138 1.4524-1.0915 1.4524-1.0915 1.2421-0.6294 1.2421-0.62939 4.4006-0.73348 3.514 0.1706 3.5022 0.81221 2.5088 1.2757 2.6458 1.9849 2.7782 3.2276 2.1154 4.2339 0.83656 3.175 0.14377 2.9104 0.14377 2.9104-0.28929 1.8521-0.28929 1.8521-1.1234 3.4396-1.8824 3.1115-2.5526 3.0672-4.1142 2.703-3.4396 1.0911-5.8208 0.1902zm4.4423-11.159 1.1139-0.56438 0.9803-0.77136 0.9803-0.77135 0.93793-1.8748 0.93793-1.8748-0.0032-3.2362-0.2598-0.93517-0.2598-0.93518-1.5665-2.4701-2.5412-1.8725-2.1167-0.59874-3.0307 0.0348-2.3539 1.0413-2.3489 2.1652-1.4919 3.306-0.0175 1.725-0.0175 1.725 1.6903 3.4342 1.4887 1.4262 2.9065 1.6019 3.8575 0.01 1.1139-0.56438z" fill="#00bef0" stroke="#00bef0" stroke-width=".79375"/>
   <g stroke-width=".26458">
    <path d="m56.622 166.01 0.59531-0.11467 1.1906 0.22933h-2.3812z" fill="#04b5ee"/>
    <path d="m74.491 147.01 0.0036-1.3229 0.11058 0.73125 0.11058 0.73124-0.22837 1.1834z" fill="#0ca8ea"/>
    <path d="m46.451 163.68 0.0027-1.5875 0.10706 0.86463 0.10707 0.86464-0.10977 0.72286-0.10976 0.72287zm22.143-2.1167 0.62141-0.66145h0.26458l-1.2428 1.3229h-0.26458zm-22.109-37.042-2.58e-4 -7.1438 0.16416 6.9798-0.16366 7.3077z" fill="#3565da"/>
    <path d="m68.839 132.4-0.64143-0.7276 1.4552 1.2829v0.1724h-0.17234z" fill="#454bd4"/>
    <path d="m74.769 146.88v-1.9844l0.20757 1.9844-0.10378 0.99219-0.10378 0.99218z" fill="#5c26ca"/>
   </g>
   <path d="m46.105 168.71v-3.0427h0.52917v-3.175h0.32073l0.96412 0.7451 0.96412 0.74511 2.388 1.3689 1.5697 0.45631 1.5697 0.45632 5.3206 8e-3 3.3673-0.87404 4.1698-2.1694 4.1465-4.3805 2.2027-4.2339 1.163-4.6898v-6.0854l-1.1774-4.7502-2.495-4.4742-3.9688-4.0462-3.4396-1.8944-3.2023-0.8295-3.462-0.49028-5.2916 0.95045-1.8024 0.91433-1.5184 1.0262-1.5184 1.0262h-0.27057v-14.288h-0.52917v-8.2401l30.559 0.1956 3.4396 1.1461 3.175 1.8735 1.3664 1.472 1.3664 1.472 1.871 3.8008 0.27136 1.1906 0.27136 1.1906v3.9688l-0.273 1.1906-0.273 1.1906-0.89136 1.8521-0.89136 1.8521-1.4801 1.587-1.4801 1.587 0.73272 0.50676 0.73272 0.50677 4.2333 4.2814 1.7808 3.0345 1.5007 4.3716 0.562 4.5671-0.54533 3.8996-0.83523 2.9014-1.5303 3.3751-2.7458 3.7039-3.0705 2.5553-3.3867 1.894-3.9004 1.3373-5.2917 0.48722-25.268 0.018zm6.446-14.385-1.0946-0.51096-2.1463-1.939-1.4854-2.4792v-5.0271l0.77041-1.3108 0.77041-1.3108 1.6342-1.5184 1.0506-0.54484 1.0506-0.54483 3.2503-0.26091 2.6763 0.88894 2.3936 2.1069 1.4133 2.8888 0.12822 1.6551 0.12822 1.6551-0.5756 1.5244-0.5756 1.5244-2.4732 2.5251-2.1167 1.0186-3.7042 0.1706z" fill="#631cc8" stroke="#631cc8" stroke-width=".52917"/>
  </g>
 </g>
</svg>
