<?xml version="1.0" encoding="UTF-8"?>
<!-- Generator: Adobe Illustrator 23.0.5, SVG Export Plug-In . SVG Version: 6.00 Build 0)  -->
<svg version="1.2" viewBox="0 0 1080 1080" xml:space="preserve" xmlns="http://www.w3.org/2000/svg" xmlns:cc="http://creativecommons.org/ns#" xmlns:dc="http://purl.org/dc/elements/1.1/" xmlns:rdf="http://www.w3.org/1999/02/22-rdf-syntax-ns#"><metadata><rdf:RDF><cc:Work rdf:about=""><dc:format>image/svg+xml</dc:format><dc:type rdf:resource="http://purl.org/dc/dcmitype/StillImage"/><dc:title/></cc:Work></rdf:RDF></metadata>

	<g fill-rule="evenodd">
		<path d="m509.95 492.1c275.97 198.31 278.01-0.34 283.3 110.48 3.96 82.99-19.19 167.87-71.7 240.39-97.15 134.16-251.49 164.62-393.66 108.74-37.31-14.66-69.83-39.23-104.94-64.73-37.8-27.45-74.74-54.34-101.34-88.03-92.28-116.89-107.01-268.8-11.82-400.27 48.73-67.29 115.41-113.82 188.69-137.77 111.14-36.32-66.94 31.13 211.47 231.19z" fill="none" stroke="#ACA098" stroke-miterlimit="10" stroke-width="80"/>
		<path d="m87.68 748.89s0.99-68.89 67.4-71.01c36.8-1.18 45.78 49.69 90.66 43.47s21.63-66.95 76.03-76.23c54.41-9.28 48.81 50.61 111.82 41.3 63.01-9.32 55.61-61.25 116.52-74.52s71.19 49.02 129.1 43.45 31.9-50.48 84.91-59.52" fill="none" stroke="#ACA098" stroke-miterlimit="10" stroke-width="80"/>
		<path d="m705.67 580.24c120.5-195.32 371.93-89.69 315.25 46.78-77.21 184.46-41.83-206.04-262.63-50.83-2.44-1.69-72.54 36.34-52.62 4.05z" fill="#ACA098"/>
	</g>
	
		<path d="m819.26 81.34c-9.27-0.08-17.93 1.61-25.29 5.98-1.46 1.84-1.38 2.38 0.31 5.9 4.83 10.65 28.14 26.19 23.37 37.78-91.27 137.03-269.15 74.57-260.33 102.31 211.52 22.45 181.1 250.98 217.88 180.48 22.84-83.23-2.38-194.04 82.54-179.25 62 7.89 149.06 70.81 197.8 13.33 80.08-119.86-74.72-138.63-146.45-131.43-15.26-10.88-56.57-34.71-89.83-35.1z" fill="#ACA098" fill-rule="evenodd"/>
	

</svg>
