<?xml version="1.0" encoding="UTF-8"?>
<!-- Generator: Adobe Illustrator 23.0.5, SVG Export Plug-In . SVG Version: 6.00 Build 0)  -->
<svg width="1880" height="1500" version="1.2" viewBox="0 0 1880 1500" xml:space="preserve" xmlns="http://www.w3.org/2000/svg" xmlns:cc="http://creativecommons.org/ns#" xmlns:dc="http://purl.org/dc/elements/1.1/" xmlns:rdf="http://www.w3.org/1999/02/22-rdf-syntax-ns#"><metadata><rdf:RDF><cc:Work rdf:about=""><dc:format>image/svg+xml</dc:format><dc:type rdf:resource="http://purl.org/dc/dcmitype/StillImage"/><dc:title/></cc:Work></rdf:RDF></metadata>




<g transform="translate(7.6382 -8)"><g transform="translate(398.01 -50)"><path d="m509.95 492.1c275.97 198.31 278.01-0.34 283.3 110.48 3.96 82.99-19.19 167.87-71.7 240.39-97.15 134.16-251.49 164.62-393.66 108.74-37.31-14.66-69.83-39.23-104.94-64.73-37.8-27.45-74.74-54.34-101.34-88.03-92.28-116.89-107.01-268.8-11.82-400.27 48.73-67.29 115.41-113.82 188.69-137.77 111.14-36.32-66.94 31.13 211.47 231.19z" fill="none" stroke="#aca098" stroke-miterlimit="10" stroke-width="80"/><path d="m87.68 748.89s0.99-68.89 67.4-71.01c36.8-1.18 45.78 49.69 90.66 43.47s21.63-66.95 76.03-76.23c54.41-9.28 48.81 50.61 111.82 41.3 63.01-9.32 55.61-61.25 116.52-74.52s71.19 49.02 129.1 43.45 31.9-50.48 84.91-59.52" fill="none" stroke="#aca098" stroke-miterlimit="10" stroke-width="80"/><path d="m705.67 580.24c120.5-195.32 371.93-89.69 315.25 46.78-77.21 184.46-41.83-206.04-262.63-50.83-2.44-1.69-72.54 36.34-52.62 4.05z" fill="#aca098" fill-rule="evenodd"/><path d="m819.26 81.34c-9.27-0.08-17.93 1.61-25.29 5.98-1.46 1.84-1.38 2.38 0.31 5.9 4.83 10.65 28.14 26.19 23.37 37.78-91.27 137.03-269.15 74.57-260.33 102.31 211.52 22.45 181.1 250.98 217.88 180.48 22.84-83.23-2.38-194.04 82.54-179.25 62 7.89 149.06 70.81 197.8 13.33 80.08-119.86-74.72-138.63-146.45-131.43-15.26-10.88-56.57-34.71-89.83-35.1z" fill="#aca098" fill-rule="evenodd"/></g><g transform="matrix(1.085 0 0 1.085 -1247.2 552.51)" fill="#aca098">
	<path d="m1163.4 867.52v-343.82h67.9v285.55h105.94v58.27z"/>
	<path d="m1410 501.07c23.76 0 35.63 11.88 35.63 35.63 0 11.88-3.21 20.71-9.63 26.48-6.1 5.78-14.77 8.67-26 8.67-10.91 0-19.58-2.89-26-8.67s-9.63-14.61-9.63-26.48c0-12.52 3.05-21.51 9.15-26.97 6.42-5.77 15.24-8.66 26.48-8.66zm32.74 103.05v263.4h-65.49v-263.4z"/>
	<path d="m1553.9 867.52-79.93-263.4h67.9l36.11 142.54c2.57 9.31 4.49 18.62 5.78 27.93 1.61 9.31 2.89 18.62 3.85 27.93h1.93c0.32-7.38 1.12-15.57 2.41-24.56 1.61-8.99 3.69-18.62 6.26-28.89l37.56-144.94h67.9l-79.93 263.4z"/>
	<path d="m1859.9 599.3c7.06 0 14.45 0.96 22.15 2.89l-5.3 67.41c-5.78-2.25-13.16-3.37-22.15-3.37-16.05 0-29.05 5.78-39 17.34-9.63 11.56-14.45 28.09-14.45 49.6v134.35h-65.49v-263.4h50.08l9.63 43.82h2.89c6.1-12.84 14.29-24.08 24.56-33.71 10.6-9.95 22.96-14.93 37.08-14.93z"/>
	<path d="m2007.8 599.3c28.57 0 50.24 7.86 65.01 23.59 15.09 15.41 22.63 38.68 22.63 69.82v174.8h-47.19l-11.07-35.15h-1.44c-9.31 13.8-19.26 23.92-29.85 30.34-10.27 6.42-24.24 9.63-41.89 9.63-22.15 0-38.84-7.87-50.08-23.6-11.24-16.05-16.85-35.79-16.85-59.23 0-27.61 8.19-48.31 24.56-62.12 16.69-13.8 40.77-21.35 72.23-22.63l36.6-1.44v-10.59c0-27.93-10.92-41.89-32.74-41.89-8.99 0-18.46 1.61-28.41 4.82-9.95 2.89-20.39 7.38-31.3 13.48l-19.26-47.19c25.65-15.09 55.34-22.64 89.05-22.64zm22.63 145.91-21.19 0.96c-16.05 0.64-27.77 4.49-35.15 11.56-7.38 7.06-11.07 17.01-11.07 29.85 0 11.88 2.41 20.55 7.22 26 4.82 5.14 11.4 7.7 19.74 7.7 11.56 0 21.19-4.65 28.89-13.97 7.7-9.31 11.56-22.15 11.56-38.52z"/>
	<path d="m2150.3 833.33c0-13.16 3.37-22.95 10.11-29.37 7.06-6.74 16.53-10.11 28.41-10.11 11.56 0 20.71 3.21 27.45 9.63 7.06 6.42 10.59 16.37 10.59 29.85 0 13.16-3.53 23.11-10.59 29.86-7.06 6.74-16.21 10.11-27.45 10.11-11.56 0-20.87-3.37-27.93-10.11-7.06-6.75-10.59-16.7-10.59-29.86z"/>
	<path d="m2542.6 599.3c24.4 0 42.7 7.86 54.9 23.59 12.52 15.41 18.78 39.33 18.78 71.75v172.87h-65.01v-154.57c0-38.2-10.11-57.3-30.34-57.3-14.45 0-24.56 6.58-30.34 19.74s-8.67 32.91-8.67 59.23v132.9h-65.49v-155.06c0-37.88-9.79-56.82-29.37-56.82-15.41 0-26 7.38-31.78 22.15-5.46 14.77-8.19 36.28-8.19 64.53v125.2h-65.01v-263.4h51.04l7.7 33.71h3.85c5.78-12.84 14.45-22.47 26-28.89 11.56-6.42 24.72-9.63 39.49-9.63 16.37 0 29.69 3.53 39.97 10.59 10.27 6.74 17.98 15.89 23.11 27.45h4.82c12.85-25.36 34.36-38.04 64.54-38.04z"/>
	<path d="m2768.6 599.78c31.46 0 55.86 10.59 73.19 31.78 17.66 21.19 26.49 50.24 26.49 87.16v35.15h-138.68c0.64 44.3 18.78 66.45 54.41 66.45 12.84 0 24.88-1.44 36.11-4.33 11.24-2.89 22.95-7.87 35.15-14.93v52.97c-11.24 6.42-23.11 11.08-35.63 13.97s-26.81 4.33-42.86 4.33c-37.24 0-65.33-11.72-84.27-35.15-18.62-23.43-27.93-56.66-27.93-99.68 0-44.94 8.99-79.13 26.97-102.57 18.31-23.44 43.99-35.15 77.05-35.15zm0.96 49.6c-11.24 0-20.55 4.65-27.93 13.97-7.06 8.99-10.92 23.76-11.56 44.3h77.05c0-17.66-3.21-31.78-9.63-42.38-6.42-10.59-15.73-15.89-27.93-15.89z"/>
</g></g>
</svg>
