<?xml version="1.0" encoding="UTF-8" standalone="no"?>
<svg
   xmlns:dc="http://purl.org/dc/elements/1.1/"
   xmlns:cc="http://creativecommons.org/ns#"
   xmlns:rdf="http://www.w3.org/1999/02/22-rdf-syntax-ns#"
   xmlns:svg="http://www.w3.org/2000/svg"
   xmlns="http://www.w3.org/2000/svg"
   xmlns:sodipodi="http://sodipodi.sourceforge.net/DTD/sodipodi-0.dtd"
   xmlns:inkscape="http://www.inkscape.org/namespaces/inkscape"
   version="1.0"
   width="434.000000pt"
   height="217.000000pt"
   viewBox="0 0 434.000000 217.000000"
   preserveAspectRatio="xMidYMid meet"
   id="svg2"
   inkscape:version="0.48.4 r9939"
   sodipodi:docname="Et_oromo.svg">
  <defs
     id="defs14" />
  <sodipodi:namedview
     pagecolor="#ffffff"
     bordercolor="#666666"
     borderopacity="1"
     objecttolerance="10"
     gridtolerance="10"
     guidetolerance="10"
     inkscape:pageopacity="0"
     inkscape:pageshadow="2"
     inkscape:window-width="1366"
     inkscape:window-height="718"
     id="namedview12"
     showgrid="false"
     inkscape:zoom="1.6222367"
     inkscape:cx="309.13331"
     inkscape:cy="144.31995"
     inkscape:window-x="-8"
     inkscape:window-y="-8"
     inkscape:window-maximized="1"
     inkscape:current-layer="svg2" />
  <metadata
     id="metadata4">
Created by potrace 1.11, written by Peter Selinger 2001-2013
<rdf:RDF>
  <cc:Work
     rdf:about="">
    <dc:format>image/svg+xml</dc:format>
    <dc:type
       rdf:resource="http://purl.org/dc/dcmitype/StillImage" />
  </cc:Work>
</rdf:RDF>
</metadata>
  <path
     style="fill:#ffffff;fill-opacity:1;stroke:none"
     inkscape:connector-curvature="0"
     id="path8-1"
     d="m 0.10000001,109.4568 c 0,20.8 0.3,37.2 0.59999999,36.5 0.3999999,-0.9 44.699999,-1.2 216.9,-1.2 l 216.4,0 0,-36.5 0,-36.500002 -217,0 -217,0 0.10000001,37.700002 z" />
  <path
     style="fill:#fc0204;stroke:none;fill-opacity:1"
     inkscape:connector-curvature="0"
     id="path8"
     d="M 0.1,37.7 C 0.1,58.5 0.4,74.9 0.7,74.2 1.1,73.3 45.4,73 217.6,73 L 434,73 434,36.5 434,0 217,0 0,0 0.1,37.7 z" />
  <path
     style="fill:#000000;stroke:none"
     inkscape:connector-curvature="0"
     id="path10"
     d="m 222.7,74.6 c -0.1,0.2 -2.7,0.4 -5.7,0.5 -3.5,0.2 -6,0.9 -7.1,2 -1,1 -3.5,2.1 -5.6,2.5 -2.1,0.4 -4.4,1.1 -5,1.7 -0.7,0.5 -1.3,0.6 -1.3,0.2 0,-0.4 -0.6,-0.2 -1.4,0.4 -0.8,0.6 -1.8,1.1 -2.2,0.9 -1.2,-0.3 -7.4,2.5 -7.4,3.4 0,0.5 -0.7,0.8 -1.5,0.8 -0.8,0 -2,0.9 -2.7,1.9 -0.6,1 -1.7,1.7 -2.3,1.5 -0.6,-0.3 -2,0.5 -3.2,1.6 -1.2,1.1 -2.7,2 -3.3,2 -2.4,0 -7,4.4 -7,6.8 0,2.9 -1.7,6.3 -4.2,8 -2.5,1.8 -2.3,3.2 1.7,8.8 1.9,2.7 3.5,5.5 3.5,6.3 0,0.8 0.7,1.1 1.9,0.8 1.2,-0.3 2.2,0.1 2.5,1 0.3,0.8 1,1.2 1.4,0.9 0.4,-0.3 2.6,-0.1 4.8,0.4 4.8,1.1 11.4,0.2 11.4,-1.6 0,-0.8 2,-1.5 5.8,-1.9 4.4,-0.6 6.4,-1.4 8.8,-3.7 1.8,-1.6 3.4,-2.6 3.7,-2.1 0.9,1.4 -1.3,12.3 -3.1,15.7 -0.9,1.8 -2.6,4.9 -3.6,6.9 l -2,3.7 -99.8,0 -99.8,0 0,36.5 0,36.5 217,0 217,0 0,-36.5 0,-36.5 -99.4,0 -99.3,0 -4.2,-9 c -5.5,-12 -5.5,-15.9 0,-12.9 1.2,0.6 2.8,0.7 3.7,0.4 2.8,-1.2 12.6,-0.5 13.7,0.9 1.2,1.6 8.5,3.1 8.5,1.8 0,-0.5 0.9,-1.2 2,-1.5 1.1,-0.3 2,-1.2 2,-2 0,-0.9 1.1,-1.7 2.6,-1.9 1.6,-0.2 3.2,-1.4 4.2,-3.3 0.9,-1.7 2,-3.2 2.4,-3.5 0.3,-0.3 0.8,-2.1 1,-4 0.2,-2.5 -0.2,-4 -1.6,-5.1 -1.2,-0.9 -1.9,-2.8 -1.8,-4.6 0.1,-3 -3.5,-8.3 -5.6,-8.3 -0.6,0 -1.4,-0.9 -1.7,-2.1 -0.4,-1.2 -1.3,-1.8 -2,-1.5 -0.8,0.3 -1.9,-0.2 -2.5,-1 -0.7,-0.8 -1.7,-1.4 -2.2,-1.4 -0.5,0 -2.1,-1.1 -3.6,-2.5 -1.5,-1.4 -3.8,-2.6 -5.2,-2.6 -5.1,-0.3 -10.4,-1.4 -12.3,-2.6 -1.4,-0.9 -9.5,-3.1 -10,-2.7 z m 9.8,4.5 c 0,0.8 -1,1.5 -2.1,1.7 -1.6,0.2 -2,0.8 -1.7,2.3 0.3,1.1 0,1.9 -0.6,1.9 -0.7,0 -0.9,0.4 -0.6,1 0.3,0.5 -0.3,1 -1.4,1 -1.2,0 -2.1,0.4 -2.1,1 0,1.3 1.6,1.3 4.1,0 1.1,-0.6 1.9,-2.1 1.9,-3.6 0,-1.4 0.4,-2.3 0.9,-2 0.5,0.3 1.4,-0.1 2.1,-0.9 0.8,-0.9 2.6,-1.4 5.3,-1.2 3.4,0.3 4.2,0.7 4.8,2.7 0.3,1.4 0.1,3.1 -0.4,3.8 -1.7,2.1 4,11.1 7.1,11.2 0.6,0 1.2,0.4 1.2,1 0,0.5 0.7,1 1.5,1 2.1,0 1.9,4.9 -0.3,8 -1,1.5 -2.7,2.5 -4.2,2.5 -1.8,0 -2.5,0.6 -2.6,2 -0.1,1.1 -0.2,2.4 -0.3,2.9 -0.1,0.5 -0.7,0.3 -1.5,-0.3 -1.1,-0.9 -1.5,-0.7 -1.9,0.9 -0.6,2.3 -0.7,2.3 2.9,1 2.2,-0.9 2.9,-0.8 3.6,0.5 0.5,0.8 1.3,1.3 1.8,1 0.5,-0.3 1.1,-0.1 1.5,0.5 0.4,0.6 1.1,0.8 1.6,0.5 1.9,-1.3 5.3,-1.4 6,-0.3 1.1,1.7 -0.1,3.8 -1.7,3.1 -0.8,-0.3 -1.4,0.1 -1.4,0.9 0,2.1 -5.8,1.1 -7,-1.2 -0.7,-1.4 -2,-1.7 -5.7,-1.4 -2.6,0.1 -5.3,-0.1 -5.9,-0.7 -0.8,-0.6 -1.3,-0.5 -1.7,0.5 -0.6,1.5 -4.7,1.1 -4.7,-0.5 0,-0.5 -0.7,-0.6 -1.5,-0.3 -0.8,0.4 -2.3,0.3 -3.2,-0.1 -1,-0.5 -3.3,-0.9 -5.1,-1 -1.7,-0.1 -3.1,-0.5 -3,-1.1 0.2,-0.5 1.6,-0.8 3.1,-0.7 1.6,0.1 4.6,-0.5 6.8,-1.2 3.6,-1.3 4,-1.3 5.2,0.5 0.7,1.2 2.3,2 3.9,2 2.7,0 4.6,-1.6 3.3,-2.8 -0.3,-0.3 -1,0 -1.5,0.8 -0.7,1.2 -1.3,1.3 -2.7,0.4 -2.1,-1.4 -2.3,-9.5 -0.3,-11.9 0.8,-1 0.9,-1.5 0.2,-1.5 -1.4,0 -3.1,3.1 -2.5,4.7 0.3,0.7 -0.2,1.6 -1.1,1.9 -0.9,0.3 -1.6,1.4 -1.6,2.3 0,2.3 -4.4,2.3 -5.9,0 -0.8,-1.4 -0.9,-2.5 -0.1,-3.9 0.7,-1.3 0.7,-2 0.1,-2 -1.6,0 -2.4,4.6 -1.2,6.8 1.4,2.6 -0.4,4 -1.8,1.5 -0.6,-1 -1.1,-1.3 -1.1,-0.6 0,0.7 -1.1,1 -2.7,0.8 -1.6,-0.2 -2.8,-0.4 -2.8,-0.5 0,-0.1 -1,-0.3 -2.3,-0.6 -2,-0.3 -2.2,-0.1 -1.7,1.6 0.5,1.5 0.2,2 -1.2,2 -2.9,-0.1 -5.4,-2.5 -4.7,-4.6 0.5,-1.5 0.4,-1.6 -0.5,-0.8 -0.8,0.8 -2.5,0.9 -4.7,0.4 -2.5,-0.6 -3.4,-0.5 -3.1,0.3 0.2,0.7 1.5,1.3 3,1.5 2.2,0.3 2.5,0.7 2.2,3.2 -0.5,4.2 -1.4,5.2 -4.3,4.9 -1.5,-0.2 -3.3,0 -4,0.4 -1.5,1 -1.5,0.2 0,-2.2 0.9,-1.5 0.8,-2.2 -0.5,-3.5 -0.8,-0.9 -2,-1.6 -2.5,-1.6 -0.6,0 -1.2,-0.5 -1.4,-1.2 -0.3,-0.7 -1,-0.8 -1.7,-0.3 -1,0.5 -0.5,1.3 1.8,2.7 3.7,2.3 3.7,2.8 1.1,5.8 -1.1,1.3 -2,2.6 -2,3 0,1.1 -6.9,2.2 -8.3,1.3 -0.6,-0.4 -2,-0.6 -2.9,-0.5 -1,0.2 -1.8,-0.2 -1.8,-0.8 0,-0.7 -0.6,-1 -1.4,-0.7 -0.8,0.3 -1.7,-0.1 -2,-1 -0.5,-1.2 -0.9,-1.3 -2.1,-0.3 -1.2,1 -1.5,0.9 -1.5,-0.8 0,-1.1 -0.6,-2.7 -1.3,-3.4 -0.7,-0.7 -2.2,-2.7 -3.2,-4.5 l -1.9,-3.2 2.7,-2.1 c 1.5,-1.2 2.7,-3 2.7,-4.1 0,-1 0.4,-1.9 1,-1.9 0.5,0 0.7,-0.7 0.3,-1.6 -0.7,-2 3.8,-6.4 6.5,-6.4 1.1,0 2.2,-0.7 2.6,-1.5 0.7,-2 5.6,-2 5.6,0 0,1.6 3.4,3.8 4.4,2.8 0.3,-0.3 0.6,-0.1 0.6,0.6 0,0.8 0.7,1.1 1.5,0.7 1.7,-0.6 5.1,4.9 3.5,5.9 -0.5,0.3 -0.7,1.2 -0.3,2 0.3,0.8 0.1,1.5 -0.5,1.5 -0.5,0 -1.2,0.9 -1.5,2 -0.3,1.3 -1.1,1.8 -2,1.4 -0.8,-0.3 -1.8,0 -2.2,0.5 -0.3,0.6 -1.1,0.9 -1.6,0.6 -0.5,-0.4 -0.9,-0.1 -0.9,0.5 0,1.8 6.2,0.1 8.4,-2.2 3.8,-4.1 2.1,-14.9 -2.1,-13.3 -0.7,0.2 -1.3,-0.2 -1.3,-1 0,-0.9 -1,-1.5 -2.5,-1.5 -1.4,0 -2.5,-0.4 -2.5,-0.9 0,-0.5 -0.3,-1.7 -0.7,-2.7 -0.5,-1.4 -0.3,-1.6 1.1,-1.1 1.3,0.5 1.9,0.1 2.3,-1.3 0.3,-1.1 1.3,-2 2.3,-2 1,0 2.1,-0.6 2.4,-1.3 0.5,-1 0.7,-1 1.2,0 0.3,0.7 1.1,1.3 1.8,1.3 1.9,0 3.7,4.7 3,7.6 -1,3.9 4.2,8.5 6.1,5.4 0.3,-0.6 -0.1,-0.7 -0.9,-0.4 -1.1,0.4 -1.6,0 -1.6,-1 0,-0.9 -0.4,-1.6 -1,-1.6 -0.5,0 -1,-1.8 -1,-4.1 0,-2.3 -0.7,-4.7 -1.5,-5.5 -2,-2 -1.9,-3.8 0,-3 0.9,0.3 1.8,-0.1 2.2,-0.9 0.3,-1 1.2,-1.3 2.3,-1 1,0.3 2.1,0.1 2.5,-0.5 0.9,-1.4 3.6,-1.3 3.4,0.2 -0.1,0.7 0,2 0.4,2.8 1.2,3.2 1.5,6 0.6,6.5 -0.4,0.3 -0.6,1.2 -0.2,2 0.4,1.1 -0.4,1.7 -2.6,2.1 -3.3,0.7 -4.3,2.4 -1.3,2.4 2.6,-0.1 5,-2.3 5.4,-5 0.2,-2.1 0.8,-2.4 3.1,-2.2 1.5,0.1 2.7,-0.2 2.7,-0.8 0,-0.5 -0.3,-0.9 -0.7,-0.8 -2,0.7 -5.4,-3.2 -6,-6.6 -0.7,-4.2 0.4,-4.9 7.9,-5 2.6,0 4.8,-0.3 4.8,-0.7 0,-0.3 2.1,0 4.8,0.6 2.8,0.7 4.7,1.8 4.7,2.6 z m 19,5.9 c 3,2.2 5.9,4 6.5,4 0.6,0 1.3,0.7 1.6,1.5 0.4,0.8 1.2,1.5 2,1.5 0.8,0 1.4,0.6 1.4,1.4 0,0.8 0.6,1.6 1.4,1.9 0.7,0.3 1.6,2.4 2,4.7 0.3,2.2 1.3,4.3 2.1,4.6 2.1,0.9 1.8,4.6 -0.7,9.4 -2.6,4.9 -4,5.7 -7.1,4.2 -4,-1.9 -5.4,-2.1 -6.7,-0.9 -1,0.9 -1.4,0.9 -1.7,-0.1 -0.3,-0.6 -0.9,-1 -1.4,-0.6 -1.2,0.7 -3.7,-1.8 -3.1,-3.4 0.2,-0.6 1,-1.2 1.9,-1.2 1.6,0 4.8,-2.8 4.8,-4.2 0,-0.5 0.6,-1.3 1.4,-1.7 0.9,-0.6 1,-1 0.2,-1.6 -0.8,-0.4 -0.9,-1.1 -0.2,-1.8 1.1,-1.4 -1.3,-5.2 -2.7,-4.3 -0.6,0.3 -1.2,-0.1 -1.6,-0.9 -0.3,-0.8 -1.2,-1.5 -2.1,-1.5 -0.9,0 -1.5,-0.6 -1.3,-1.3 0.2,-0.6 0,-1.3 -0.5,-1.5 -0.4,-0.1 -1.7,-1.2 -2.8,-2.3 -2,-2 -2,-2.2 -0.5,-3.1 1.3,-0.8 1.5,-1.3 0.5,-2.4 -1.1,-1.3 -0.7,-4.4 0.6,-4.4 0.3,0 3,1.8 6,4 z m -37.1,33.6 c 0.9,0.3 1.4,0.9 1.2,1.3 -0.3,0.3 -0.7,4.2 -1,8.5 -0.3,4.3 -1.1,8.4 -1.7,9.2 -0.7,0.8 -1,1.7 -0.7,1.9 1,1 2.7,-2.1 3.1,-5.5 1.9,-14.9 2.1,-15.4 7.7,-14 2,0.5 2.6,1.4 3.1,4.5 0.3,2.2 2.2,7.3 4.2,11.2 2,4 3.7,7.4 3.7,7.7 0,0.2 -7.4,0.5 -16.5,0.5 l -16.5,0.1 1.3,-2.3 c 0.6,-1.2 1.5,-2.4 1.8,-2.7 1.2,-0.9 4,-8.5 4.6,-12.3 0.3,-2.1 0.6,-4.6 0.8,-5.5 0.2,-0.9 0.4,-2 0.4,-2.5 0.1,-0.9 2.3,-0.9 4.5,-0.1 z" />
  <path
     style="fill:#046535;fill-opacity:1"
     d="m 225.96222,157.6753 c -0.46908,-0.18902 -1.90126,-0.46228 -3.18262,-0.60725 -1.95578,-0.22127 -2.39915,-0.41593 -2.76219,-1.21272 -0.37456,-0.82206 -0.6112,-0.91562 -1.76732,-0.69873 -1.17183,0.21984 -1.42137,0.1146 -2.04322,-0.86164 -1.15227,-1.80896 -1.81308,-1.93232 -3.34003,-0.62353 -0.87651,0.75128 -1.49032,0.30958 -1.49032,-1.07244 0,-1.60102 -0.63438,-3.06362 -2.11466,-4.87546 -0.70815,-0.86677 -2.28035,-3.15889 -3.49378,-5.0936 l -2.20623,-3.51765 1.07367,-0.90931 c 3.7422,-3.16933 4.78912,-4.4505 5.42399,-6.63755 0.35513,-1.22342 0.97802,-2.458 1.38418,-2.74351 0.57319,-0.40292 0.68432,-0.80784 0.4965,-1.80906 -0.31326,-1.66982 0.44144,-3.11583 2.72467,-5.22043 1.96497,-1.81125 3.57343,-2.64373 5.79595,-2.99976 1.04219,-0.16695 1.77258,-0.62495 2.54053,-1.59306 1.22164,-1.54007 3.2252,-2.26287 4.99298,-1.80126 0.84722,0.22123 1.36357,0.73589 1.88916,1.88294 0.88951,1.9413 3.50318,3.79045 4.9603,3.50937 0.75241,-0.14514 1.08534,0.0154 1.37244,0.66172 0.2825,0.63598 0.67435,0.83151 1.53825,0.76761 0.80511,-0.0596 1.50118,0.23893 2.27873,0.97713 2.06624,1.96167 3.31453,5.46776 2.19341,6.16065 -0.22986,0.14206 -0.3702,1.03437 -0.31187,1.98291 0.0875,1.4225 -0.0506,1.83433 -0.78805,2.35088 -0.49176,0.34444 -1.22458,1.39722 -1.62849,2.3395 -0.72418,1.68943 -0.76091,1.71326 -2.64195,1.71326 -1.4287,0 -2.09018,0.20179 -2.63503,0.80383 -0.51859,0.57304 -1.00229,0.73487 -1.68461,0.56361 -0.87798,-0.22035 -1.59424,0.25148 -1.61159,1.06162 -0.0175,0.81627 1.67956,1.11897 3.82359,0.68199 3.37869,-0.68861 6.65242,-2.58117 7.91865,-4.57781 2.63287,-4.15161 2.40981,-11.92651 -0.42937,-14.96586 -0.98817,-1.05784 -1.35736,-1.21323 -2.39118,-1.00647 -1.3753,0.27506 -2.28323,-0.26409 -2.28323,-1.35583 0,-0.9289 -0.8827,-1.37377 -3.40027,-1.71369 -1.11777,-0.15092 -2.18863,-0.47896 -2.37969,-0.72899 -0.19106,-0.25002 -0.62357,-1.45573 -0.96114,-2.67934 l -0.61375,-2.22475 1.87834,0.22246 1.87834,0.22246 0.79908,-1.80645 c 0.79166,-1.78969 1.46492,-2.29328 3.71182,-2.77643 0.60948,-0.13105 1.52023,-0.68292 2.02388,-1.22637 l 0.91573,-0.98809 0.44643,0.83414 c 0.24553,0.45879 1.1917,1.15361 2.10259,1.54407 0.91089,0.39045 1.93799,1.14004 2.28245,1.66574 1.1829,1.80534 1.86437,4.93016 1.60868,7.37649 -0.40421,3.86725 1.76943,7.65657 4.83304,8.42549 1.23655,0.31035 2.982,-0.54383 3.17665,-1.55457 0.1113,-0.57794 -0.10752,-0.67205 -1.33196,-0.57284 -1.37701,0.11156 -1.48675,0.0373 -1.82427,-1.2348 -0.19752,-0.74443 -0.76756,-1.73202 -1.26676,-2.19466 -0.71651,-0.66404 -0.95793,-1.40778 -1.14653,-3.53212 -0.39963,-4.50116 -0.96257,-6.50485 -2.42912,-8.64604 -1.69376,-2.47291 -1.56565,-3.28503 0.46618,-2.95531 1.27591,0.20705 1.56695,0.0828 2.69844,-1.15232 1.18019,-1.28824 1.39332,-1.37032 3.06818,-1.18154 1.53934,0.1735 1.97642,0.0543 3.0193,-0.82318 2.07296,-1.744286 3.89537,-1.2013 3.89537,1.16062 0,0.68675 0.36811,2.44044 0.81803,3.89709 0.90683,2.93597 1.09576,5.72573 0.44118,6.51445 -0.23513,0.28331 -0.48273,1.38285 -0.55022,2.44343 l -0.12271,1.92832 -3.04861,1.0322 c -3.36239,1.13843 -4.00997,1.57921 -3.66001,2.49119 0.33523,0.87359 3.44471,0.79816 5.2585,-0.12756 2.29178,-1.16968 3.62557,-3.09688 4.15065,-5.99731 0.32998,-1.82274 1.10517,-2.25213 4.06579,-2.25213 2.45318,0 3.41365,-0.55279 2.96985,-1.70929 -0.15527,-0.40464 -0.70058,-0.63582 -1.49978,-0.63582 -2.64576,0 -6.27243,-4.60145 -6.74032,-8.55198 -0.48922,-4.13077 0.55059,-4.928712 6.9072,-5.300531 2.25716,-0.132029 5.68687,-0.430742 7.62158,-0.663808 2.9277,-0.352688 3.95756,-0.319606 6.14068,0.197253 3.07582,0.728211 6.15426,2.094908 6.44905,2.8631 0.30084,0.783983 -0.94476,1.989396 -2.37044,2.293976 -1.88203,0.40206 -2.20686,0.85925 -2.20686,3.10609 0,1.69721 -0.1307,2.09041 -0.74859,2.25199 -0.41172,0.10767 -0.80745,0.6047 -0.87941,1.10451 -0.10155,0.70544 -0.47375,0.97964 -1.66362,1.22563 -2.4944,0.5157 -3.38531,1.79224 -1.83127,2.62393 1.03698,0.55498 4.34878,-0.48264 5.6301,-1.76396 0.97066,-0.97066 1.11033,-1.3609 1.63384,-4.56496 0.19657,-1.2031 0.40173,-1.46569 1.14514,-1.46569 0.49812,0 1.56398,-0.52315 2.36857,-1.16256 1.76826,-1.40523 3.31642,-1.73567 6.92299,-1.47762 3.24379,0.23209 4.5835,1.04578 5.3136,3.22725 0.42062,1.2568 0.40056,1.82647 -0.12844,3.64614 -0.78346,2.69505 -0.53518,4.13605 1.32439,7.68654 1.61556,3.08461 5.48201,7.23191 6.74216,7.23191 0.44828,0 1.36006,0.61559 2.02617,1.36797 0.66611,0.75239 1.52646,1.36798 1.91189,1.36798 1.25784,0 2.02522,1.74321 1.75855,3.9948 -0.54883,4.63403 -3.4988,8.18594 -7.22423,8.69832 -1.02594,0.14111 -2.06578,0.38043 -2.31076,0.53183 -0.67735,0.41863 -1.27602,2.2835 -1.27602,3.97483 0,1.77225 -0.38173,2.14242 -1.40811,1.36551 -1.2825,-0.97078 -2.37599,-0.72368 -2.85301,0.64469 -0.94345,2.7064 -0.46217,3.50751 1.62945,2.71228 0.51528,-0.19591 1.86438,-0.63164 2.998,-0.96829 l 2.06112,-0.61208 1.20329,1.35913 c 0.84424,0.95358 1.53643,1.35914 2.31975,1.35914 0.61405,0 1.60554,0.36159 2.20331,0.80354 l 1.08684,0.80354 2.03861,-0.80354 c 3.53792,-1.39452 5.99455,-0.95965 6.50047,1.15071 0.36119,1.50668 -0.60514,2.52966 -2.28287,2.41667 -1.19947,-0.0808 -1.47986,0.0709 -2.00381,1.08414 -0.79083,1.5293 -1.99749,1.79611 -4.64379,1.02681 -1.59303,-0.46311 -2.48765,-1.02073 -3.45986,-2.15654 -0.7212,-0.84255 -1.74516,-1.64007 -2.27549,-1.77225 -0.53032,-0.13218 -3.2507,-0.29077 -6.04528,-0.35242 -3.66103,-0.0808 -5.47656,-0.29028 -6.49625,-0.74968 -1.41035,-0.63539 -1.41874,-0.63361 -2.44583,0.51912 -0.81656,0.91644 -1.35474,1.1567 -2.59101,1.1567 -1.52201,0 -3.12379,-1.00766 -3.12379,-1.96514 0,-0.25809 -0.8734,-0.31501 -2.44281,-0.15919 -1.46005,0.14497 -2.89148,0.0684 -3.55803,-0.19022 -0.61337,-0.23801 -2.89748,-0.70045 -5.07579,-1.02763 -3.60252,-0.54109 -5.01767,-1.01801 -4.51431,-1.52137 0.10251,-0.10251 2.02549,-0.3614 4.2733,-0.57532 2.2478,-0.21391 5.62854,-0.83651 7.51276,-1.38354 4.53348,-1.31616 5.0537,-1.28539 6.31922,0.37379 1.39974,1.83516 2.8946,2.54041 5.38097,2.53866 2.22275,-0.002 4.6119,-1.0949 4.6119,-2.1105 0,-2.03367 -1.10912,-2.29963 -2.60212,-0.62399 -1.325,1.48708 -2.1509,1.47981 -3.42143,-0.0301 -1.36392,-1.62092 -1.59806,-2.64959 -1.59787,-7.01993 1.5e-4,-3.38728 0.11155,-3.95254 1.21938,-6.18768 1.01415,-2.04612 1.12024,-2.49784 0.6307,-2.68569 -1.48394,-0.56944 -3.20502,1.79994 -3.57273,4.91853 -0.15508,1.31519 -0.35861,2.44784 -0.45228,2.51701 -0.0937,0.0692 -0.64674,0.42359 -1.22901,0.7876 -0.64752,0.4048 -1.24345,1.27856 -1.53446,2.24986 -0.584,1.94922 -1.48379,2.47239 -3.80273,2.21101 -2.53887,-0.28617 -4.10576,-2.04504 -3.85788,-4.33056 0.0963,-0.88825 0.41385,-2.18417 0.70559,-2.87981 0.6615,-1.57731 0.12494,-2.37577 -1.14116,-1.69818 -1.54007,0.82423 -2.13473,5.47515 -1.03619,8.10432 0.67548,1.61665 0.76014,3.10836 0.1962,3.45689 -0.21455,0.1326 -0.99635,-0.42068 -1.73733,-1.22951 -1.28444,-1.40204 -1.38157,-1.43954 -2.08351,-0.80429 -0.96755,0.87562 -3.31594,0.8444 -7.49088,-0.0996 -3.86964,-0.87494 -4.88603,-0.62948 -4.44984,1.07466 0.51641,2.01757 0.37834,2.61468 -0.63774,2.75805 -1.65545,0.23359 -3.80305,-0.67428 -5.10632,-2.15863 -1.1199,-1.27549 -1.22844,-1.60744 -1.02085,-3.12197 0.25636,-1.87039 -0.0129,-2.05448 -1.54079,-1.05338 -0.98357,0.64447 -2.59548,0.62155 -7.49466,-0.10655 -1.50712,-0.22398 -1.66111,-0.17047 -1.66111,0.57728 0,0.93398 1.19998,1.84089 2.93137,2.21545 2.13754,0.46243 3.3215,1.05884 3.38117,1.70323 0.10794,1.16575 -0.078,2.96171 -0.50124,4.84104 -0.62142,2.75941 -1.66996,3.41711 -5.44772,3.41711 -1.67675,0 -3.4998,0.17153 -4.05122,0.38118 -1.22838,0.46703 -1.30074,0.0124 -0.27107,-1.70302 1.45672,-2.42694 1.39853,-3.19513 -0.3889,-5.13427 -0.89475,-0.97068 -2.08536,-1.87548 -2.64582,-2.01066 -0.56045,-0.13519 -1.4792,-0.78675 -2.04165,-1.44793 -0.9313,-1.09475 -1.1146,-1.16024 -2.05197,-0.73315 -1.79103,0.81605 -1.30216,1.81368 1.99978,4.08086 2.05363,1.41007 3.06998,2.36692 3.15606,2.97129 0.0856,0.601 -0.56803,1.8095 -2.00624,3.70926 -1.17326,1.5498 -2.32812,3.1991 -2.56635,3.66512 -0.75086,1.46882 -7.73332,2.63927 -10.08702,1.69086 l 0,1e-5 z"
     id="path3775"
     inkscape:connector-curvature="0"
     transform="scale(0.8,0.8)" />
  <path
     style="fill:#046535;fill-opacity:1"
     d="m 324.93339,147.09187 c -3.81621,-1.65123 -5.80942,-1.8725 -7.25305,-0.80518 -1.3981,1.03366 -1.63294,1.03955 -2.24697,0.0563 -0.33335,-0.53377 -0.91148,-0.7817 -1.82278,-0.7817 -0.97414,0 -1.66509,-0.3305 -2.55825,-1.22365 -2.05407,-2.05408 -1.26205,-3.75618 2.06603,-4.44 1.43517,-0.29488 4.46911,-3.111 5.17706,-4.80537 0.30639,-0.7333 0.99854,-1.68052 1.5381,-2.10495 1.13699,-0.89435 1.2425,-1.73244 0.34321,-2.72615 -0.53824,-0.59475 -0.56302,-0.88538 -0.1587,-1.8615 0.59315,-1.43199 0.27143,-3.02336 -0.91101,-4.50628 -0.7201,-0.90309 -1.19031,-1.12198 -2.31907,-1.07955 -1.17854,0.0443 -1.52903,-0.13842 -2.09132,-1.0903 -0.37152,-0.62894 -1.2136,-1.34139 -1.87128,-1.58322 -2.0716,-0.76174 -2.36503,-1.01238 -2.49756,-2.13332 -0.0903,-0.76372 -1.03242,-1.95486 -3.1268,-3.95325 l -2.99757,-2.86019 1.5634,-1.34879 1.5634,-1.34879 -0.93935,-1.73735 c -0.72361,-1.33833 -0.88396,-2.07866 -0.69817,-3.2235 0.46325,-2.8547 -0.0347,-3.02776 8.74465,3.0395 3.04905,2.10716 6.3224,4.17564 7.27413,4.59664 1.0104,0.44695 2.11891,1.33933 2.66413,2.14471 0.62427,0.92215 1.41439,1.51058 2.38405,1.77549 1.18933,0.32491 1.51754,0.6396 1.82374,1.74858 0.20538,0.74379 0.97568,1.92608 1.71179,2.6273 1.07539,1.02441 1.50828,1.9278 2.20294,4.59718 1.22605,4.71141 1.58484,5.50442 3.14834,6.9587 1.29167,1.20143 1.38555,1.44673 1.34802,3.52189 -0.0686,3.79424 -4.26394,12.2239 -6.61728,13.29616 -1.49128,0.67947 -2.44484,0.5482 -5.44383,-0.74943 l 0,0 z"
     id="path3777"
     inkscape:connector-curvature="0"
     transform="scale(0.8,0.8)" />
  <path
     style="fill:#9c9e69;fill-opacity:1"
     d="m 252.84473,177.66771 c 0.68142,-1.2135 1.75919,-2.86759 2.39504,-3.67576 2.50994,-3.19017 5.32721,-11.87779 6.51994,-20.10554 0.41134,-2.83757 0.87578,-5.36614 1.03208,-5.61904 0.34943,-0.56539 4.35428,-0.2721 5.63359,0.41257 0.71053,0.38026 0.82989,0.69454 0.64677,1.70293 -0.12351,0.68014 -0.49729,4.13868 -0.83061,7.68564 -0.82699,8.80008 -1.24082,11.15413 -2.42505,13.79458 -0.66954,1.49288 -0.88389,2.39622 -0.62906,2.65106 1.21635,1.21634 3.28094,-2.12899 3.99852,-6.47896 0.24823,-1.50477 0.79936,-5.11036 1.22473,-8.01243 1.31494,-8.97101 2.38455,-10.86652 5.84091,-10.35096 2.49013,0.37143 4.14133,1.1385 4.88109,2.26751 0.35006,0.53426 0.97651,2.39504 1.3921,4.13506 1.00033,4.18824 2.76113,8.62649 6.55252,16.51618 l 3.12818,6.5096 -4.7494,0.22296 c -2.61217,0.12263 -11.74711,0.29676 -20.29986,0.38696 l -15.55044,0.164 1.23895,-2.20636 z"
     id="path3779"
     inkscape:connector-curvature="0"
     transform="scale(0.8,0.8)" />
</svg>
