<?xml version="1.0" encoding="UTF-8" standalone="no"?>
<svg
   xmlns:dc="http://purl.org/dc/elements/1.1/"
   xmlns:cc="http://creativecommons.org/ns#"
   xmlns:rdf="http://www.w3.org/1999/02/22-rdf-syntax-ns#"
   xmlns:svg="http://www.w3.org/2000/svg"
   xmlns="http://www.w3.org/2000/svg"
   xmlns:sodipodi="http://sodipodi.sourceforge.net/DTD/sodipodi-0.dtd"
   xmlns:inkscape="http://www.inkscape.org/namespaces/inkscape"
   id="svg"
   version="1.1"
   width="400"
   height="266.6666666666667"
   viewBox="0, 0, 400,266.6666666666667"
   sodipodi:docname="iug.svg"
   inkscape:version="0.92.4 (5da689c313, 2019-01-14)">
  <metadata
     id="metadata11">
    <rdf:RDF>
      <cc:Work
         rdf:about="">
        <dc:format>image/svg+xml</dc:format>
        <dc:type
           rdf:resource="http://purl.org/dc/dcmitype/StillImage" />
      </cc:Work>
    </rdf:RDF>
  </metadata>
  <defs
     id="defs9" />
  <sodipodi:namedview
     pagecolor="#ffffff"
     bordercolor="#666666"
     borderopacity="1"
     objecttolerance="10"
     gridtolerance="10"
     guidetolerance="10"
     inkscape:pageopacity="0"
     inkscape:pageshadow="2"
     inkscape:window-width="1920"
     inkscape:window-height="1017"
     id="namedview7"
     showgrid="false"
     inkscape:zoom="2.5031581"
     inkscape:cx="144.20284"
     inkscape:cy="150.13535"
     inkscape:window-x="-8"
     inkscape:window-y="-8"
     inkscape:window-maximized="1"
     inkscape:current-layer="svgg" />
  <g
     id="svgg">
    <path
       id="path0"
       d="M0.000 133.333 L 0.000 266.667 200.000 266.667 L 400.000 266.667 400.000 133.333 L 400.000 0.000 200.000 0.000 L 0.000 0.000 0.000 133.333 M314.825 52.543 L 314.641 55.219 315.854 55.743 C 316.521 56.031,317.637 56.522,318.333 56.834 L 319.600 57.402 317.110 58.014 C 314.092 58.755,314.436 58.371,314.102 61.365 C 313.948 62.741,313.786 63.903,313.741 63.948 C 313.697 63.992,313.086 63.057,312.385 61.869 C 310.826 59.230,311.234 59.425,308.533 60.021 C 307.287 60.296,306.109 60.523,305.916 60.527 C 305.724 60.530,306.324 59.688,307.250 58.655 C 309.264 56.409,309.240 56.464,308.599 55.537 C 308.318 55.132,307.696 54.103,307.216 53.251 L 306.343 51.702 307.372 52.151 C 311.559 53.976,311.360 53.990,313.244 51.751 C 314.100 50.734,314.847 49.894,314.905 49.885 C 314.962 49.875,314.927 51.071,314.825 52.543 M342.608 54.672 C 343.991 55.284,343.868 55.574,342.098 55.873 C 341.046 56.050,340.810 56.450,340.804 58.067 C 340.799 59.229,340.393 59.160,339.743 57.885 C 339.032 56.491,338.906 56.442,337.291 56.921 C 336.528 57.148,335.856 57.333,335.798 57.333 C 335.739 57.333,336.176 56.767,336.768 56.075 L 337.843 54.816 337.081 53.408 C 336.661 52.634,336.371 52.000,336.436 52.000 C 336.501 52.000,337.025 52.240,337.600 52.533 C 339.042 53.269,339.310 53.218,340.318 52.014 L 341.200 50.961 341.279 52.540 L 341.358 54.119 342.608 54.672 M254.559 62.067 C 254.459 63.203,254.144 65.993,253.859 68.267 C 253.573 70.540,253.283 72.893,253.213 73.496 L 253.087 74.592 255.277 75.611 C 256.481 76.171,258.607 77.163,260.000 77.815 C 261.393 78.467,263.422 79.407,264.508 79.904 C 265.593 80.401,266.433 80.850,266.374 80.903 C 266.315 80.956,263.087 81.631,259.200 82.403 C 255.313 83.176,252.112 83.823,252.085 83.841 C 252.023 83.884,250.756 94.202,250.514 96.624 C 250.287 98.905,250.386 99.007,247.062 93.067 C 245.625 90.500,244.114 87.800,243.704 87.067 C 243.200 86.167,242.801 85.750,242.478 85.785 C 242.215 85.814,239.300 86.373,236.000 87.028 C 228.706 88.474,228.964 88.432,228.800 88.213 C 228.727 88.116,229.874 86.738,231.350 85.151 C 232.826 83.565,235.017 81.202,236.218 79.900 L 238.403 77.534 237.895 76.700 C 236.103 73.759,231.284 64.800,231.493 64.800 C 231.759 64.800,235.189 66.342,243.193 70.061 L 244.652 70.739 246.733 68.503 C 247.877 67.273,250.101 64.861,251.673 63.142 C 253.246 61.424,254.580 60.014,254.637 60.009 C 254.694 60.004,254.659 60.930,254.559 62.067 M128.838 66.945 C 147.599 68.839,165.052 78.873,176.049 94.089 C 178.545 97.542,178.521 97.649,175.836 95.047 C 148.236 68.303,101.612 79.231,88.719 115.467 C 78.606 143.889,95.150 176.606,123.503 184.254 C 124.477 184.517,125.394 184.806,125.541 184.897 C 125.688 184.988,127.532 185.353,129.638 185.708 C 146.817 188.605,163.427 183.542,175.842 171.624 C 178.840 168.746,178.825 169.003,175.755 173.057 C 161.340 192.095,138.765 202.073,115.428 199.722 C 111.158 199.291,103.026 197.493,100.417 196.402 C 99.967 196.214,98.580 195.666,97.333 195.185 C 85.296 190.532,71.957 179.473,65.990 169.200 C 65.564 168.467,64.932 167.447,64.586 166.933 C 55.210 153.025,52.859 127.259,59.461 110.771 C 59.904 109.665,60.267 108.656,60.267 108.530 C 60.267 107.128,65.683 97.655,69.150 92.992 C 73.005 87.809,81.544 79.834,85.737 77.503 C 86.175 77.259,87.313 76.567,88.267 75.964 C 99.113 69.110,115.092 65.558,128.838 66.945 M289.735 77.091 C 292.676 79.910,292.848 80.030,293.410 79.666 C 294.849 78.734,300.310 75.954,300.442 76.086 C 300.522 76.167,299.796 77.893,298.827 79.923 C 297.859 81.953,297.067 83.715,297.067 83.838 C 297.067 83.961,298.451 85.383,300.143 86.999 C 301.835 88.615,303.164 89.992,303.096 90.059 C 302.991 90.164,297.972 89.600,295.292 89.183 L 294.450 89.052 292.512 93.057 C 291.445 95.260,290.530 97.019,290.478 96.967 C 290.394 96.883,289.398 91.866,288.953 89.291 C 288.790 88.344,288.744 88.309,287.392 88.138 C 283.039 87.584,280.370 87.134,280.147 86.915 C 279.987 86.759,280.008 86.667,280.203 86.667 C 280.521 86.667,287.160 83.068,287.554 82.682 C 287.675 82.563,287.528 81.221,287.226 79.699 C 285.904 73.024,285.707 73.230,289.735 77.091 M211.608 108.800 C 216.725 115.835,217.049 116.285,219.067 119.154 C 220.640 121.392,220.284 121.331,224.206 120.025 C 225.926 119.452,230.573 117.943,234.533 116.673 C 238.493 115.402,242.019 114.247,242.368 114.105 C 243.693 113.566,243.358 114.216,239.836 119.026 C 239.068 120.075,238.222 121.233,237.955 121.600 C 237.689 121.967,235.700 124.696,233.536 127.664 C 231.371 130.633,229.600 133.188,229.600 133.342 C 229.600 133.581,234.751 140.793,239.593 147.333 C 242.010 150.598,243.302 152.520,243.170 152.652 C 243.045 152.777,241.663 152.344,227.540 147.749 C 223.841 146.545,220.703 145.629,220.567 145.713 C 220.431 145.796,217.218 150.131,213.427 155.345 L 206.533 164.824 206.464 152.864 L 206.395 140.903 205.131 140.470 C 204.435 140.231,199.907 138.756,195.067 137.191 C 184.486 133.771,183.733 133.515,183.733 133.333 C 183.733 133.254,186.163 132.396,189.133 131.425 C 192.103 130.454,197.203 128.788,200.467 127.723 L 206.400 125.786 206.400 113.773 C 206.400 107.099,206.501 101.873,206.628 102.013 C 206.754 102.153,208.995 105.207,211.608 108.800 "
       stroke="none"
       fill-rule="evenodd"
       fill="#e40c14" />
    <path
       style="fill:#fbf8eb;fill-rule:evenodd;stroke:none"
       d="m 122.19745,66.455505 c -1.33994,0.0065 -2.67383,0.05814 -4.00195,0.15821 -28.412001,2.139 -52.451331,21.82825 -59.861331,49.031235 -12.638,46.39 26.88837,90.54508 74.484371,83.20508 2.384,-0.367 4.53907,-0.77334 4.78907,-0.90234 0.249,-0.128 1.36642,-0.43373 2.48242,-0.67774 12.316,-2.699 27.16465,-12.78087 35.59765,-24.17187 1.778,-2.401 2.76278,-3.88825 1.92578,-2.90625 -11.585,13.593 -35.72975,19.80141 -54.21875,13.94141 -38.316001,-12.145 -50.217571,-60.36032 -21.89257,-88.695315 4.751,-4.753 15.02771,-11.64511 17.38671,-11.66211 0.13201,-10e-4 0.55918,-0.16804 0.95118,-0.37304 3.263,-1.702 11.20711,-3.32716 17.28711,-3.53516 14.718,-0.504 28.05476,4.48236 38.63476,14.44336 2.595,2.444 2.58127,2.38561 -0.42773,-1.65039 -11.94656,-16.0275 -33.0377,-26.30249 -53.13672,-26.20508 z"
       id="path1"
       inkscape:connector-curvature="0" />
    <path
       id="path2"
       d="M313.244 51.751 C 311.360 53.990,311.559 53.976,307.372 52.151 L 306.343 51.702 307.216 53.251 C 307.696 54.103,308.318 55.132,308.599 55.537 C 309.240 56.464,309.264 56.409,307.250 58.655 C 306.324 59.688,305.724 60.530,305.916 60.527 C 306.109 60.523,307.287 60.296,308.533 60.021 C 311.234 59.425,310.826 59.230,312.385 61.869 C 313.086 63.057,313.697 63.992,313.741 63.948 C 313.786 63.903,313.948 62.741,314.102 61.365 C 314.436 58.371,314.092 58.755,317.110 58.014 L 319.600 57.402 318.333 56.834 C 317.637 56.522,316.521 56.031,315.854 55.743 L 314.641 55.219 314.825 52.543 C 314.927 51.071,314.962 49.875,314.905 49.885 C 314.847 49.894,314.100 50.734,313.244 51.751 M340.318 52.014 C 339.310 53.218,339.042 53.269,337.600 52.533 C 337.025 52.240,336.501 52.000,336.436 52.000 C 336.371 52.000,336.661 52.634,337.081 53.408 L 337.843 54.816 336.768 56.075 C 336.176 56.767,335.739 57.333,335.798 57.333 C 335.856 57.333,336.528 57.148,337.291 56.921 C 338.906 56.442,339.032 56.491,339.743 57.885 C 340.393 59.160,340.799 59.229,340.804 58.067 C 340.810 56.450,341.046 56.050,342.098 55.873 C 343.868 55.574,343.991 55.284,342.608 54.672 L 341.358 54.119 341.279 52.540 L 341.200 50.961 340.318 52.014 M251.673 63.142 C 250.101 64.861,247.877 67.273,246.733 68.503 L 244.652 70.739 243.193 70.061 C 235.189 66.342,231.759 64.800,231.493 64.800 C 231.284 64.800,236.103 73.759,237.895 76.700 L 238.403 77.534 236.218 79.900 C 235.017 81.202,232.826 83.565,231.350 85.151 C 229.874 86.738,228.727 88.116,228.800 88.213 C 228.964 88.432,228.706 88.474,236.000 87.028 C 239.300 86.373,242.215 85.814,242.478 85.785 C 242.801 85.750,243.200 86.167,243.704 87.067 C 244.114 87.800,245.625 90.500,247.062 93.067 C 250.386 99.007,250.287 98.905,250.514 96.624 C 250.756 94.202,252.023 83.884,252.085 83.841 C 252.112 83.823,255.313 83.176,259.200 82.403 C 263.087 81.631,266.315 80.956,266.374 80.903 C 266.433 80.850,265.593 80.401,264.508 79.904 C 263.422 79.407,261.393 78.467,260.000 77.815 C 258.607 77.163,256.481 76.171,255.277 75.611 L 253.087 74.592 253.213 73.496 C 253.283 72.893,253.573 70.540,253.859 68.267 C 254.455 63.519,254.787 59.996,254.637 60.009 C 254.580 60.014,253.246 61.424,251.673 63.142 M117.803 66.855 C 118.135 66.919,118.615 66.917,118.870 66.850 C 119.125 66.783,118.853 66.731,118.267 66.734 C 117.680 66.737,117.471 66.791,117.803 66.855 M125.803 66.855 C 126.135 66.919,126.615 66.917,126.870 66.850 C 127.125 66.783,126.853 66.731,126.267 66.734 C 125.680 66.737,125.471 66.791,125.803 66.855 M112.470 67.389 C 112.801 67.452,113.281 67.450,113.536 67.383 C 113.791 67.316,113.520 67.264,112.933 67.267 C 112.347 67.270,112.138 67.325,112.470 67.389 M131.000 67.384 C 131.257 67.451,131.677 67.451,131.933 67.384 C 132.190 67.317,131.980 67.262,131.467 67.262 C 130.953 67.262,130.743 67.317,131.000 67.384 M137.200 68.533 C 137.493 68.659,137.913 68.763,138.133 68.763 C 138.385 68.763,138.336 68.678,138.000 68.533 C 137.707 68.407,137.287 68.304,137.067 68.304 C 136.815 68.304,136.864 68.389,137.200 68.533 M101.200 70.009 C 100.533 70.331,100.511 70.368,101.067 70.232 C 101.822 70.047,102.672 69.614,102.267 69.620 C 102.120 69.622,101.640 69.797,101.200 70.009 M286.442 75.533 C 286.572 76.303,286.925 78.178,287.226 79.699 C 287.528 81.221,287.675 82.563,287.554 82.682 C 287.160 83.068,280.521 86.667,280.203 86.667 C 280.008 86.667,279.987 86.759,280.147 86.915 C 280.370 87.134,283.039 87.584,287.392 88.138 C 288.744 88.309,288.790 88.344,288.953 89.291 C 289.398 91.866,290.394 96.883,290.478 96.967 C 290.530 97.019,291.445 95.260,292.512 93.057 L 294.450 89.052 295.292 89.183 C 297.972 89.600,302.991 90.164,303.096 90.059 C 303.164 89.992,301.835 88.615,300.143 86.999 C 298.451 85.383,297.067 83.961,297.067 83.838 C 297.067 83.715,297.859 81.953,298.827 79.923 C 299.796 77.893,300.522 76.167,300.442 76.086 C 300.310 75.954,294.849 78.734,293.410 79.666 C 292.848 80.030,292.676 79.910,289.735 77.091 C 286.186 73.689,286.126 73.661,286.442 75.533 M135.270 80.191 C 135.676 80.253,136.276 80.251,136.604 80.188 C 136.932 80.124,136.600 80.074,135.867 80.076 C 135.133 80.078,134.865 80.130,135.270 80.191 M141.133 80.191 C 141.537 80.252,142.197 80.252,142.600 80.191 C 143.003 80.130,142.673 80.080,141.867 80.080 C 141.060 80.080,140.730 80.130,141.133 80.191 M146.467 80.717 C 146.723 80.784,147.143 80.784,147.400 80.717 C 147.657 80.650,147.447 80.595,146.933 80.595 C 146.420 80.595,146.210 80.650,146.467 80.717 M124.304 81.906 C 123.811 82.048,123.460 82.215,123.523 82.279 C 123.586 82.342,124.170 82.227,124.819 82.023 C 126.145 81.607,125.697 81.505,124.304 81.906 M78.652 82.867 L 77.733 83.867 78.733 82.948 C 79.283 82.442,79.733 81.992,79.733 81.948 C 79.733 81.744,79.508 81.936,78.652 82.867 M120.333 83.208 C 119.440 83.567,119.607 83.750,120.533 83.427 C 120.973 83.273,121.333 83.100,121.333 83.041 C 121.333 82.882,121.009 82.937,120.333 83.208 M166.922 84.067 C 167.576 84.763,168.146 85.333,168.189 85.333 C 168.389 85.333,168.177 85.094,167.000 83.989 L 165.733 82.800 166.922 84.067 M75.058 86.200 L 73.467 87.867 75.133 86.275 C 76.682 84.797,76.922 84.533,76.725 84.533 C 76.684 84.533,75.934 85.283,75.058 86.200 M170.400 87.550 C 170.400 87.596,170.790 87.986,171.267 88.417 L 172.133 89.200 171.350 88.333 C 170.620 87.525,170.400 87.344,170.400 87.550 M71.733 89.733 C 71.086 90.393,70.616 90.933,70.689 90.933 C 70.762 90.933,71.352 90.393,72.000 89.733 C 72.648 89.073,73.118 88.533,73.044 88.533 C 72.971 88.533,72.381 89.073,71.733 89.733 M104.117 92.867 L 103.333 93.733 104.200 92.950 C 105.008 92.220,105.189 92.000,104.983 92.000 C 104.937 92.000,104.547 92.390,104.117 92.867 M173.867 93.150 C 173.867 93.196,174.257 93.586,174.733 94.017 L 175.600 94.800 174.817 93.933 C 174.087 93.125,173.867 92.944,173.867 93.150 M100.921 95.800 L 99.867 96.933 101.000 95.879 C 102.054 94.899,102.256 94.667,102.054 94.667 C 102.011 94.667,101.501 95.177,100.921 95.800 M98.250 98.733 L 97.467 99.600 98.333 98.817 C 99.141 98.087,99.323 97.867,99.117 97.867 C 99.071 97.867,98.681 98.257,98.250 98.733 M96.533 100.800 C 96.220 101.240,96.024 101.600,96.097 101.600 C 96.170 101.600,96.487 101.240,96.800 100.800 C 97.113 100.360,97.310 100.000,97.236 100.000 C 97.163 100.000,96.847 100.360,96.533 100.800 M63.333 101.867 C 63.106 102.307,62.980 102.667,63.053 102.667 C 63.126 102.667,63.372 102.307,63.600 101.867 C 63.828 101.427,63.954 101.067,63.880 101.067 C 63.807 101.067,63.561 101.427,63.333 101.867 M206.400 102.347 C 206.400 102.669,206.517 102.933,206.660 102.933 C 206.803 102.933,207.109 103.300,207.341 103.748 C 207.572 104.195,207.995 104.825,208.281 105.148 C 209.321 106.321,209.535 106.609,210.030 107.496 C 210.307 107.993,210.743 108.557,211.000 108.748 C 211.257 108.940,211.467 109.274,211.467 109.490 C 211.467 109.706,211.647 109.953,211.868 110.037 C 212.089 110.122,212.473 110.628,212.722 111.162 C 212.972 111.696,213.391 112.290,213.654 112.482 C 213.918 112.673,214.133 112.999,214.133 113.206 C 214.133 113.412,214.373 113.710,214.667 113.867 C 214.960 114.024,215.200 114.298,215.201 114.476 C 215.201 114.654,215.562 115.220,216.002 115.733 C 216.442 116.247,216.870 116.877,216.953 117.133 C 217.035 117.390,217.211 117.600,217.344 117.600 C 217.477 117.600,217.776 117.966,218.007 118.414 C 218.239 118.862,218.632 119.454,218.881 119.731 C 219.130 120.007,219.573 120.539,219.867 120.914 C 220.371 121.557,221.600 121.875,221.600 121.362 C 221.600 121.231,222.470 120.913,223.533 120.655 C 224.597 120.397,225.527 120.110,225.600 120.018 C 225.673 119.926,226.633 119.625,227.733 119.348 C 228.833 119.071,229.793 118.764,229.867 118.665 C 229.940 118.566,230.840 118.263,231.867 117.992 C 232.893 117.721,233.793 117.421,233.867 117.326 C 233.940 117.230,234.840 116.930,235.867 116.659 C 236.893 116.388,237.793 116.090,237.867 115.996 C 237.940 115.902,238.900 115.611,240.000 115.348 C 241.100 115.085,242.088 114.734,242.196 114.568 C 242.341 114.345,242.393 114.345,242.396 114.567 C 242.398 114.733,242.220 115.017,242.000 115.200 C 241.780 115.383,241.600 115.637,241.600 115.766 C 241.600 115.895,241.417 116.210,241.193 116.467 C 239.894 117.958,239.467 118.495,239.466 118.639 C 239.466 118.728,239.166 119.149,238.800 119.575 C 238.433 120.001,238.133 120.428,238.133 120.525 C 238.133 120.621,237.914 120.935,237.645 121.223 C 237.377 121.511,236.930 122.104,236.652 122.540 C 236.374 122.976,235.993 123.429,235.806 123.547 C 235.620 123.664,235.467 123.927,235.467 124.131 C 235.467 124.336,235.257 124.662,235.000 124.856 C 234.533 125.208,234.020 125.915,233.685 126.667 C 233.587 126.887,233.348 127.163,233.153 127.280 C 232.959 127.397,232.800 127.660,232.800 127.865 C 232.800 128.069,232.590 128.395,232.333 128.589 C 231.878 128.933,231.377 129.615,231.019 130.380 C 230.851 130.738,230.669 130.969,229.533 132.267 C 228.920 132.968,228.943 133.727,229.600 134.467 C 230.611 135.604,231.313 136.585,231.651 137.333 C 231.750 137.553,232.049 137.890,232.316 138.082 C 232.582 138.273,232.800 138.597,232.800 138.802 C 232.800 139.006,232.950 139.269,233.133 139.387 C 233.471 139.603,233.987 140.335,234.317 141.067 C 234.417 141.287,234.716 141.623,234.982 141.815 C 235.249 142.007,235.467 142.331,235.467 142.535 C 235.467 142.740,235.620 143.003,235.806 143.120 C 235.993 143.237,236.374 143.690,236.652 144.126 C 236.930 144.563,237.377 145.155,237.645 145.443 C 237.914 145.732,238.133 146.046,238.133 146.142 C 238.133 146.238,238.433 146.666,238.800 147.092 C 239.166 147.518,239.466 147.939,239.466 148.028 C 239.467 148.172,239.894 148.709,241.193 150.200 C 241.417 150.457,241.600 150.772,241.600 150.901 C 241.600 151.029,241.780 151.284,242.000 151.467 C 242.220 151.649,242.398 151.934,242.396 152.099 C 242.393 152.322,242.341 152.322,242.196 152.099 C 242.088 151.933,241.100 151.582,240.000 151.319 C 238.900 151.056,237.940 150.764,237.867 150.671 C 237.793 150.577,236.893 150.279,235.867 150.008 C 234.840 149.737,233.940 149.437,233.867 149.341 C 233.793 149.245,232.893 148.945,231.867 148.674 C 230.840 148.403,229.940 148.101,229.867 148.002 C 229.793 147.903,228.833 147.596,227.733 147.319 C 226.633 147.042,225.673 146.740,225.600 146.648 C 225.527 146.556,224.597 146.270,223.533 146.012 C 222.470 145.754,221.600 145.435,221.600 145.305 C 221.600 144.791,220.371 145.110,219.867 145.753 C 219.573 146.127,219.130 146.660,218.881 146.936 C 218.632 147.212,218.239 147.805,218.007 148.252 C 217.776 148.700,217.477 149.067,217.344 149.067 C 217.211 149.067,217.035 149.277,216.953 149.533 C 216.870 149.790,216.442 150.420,216.002 150.933 C 215.562 151.447,215.201 152.012,215.201 152.191 C 215.200 152.369,214.960 152.643,214.667 152.800 C 214.373 152.957,214.133 153.254,214.133 153.461 C 214.133 153.667,213.918 153.993,213.654 154.185 C 213.391 154.377,212.972 154.970,212.722 155.504 C 212.473 156.038,212.089 156.545,211.868 156.629 C 211.647 156.714,211.467 156.960,211.467 157.177 C 211.467 157.393,211.257 157.727,211.000 157.918 C 210.743 158.110,210.307 158.673,210.030 159.170 C 209.753 159.667,209.360 160.267,209.156 160.504 C 207.722 162.171,207.467 162.503,207.467 162.706 C 207.467 162.831,207.219 163.181,206.917 163.483 C 206.615 163.785,206.405 164.212,206.450 164.432 C 206.496 164.651,209.635 160.563,213.427 155.348 C 217.218 150.132,220.431 145.796,220.567 145.713 C 220.703 145.629,223.841 146.545,227.540 147.749 C 241.663 152.344,243.045 152.777,243.170 152.652 C 243.302 152.520,242.010 150.598,239.593 147.333 C 234.751 140.793,229.600 133.581,229.600 133.342 C 229.600 133.188,231.371 130.633,233.536 127.664 C 235.700 124.696,237.689 121.967,237.955 121.600 C 238.222 121.233,239.068 120.075,239.836 119.026 C 243.358 114.216,243.693 113.566,242.368 114.105 C 242.019 114.247,238.493 115.402,234.533 116.673 C 230.573 117.943,225.926 119.452,224.206 120.025 C 220.284 121.331,220.640 121.392,219.067 119.154 C 217.049 116.285,216.725 115.835,211.608 108.800 C 206.067 101.182,206.400 101.594,206.400 102.347 M59.230 111.230 C 59.065 111.701,58.978 112.133,59.035 112.190 C 59.092 112.247,59.273 111.908,59.437 111.437 C 59.601 110.966,59.689 110.534,59.632 110.476 C 59.575 110.419,59.394 110.758,59.230 111.230 M89.910 111.878 C 89.463 112.859,89.548 113.068,90.032 112.176 C 90.257 111.760,90.392 111.370,90.331 111.309 C 90.270 111.248,90.080 111.504,89.910 111.878 M87.200 119.733 C 87.034 120.350,86.950 120.906,87.014 120.970 C 87.078 121.034,87.260 120.575,87.418 119.952 C 87.577 119.328,87.660 118.771,87.604 118.715 C 87.548 118.659,87.366 119.117,87.200 119.733 M203.200 126.800 C 201.807 127.279,196.857 128.910,192.200 130.426 C 187.543 131.942,183.733 133.248,183.733 133.328 C 183.733 133.516,184.475 133.768,195.067 137.188 C 199.907 138.750,204.351 140.202,204.942 140.414 C 206.211 140.869,206.490 140.894,206.267 140.533 C 206.176 140.387,205.869 140.267,205.584 140.267 C 205.300 140.267,205.067 140.157,205.067 140.023 C 205.067 139.889,204.167 139.567,203.067 139.307 C 201.967 139.048,201.067 138.748,201.067 138.640 C 201.067 138.533,200.107 138.237,198.933 137.984 C 197.760 137.730,196.800 137.443,196.800 137.346 C 196.800 137.249,195.930 136.946,194.867 136.674 C 193.803 136.401,192.873 136.097,192.800 135.998 C 192.727 135.899,191.827 135.597,190.800 135.326 C 189.773 135.055,188.873 134.754,188.800 134.658 C 188.727 134.563,187.737 134.267,186.600 134.002 C 185.463 133.737,184.533 133.436,184.533 133.333 C 184.533 133.230,185.463 132.929,186.600 132.664 C 187.737 132.399,188.727 132.104,188.800 132.008 C 188.873 131.912,189.773 131.612,190.800 131.341 C 191.827 131.070,192.727 130.767,192.800 130.669 C 192.873 130.570,193.803 130.266,194.867 129.993 C 195.930 129.720,196.800 129.418,196.800 129.321 C 196.800 129.223,197.760 128.936,198.933 128.683 C 200.107 128.429,201.067 128.134,201.067 128.026 C 201.067 127.919,201.967 127.619,203.067 127.359 C 204.167 127.100,205.067 126.778,205.067 126.644 C 205.067 126.510,205.300 126.400,205.584 126.400 C 205.869 126.400,206.176 126.280,206.267 126.133 C 206.516 125.730,205.971 125.849,203.200 126.800 M85.676 128.933 C 85.678 129.667,85.730 129.935,85.791 129.530 C 85.853 129.124,85.851 128.524,85.788 128.196 C 85.724 127.868,85.674 128.200,85.676 128.933 M55.571 133.333 C 55.571 135.313,55.613 136.123,55.664 135.133 C 55.716 134.143,55.716 132.523,55.664 131.533 C 55.613 130.543,55.571 131.353,55.571 133.333 M85.676 137.733 C 85.678 138.467,85.730 138.735,85.791 138.330 C 85.853 137.924,85.851 137.324,85.788 136.996 C 85.724 136.668,85.674 137.000,85.676 137.733 M87.096 146.400 C 87.187 146.913,87.369 147.513,87.501 147.733 C 87.785 148.207,87.512 146.825,87.159 146.000 C 87.005 145.640,86.984 145.770,87.096 146.400 M89.619 154.000 C 89.619 154.147,89.790 154.567,90.000 154.933 C 90.210 155.300,90.381 155.480,90.381 155.333 C 90.381 155.187,90.210 154.767,90.000 154.400 C 89.790 154.033,89.619 153.853,89.619 154.000 M59.086 154.933 C 59.184 155.300,59.376 155.780,59.512 156.000 C 59.683 156.278,59.704 156.197,59.580 155.733 C 59.482 155.367,59.291 154.887,59.155 154.667 C 58.983 154.389,58.962 154.470,59.086 154.933 M63.333 164.800 C 63.561 165.240,63.807 165.600,63.880 165.600 C 63.954 165.600,63.828 165.240,63.600 164.800 C 63.372 164.360,63.126 164.000,63.053 164.000 C 62.980 164.000,63.106 164.360,63.333 164.800 M97.600 167.283 C 97.600 167.329,97.990 167.719,98.467 168.150 L 99.333 168.933 98.550 168.067 C 97.820 167.259,97.600 167.077,97.600 167.283 M177.580 169.667 C 177.282 170.639,177.450 170.912,177.867 170.133 C 178.060 169.772,178.063 169.600,177.876 169.600 C 177.724 169.600,177.591 169.630,177.580 169.667 M101.056 171.000 C 102.161 172.177,102.400 172.389,102.400 172.189 C 102.400 172.146,101.830 171.576,101.133 170.922 L 99.867 169.733 101.056 171.000 M176.780 170.718 C 176.768 170.763,176.717 171.021,176.666 171.290 C 176.615 171.560,176.355 172.030,176.087 172.336 C 175.819 172.642,175.744 172.807,175.921 172.704 C 176.520 172.355,177.354 170.977,177.071 170.803 C 176.922 170.711,176.791 170.672,176.780 170.718 M174.386 173.000 L 173.467 174.000 174.467 173.081 C 175.397 172.226,175.589 172.000,175.386 172.000 C 175.341 172.000,174.891 172.450,174.386 173.000 M103.467 173.150 C 103.467 173.196,103.857 173.586,104.333 174.017 L 105.200 174.800 104.417 173.933 C 103.687 173.125,103.467 172.944,103.467 173.150 M71.722 176.867 C 72.827 178.044,73.067 178.256,73.067 178.056 C 73.067 178.013,72.497 177.443,71.800 176.789 L 70.533 175.600 71.722 176.867 M109.200 177.738 C 109.493 177.977,109.973 178.290,110.267 178.434 L 110.800 178.696 110.267 178.262 C 109.973 178.023,109.493 177.710,109.200 177.566 L 108.667 177.304 109.200 177.738 M171.050 178.467 L 170.267 179.333 171.133 178.550 C 171.610 178.119,172.000 177.729,172.000 177.683 C 172.000 177.477,171.780 177.659,171.050 178.467 M75.067 180.533 C 76.085 181.560,76.979 182.400,77.052 182.400 C 77.126 182.400,76.352 181.560,75.333 180.533 C 74.315 179.507,73.421 178.667,73.348 178.667 C 73.274 178.667,74.048 179.507,75.067 180.533 M116.000 181.464 C 116.000 181.647,117.633 182.456,117.755 182.334 C 117.813 182.276,117.441 182.029,116.930 181.785 C 116.418 181.542,116.000 181.397,116.000 181.464 M166.787 182.733 L 165.733 183.867 166.867 182.813 C 167.490 182.233,168.000 181.723,168.000 181.679 C 168.000 181.477,167.768 181.679,166.787 182.733 M78.667 183.867 C 79.164 184.380,79.631 184.800,79.705 184.800 C 79.778 184.800,79.431 184.380,78.933 183.867 C 78.436 183.353,77.969 182.933,77.895 182.933 C 77.822 182.933,78.169 183.353,78.667 183.867 M119.733 183.155 C 119.953 183.291,120.433 183.482,120.800 183.580 C 121.263 183.704,121.345 183.683,121.067 183.512 C 120.847 183.376,120.367 183.184,120.000 183.086 C 119.537 182.962,119.455 182.983,119.733 183.155 M123.600 184.492 C 124.425 184.845,125.807 185.118,125.333 184.834 C 125.113 184.702,124.513 184.520,124.000 184.429 C 123.370 184.318,123.240 184.338,123.600 184.492 M146.467 186.050 C 146.723 186.118,147.143 186.118,147.400 186.050 C 147.657 185.983,147.447 185.929,146.933 185.929 C 146.420 185.929,146.210 185.983,146.467 186.050 M135.004 186.591 C 135.409 186.653,136.009 186.651,136.337 186.588 C 136.665 186.524,136.333 186.474,135.600 186.476 C 134.867 186.478,134.598 186.530,135.004 186.591 M141.533 186.588 C 141.863 186.652,142.403 186.652,142.733 186.588 C 143.063 186.525,142.793 186.473,142.133 186.473 C 141.473 186.473,141.203 186.525,141.533 186.588 M157.133 189.897 C 156.224 190.479,155.930 190.870,156.733 190.429 C 157.345 190.093,158.304 189.351,158.133 189.346 C 158.060 189.344,157.610 189.592,157.133 189.897 M94.400 194.000 C 94.767 194.210,95.187 194.381,95.333 194.381 C 95.480 194.381,95.300 194.210,94.933 194.000 C 94.567 193.790,94.147 193.619,94.000 193.619 C 93.853 193.619,94.033 193.790,94.400 194.000 M100.800 196.488 C 101.020 196.624,101.500 196.816,101.867 196.914 C 102.330 197.038,102.411 197.017,102.133 196.845 C 101.913 196.709,101.433 196.518,101.067 196.420 C 100.603 196.296,100.522 196.317,100.800 196.488 M112.470 199.389 C 112.801 199.452,113.281 199.450,113.536 199.383 C 113.791 199.316,113.520 199.264,112.933 199.267 C 112.347 199.270,112.138 199.325,112.470 199.389 M131.000 199.384 C 131.257 199.451,131.677 199.451,131.933 199.384 C 132.190 199.317,131.980 199.262,131.467 199.262 C 130.953 199.262,130.743 199.317,131.000 199.384 M117.400 199.917 C 117.657 199.984,118.077 199.984,118.333 199.917 C 118.590 199.850,118.380 199.795,117.867 199.795 C 117.353 199.795,117.143 199.850,117.400 199.917 M125.933 199.917 C 126.190 199.984,126.610 199.984,126.867 199.917 C 127.123 199.850,126.913 199.795,126.400 199.795 C 125.887 199.795,125.677 199.850,125.933 199.917 "
       stroke="none"
       fill-rule="evenodd"
       fill="#fbdc6a"
       style="fill:#ffff00" />
    <path
       style="opacity:1;vector-effect:none;fill:#ffff00;fill-opacity:1;stroke:none;stroke-width:3;stroke-linecap:butt;stroke-linejoin:miter;stroke-miterlimit:4;stroke-dasharray:none;stroke-dashoffset:0;stroke-opacity:1"
       d="m 206.8295,103.08359 c -0.12929,0.0196 -0.22187,0.32528 -0.28906,1.05078 -0.13437,1.451 -0.16812,4.58085 -0.20312,10.46485 l -0.0703,11.66797 -0.59961,0.084 c -0.32999,0.047 -0.5996,0.18755 -0.5996,0.31055 0,0.124 -0.9,0.43826 -2,0.69726 -1.1,0.26 -2,0.55902 -2,0.66602 0,0.108 -0.96077,0.4042 -2.13477,0.6582 -1.173,0.253 -2.13281,0.54067 -2.13281,0.63867 0,0.097 -0.86864,0.39888 -1.93164,0.67188 -1.064,0.273 -1.99536,0.57678 -2.06836,0.67578 -0.073,0.098 -0.973,0.40087 -2,0.67187 -1.027,0.271 -1.927,0.57002 -2,0.66602 -0.073,0.096 -1.06222,0.39125 -2.19922,0.65625 -1.137,0.265 -2.06641,0.56692 -2.06641,0.66992 0,0.103 0.92941,0.40297 2.06641,0.66797 1.137,0.265 2.12622,0.56125 2.19922,0.65625 0.073,0.096 0.973,0.39697 2,0.66797 1.027,0.271 1.927,0.57287 2,0.67187 0.073,0.099 1.00436,0.40279 2.06836,0.67579 1.063,0.272 1.93164,0.57487 1.93164,0.67187 0,0.097 0.95981,0.38467 2.13281,0.63867 1.174,0.253 2.13477,0.54925 2.13477,0.65625 0,0.108 0.9,0.40702 2,0.66602 1.1,0.26 2,0.57326 2,0.69726 0,0.124 0.2696,0.26355 0.5996,0.31055 l 0.59961,0.0859 0.0703,11.66601 c 0.035,5.884 0.0687,9.0158 0.20312,10.4668 0.0672,0.7255 0.15977,1.03116 0.28906,1.05078 0.1293,0.0196 0.29547,-0.24606 0.51172,-0.66406 0.231,-0.448 0.65346,-1.07839 0.93946,-1.40039 1.04,-1.173 1.255,-1.46261 1.75,-2.34961 0.277,-0.497 0.7137,-1.05995 0.9707,-1.25195 0.257,-0.191 0.4668,-0.52424 0.4668,-0.74024 0,-0.217 0.17939,-0.46383 0.40039,-0.54883 0.221,-0.084 0.60451,-0.591 0.85351,-1.125 0.25,-0.534 0.66864,-1.12636 0.93164,-1.31836 0.264,-0.192 0.48047,-0.5186 0.48047,-0.72461 0,-0.20699 0.23921,-0.50315 0.5332,-0.66015 0.29301,-0.157 0.53416,-0.43138 0.53516,-0.60938 0,-0.179 0.36078,-0.74381 0.80078,-1.25781 0.44,-0.513 0.86817,-1.14339 0.95117,-1.40039 0.082,-0.256 0.25763,-0.4668 0.39063,-0.4668 0.133,0 0.43111,-0.36645 0.66211,-0.81445 0.232,-0.447 0.626,-1.04041 0.875,-1.31641 0.249,-0.276 0.69233,-0.80764 0.98633,-1.18164 0.252,-0.3215 0.68443,-0.56232 1.05468,-0.6582 0.37025,-0.0959 0.67774,-0.048 0.67774,0.20899 0,0.12999 0.87059,0.44903 1.93359,0.70703 1.064,0.258 1.99341,0.54472 2.06641,0.63671 0.073,0.092 1.03281,0.39488 2.13281,0.67188 1.1,0.277 2.06077,0.58264 2.13477,0.68164 0.073,0.099 0.973,0.40088 2,0.67188 1.026,0.271 1.926,0.57196 2,0.66796 0.073,0.096 0.973,0.39502 2,0.66602 1.026,0.271 1.926,0.57006 2,0.66406 0.073,0.093 1.03281,0.38544 2.13281,0.64844 1.1,0.263 2.08731,0.6133 2.19531,0.7793 0.145,0.223 0.19622,0.223 0.19922,0 0.002,-0.165 -0.17453,-0.45082 -0.39453,-0.63282 -0.22,-0.183 -0.40039,-0.4384 -0.40039,-0.5664 0,-0.129 -0.1842,-0.44222 -0.4082,-0.69922 -1.299,-1.491 -1.72557,-2.02788 -1.72657,-2.17188 0,-0.089 -0.30001,-0.5115 -0.66601,-0.9375 -0.367,-0.426 -0.66602,-0.85321 -0.66602,-0.94921 0,-0.096 -0.21928,-0.41022 -0.48828,-0.69922 -0.268,-0.288 -0.71614,-0.87941 -0.99414,-1.31641 -0.278,-0.436 -0.6587,-0.88886 -0.8457,-1.00586 -0.186,-0.117 -0.33789,-0.38094 -0.33789,-0.58594 0,-0.204 -0.2098,-0.53061 -0.4668,-0.72461 -0.467,-0.353 -0.98141,-1.05854 -1.31641,-1.81054 -0.098,-0.22 -0.33625,-0.49628 -0.53125,-0.61328 -0.194,-0.118 -0.35351,-0.37999 -0.35351,-0.58399 0,-0.205 -0.2098,-0.53061 -0.4668,-0.72461 -0.455,-0.344 -0.95645,-1.02701 -1.31445,-1.79101 -0.098,-0.209 -0.39607,-0.6296 -0.66407,-0.9336 -0.26799,-0.305 -0.66671,-0.76253 -0.88671,-1.01953 -0.275,-0.3205 -0.40166,-0.67519 -0.37891,-1.03906 0.0228,-0.36388 0.19472,-0.73675 0.51172,-1.09375 1.011,-1.137 1.71278,-2.11819 2.05078,-2.86719 0.099,-0.22 0.39706,-0.55604 0.66406,-0.74805 0.266,-0.192 0.48438,-0.5167 0.48438,-0.7207 0,-0.205 0.15098,-0.46698 0.33398,-0.58398 0.338,-0.216 0.8536,-0.94964 1.1836,-1.68164 0.1,-0.22 0.39806,-0.55705 0.66406,-0.74805 0.267,-0.192 0.48633,-0.5157 0.48633,-0.7207 0,-0.204 0.15189,-0.46699 0.33789,-0.58399 0.187,-0.118 0.5677,-0.56986 0.8457,-1.00586 0.278,-0.436 0.72614,-1.03036 0.99414,-1.31836 0.269,-0.288 0.48828,-0.60126 0.48828,-0.69726 0,-0.097 0.29902,-0.52322 0.66602,-0.94922 0.366,-0.426 0.66601,-0.8485 0.66601,-0.9375 0.001,-0.144 0.42757,-0.68088 1.72657,-2.17188 0.224,-0.257 0.4082,-0.57217 0.4082,-0.70117 0,-0.129 0.18039,-0.38145 0.40039,-0.56445 0.22,-0.183 0.39653,-0.46877 0.39453,-0.63477 -0.003,-0.222 -0.0542,-0.22104 -0.19922,0.002 -0.108,0.166 -1.09531,0.51629 -2.19531,0.77929 -1.1,0.263 -2.05981,0.55444 -2.13281,0.64844 -0.074,0.094 -0.974,0.39306 -2,0.66406 -1.027,0.271 -1.927,0.57002 -2,0.66602 -0.074,0.095 -0.974,0.39502 -2,0.66602 -1.027,0.27099 -1.927,0.57482 -2,0.67382 -0.074,0.099 -1.03477,0.40464 -2.13477,0.68164 -1.1,0.277 -2.05981,0.57793 -2.13281,0.66993 -0.073,0.092 -1.00241,0.38067 -2.06641,0.63867 -1.063,0.258 -1.93359,0.57603 -1.93359,0.70703 0,0.2565 -0.30749,0.30473 -0.67774,0.20898 -0.37025,-0.0958 -0.80268,-0.3367 -1.05468,-0.6582 -0.294,-0.375 -0.73733,-0.90759 -0.98633,-1.18359 -0.249,-0.277 -0.643,-0.86841 -0.875,-1.31641 -0.231,-0.448 -0.52911,-0.81445 -0.66211,-0.81445 -0.133,0 -0.30863,-0.2098 -0.39063,-0.4668 -0.083,-0.256 -0.51117,-0.88639 -0.95117,-1.40039 -0.44,-0.513 -0.80078,-1.07786 -0.80078,-1.25586 -0.001,-0.178 -0.24215,-0.45238 -0.53516,-0.60937 -0.29399,-0.15701 -0.5332,-0.45416 -0.5332,-0.66016 0,-0.207 -0.21647,-0.53361 -0.48047,-0.72461 -0.263,-0.192 -0.68164,-0.78631 -0.93164,-1.32031 -0.249,-0.534 -0.63251,-1.04 -0.85351,-1.125 -0.221,-0.084 -0.40039,-0.33088 -0.40039,-0.54688 0,-0.216 -0.2098,-0.55019 -0.4668,-0.74219 -0.257,-0.191 -0.6937,-0.75495 -0.9707,-1.25195 -0.277,-0.496 -0.6966,-1.12639 -0.9336,-1.40039 -0.236,-0.273 -0.63381,-0.72867 -0.88281,-1.01367 -0.249,-0.286 -0.64205,-0.88699 -0.87305,-1.33399 -0.21625,-0.418 -0.38242,-0.68368 -0.51172,-0.66406 z"
       id="path4562"
       inkscape:connector-curvature="0" />
  </g>
</svg>
