<?xml version="1.0" encoding="UTF-8" standalone="no"?>
<svg
   xmlns:dc="http://purl.org/dc/elements/1.1/"
   xmlns:cc="http://creativecommons.org/ns#"
   xmlns:rdf="http://www.w3.org/1999/02/22-rdf-syntax-ns#"
   xmlns:svg="http://www.w3.org/2000/svg"
   xmlns="http://www.w3.org/2000/svg"
   xmlns:sodipodi="http://sodipodi.sourceforge.net/DTD/sodipodi-0.dtd"
   xmlns:inkscape="http://www.inkscape.org/namespaces/inkscape"
   id="flag-icon-css-ci"
   viewBox="0 0 640 480"
   version="1.1"
   sodipodi:docname="iia.svg"
   inkscape:version="0.92.4 (5da689c313, 2019-01-14)">
  <metadata
     id="metadata15">
    <rdf:RDF>
      <cc:Work
         rdf:about="">
        <dc:format>image/svg+xml</dc:format>
        <dc:type
           rdf:resource="http://purl.org/dc/dcmitype/StillImage" />
        <dc:title></dc:title>
      </cc:Work>
    </rdf:RDF>
  </metadata>
  <defs
     id="defs13" />
  <sodipodi:namedview
     pagecolor="#ffffff"
     bordercolor="#666666"
     borderopacity="1"
     objecttolerance="10"
     gridtolerance="10"
     guidetolerance="10"
     inkscape:pageopacity="0"
     inkscape:pageshadow="2"
     inkscape:window-width="1920"
     inkscape:window-height="1017"
     id="namedview11"
     showgrid="false"
     inkscape:zoom="0.49166667"
     inkscape:cx="49.491525"
     inkscape:cy="240"
     inkscape:window-x="-8"
     inkscape:window-y="-8"
     inkscape:window-maximized="1"
     inkscape:current-layer="flag-icon-css-ci" />
  <g
     id="svgg"
     transform="translate(122.12833,43.950893)">
    <path
       d="m 195.11,5.081 c -0.356,0.395 -0.767,1.259 -0.912,1.919 -0.36,1.633 -1.541,5.154 -1.811,5.4 -0.121,0.11 -0.745,2.069 -1.388,4.354 l -1.167,4.154 -8.494,-0.196 c -5.678,-0.131 -8.634,-0.056 -8.916,0.226 -0.845,0.845 -0.495,3.372 0.574,4.143 0.548,0.396 1.651,1.304 2.451,2.019 0.799,0.715 1.676,1.3 1.947,1.3 0.272,0 1.104,0.628 1.85,1.396 0.746,0.767 1.486,1.397 1.644,1.4 0.36,0.005 4.021,2.48 4.363,2.948 0.307,0.421 -0.031,1.856 -0.437,1.856 -0.162,0 -0.978,2.52 -1.814,5.6 -0.836,3.08 -1.673,5.6 -1.86,5.6 -0.902,0 -0.342,3.864 0.636,4.387 1.553,0.831 5.048,-0.453 6.624,-2.434 0.11,-0.138 1.28,-0.954 2.6,-1.813 1.32,-0.859 3.009,-2.127 3.753,-2.818 1.922,-1.784 2.414,-1.79 4.654,-0.051 1.096,0.851 2.983,2.205 4.193,3.009 1.21,0.804 2.38,1.672 2.6,1.93 1.518,1.774 5.43,2.8 6.52,1.71 0.955,-0.955 0.279,-5.662 -1.338,-9.32 -0.629,-1.423 -2.182,-6.674 -2.182,-7.379 0,-0.514 1.558,-1.985 2.127,-2.008 0.31,-0.012 3.048,-1.941 3.473,-2.446 0.11,-0.131 1.1,-0.856 2.2,-1.611 5.342,-3.668 6.241,-4.977 4.816,-7.012 -0.569,-0.813 -0.807,-0.829 -9,-0.633 -8.059,0.194 -8.416,0.17 -8.418,-0.554 -0.002,-0.416 -0.264,-1.258 -0.583,-1.87 -0.32,-0.612 -1.227,-3.365 -2.016,-6.118 -1.912,-6.666 -2.415,-7.535 -4.451,-7.688 -1.134,-0.085 -1.775,0.087 -2.238,0.6 m 4.279,7.219 c 1.025,3.245 2.232,6.932 2.683,8.192 l 0.82,2.293 8.787,0.107 8.788,0.108 -7.046,5.145 c -6.059,4.425 -7.013,5.266 -6.813,6 0.127,0.47 1.245,4.048 2.484,7.95 2.764,8.711 2.806,8.631 -2.492,4.724 -1.1,-0.811 -3.659,-2.691 -5.686,-4.177 l -3.687,-2.702 -2.513,1.822 c -9.986,7.238 -11.323,8.133 -11.435,7.651 -0.124,-0.538 0.962,-4.194 3.35,-11.28 0.754,-2.237 1.371,-4.239 1.371,-4.447 0,-0.358 -5.148,-4.295 -11.392,-8.711 L 173.817,23 l 8.862,-0.108 8.862,-0.107 2.686,-8.193 c 1.477,-4.505 2.823,-8.192 2.992,-8.192 0.169,0 1.145,2.655 2.17,5.9 m 81.12,11.4 c -0.847,1.089 -1.68,3.245 -2.7,6.985 -0.586,2.153 -1.467,4.905 -1.957,6.115 l -0.89,2.2 -8.296,0.2 c -9.149,0.221 -9.048,0.189 -9.06,2.812 -0.006,1.304 2.015,3.988 3.002,3.988 0.152,0 0.959,0.54 1.792,1.2 0.833,0.66 1.674,1.2 1.869,1.2 0.194,0 0.662,0.361 1.041,0.803 0.378,0.441 1.57,1.346 2.65,2.01 1.079,0.664 2.053,1.444 2.164,1.733 0.215,0.561 -1.715,7.919 -2.166,8.254 -0.408,0.304 -1.958,5.75 -1.958,6.881 0,3.291 4.581,3 8.094,-0.514 0.642,-0.642 1.353,-1.167 1.579,-1.167 0.227,0 1.817,-1.072 3.535,-2.382 l 3.122,-2.381 1.535,1.115 c 0.844,0.613 1.782,1.415 2.084,1.781 0.302,0.367 0.775,0.667 1.051,0.667 0.276,0 0.712,0.253 0.969,0.563 0.257,0.31 1.09,0.858 1.849,1.219 0.76,0.361 1.382,0.81 1.382,0.999 0,1.588 5.48,3.38 6.981,2.283 0.787,-0.576 0.752,-4.458 -0.046,-5.007 -0.205,-0.141 -0.704,-1.427 -1.109,-2.857 -1.796,-6.355 -2.282,-7.788 -2.739,-8.073 -0.76,-0.475 0.082,-1.498 2.706,-3.291 1.276,-0.871 2.874,-2.09 3.552,-2.71 0.678,-0.619 1.423,-1.126 1.655,-1.126 0.232,0 0.964,-0.495 1.627,-1.1 0.663,-0.605 1.693,-1.419 2.289,-1.809 0.861,-0.563 1.083,-1.017 1.078,-2.2 -0.011,-2.717 0.141,-2.67 -9.233,-2.891 l -8.47,-0.2 -1.19,-4 c -0.654,-2.2 -1.315,-4.09 -1.469,-4.2 -0.153,-0.11 -0.696,-1.64 -1.207,-3.4 -1.139,-3.931 -1.346,-4.2 -3.225,-4.2 -0.826,0 -1.677,0.225 -1.891,0.5 m -171.804,0.6 c -0.34,0.385 -1.121,2.5 -1.734,4.7 -0.614,2.2 -1.231,4.09 -1.372,4.2 -0.14,0.11 -0.667,1.495 -1.17,3.078 l -0.915,2.879 -8.572,0.121 c -9.4,0.134 -9.324,0.113 -9.336,2.595 -0.005,0.985 0.287,1.478 1.294,2.185 0.715,0.502 1.362,1.06 1.437,1.239 0.076,0.179 1.156,0.968 2.4,1.752 1.245,0.784 2.443,1.634 2.663,1.888 0.641,0.741 4.09,3.063 4.551,3.063 1.175,0 1.192,3.898 0.021,4.8 -0.66,0.509 -3.172,9.568 -3.172,11.441 0,2.889 2.457,3.532 5.2,1.359 0.833,-0.66 1.615,-1.2 1.737,-1.2 0.122,0 0.726,-0.469 1.342,-1.041 0.617,-0.573 1.751,-1.377 2.521,-1.787 0.77,-0.41 1.909,-1.275 2.531,-1.923 2.008,-2.091 3.56,-1.924 6.264,0.675 0.547,0.526 1.642,1.287 2.433,1.69 0.791,0.404 1.873,1.192 2.405,1.753 0.532,0.561 1.164,1.022 1.405,1.026 0.241,0.004 0.764,0.367 1.162,0.807 0.831,0.919 4.108,1.132 4.92,0.32 0.743,-0.743 0.573,-2.732 -0.52,-6.081 -0.55,-1.685 -1,-3.315 -1,-3.623 0,-0.307 -0.252,-0.81 -0.559,-1.118 -1.783,-1.783 -1.939,-7.498 -0.205,-7.498 0.403,0 2.653,-1.563 4.032,-2.8 0.368,-0.33 1.415,-1.05 2.328,-1.6 0.912,-0.55 2.403,-1.675 3.314,-2.5 0.91,-0.825 1.798,-1.5 1.972,-1.5 0.712,0 0.289,-2.531 -0.543,-3.253 -0.781,-0.678 -1.632,-0.747 -9.153,-0.747 h -8.291 l -0.477,-1.895 c -0.263,-1.042 -0.615,-1.987 -0.783,-2.1 -0.167,-0.113 -0.712,-1.645 -1.211,-3.405 -0.498,-1.76 -1.153,-4.077 -1.455,-5.149 -0.823,-2.92 -3.821,-4.21 -5.464,-2.351 m 176.551,9.005 2.655,8.095 8.645,0.108 c 4.754,0.059 8.644,0.219 8.644,0.356 0,0.314 -0.166,0.442 -7.535,5.788 l -6.135,4.451 0.263,1.398 c 0.144,0.768 0.44,1.69 0.657,2.048 0.218,0.358 1.17,3.171 2.115,6.251 0.945,3.08 1.854,5.915 2.02,6.3 0.525,1.221 -0.491,0.788 -3.698,-1.577 -1.698,-1.252 -3.987,-2.927 -5.087,-3.723 -1.1,-0.796 -2.663,-1.932 -3.473,-2.524 -2.143,-1.565 -2.157,-1.558 -12.216,6.037 -3.878,2.928 -4.46,2.699 -3.048,-1.199 0.581,-1.603 1.747,-5.161 2.592,-7.908 l 1.535,-4.994 -1.149,-0.899 c -0.631,-0.494 -3.194,-2.37 -5.695,-4.168 -6.561,-4.72 -6.746,-4.863 -6.746,-5.22 0,-0.179 3.758,-0.325 8.351,-0.325 9.552,0 8.709,0.348 10.174,-4.2 3.4,-10.558 3.967,-12.199 4.208,-12.195 0.147,0.003 1.462,3.648 2.923,8.1 M 112.935,30.703 c 0.844,2.803 1.969,6.208 2.5,7.565 0.531,1.358 0.965,2.663 0.965,2.9 0,0.296 2.806,0.437 8.9,0.446 l 8.9,0.015 -1.2,0.995 c -0.66,0.548 -3.45,2.614 -6.2,4.593 -2.75,1.978 -5.4,3.909 -5.889,4.29 l -0.889,0.693 1.132,3.8 c 0.622,2.09 1.787,5.662 2.589,7.939 0.801,2.276 1.457,4.211 1.457,4.3 0,0.635 -1.659,-0.159 -4.113,-1.967 -8.19,-6.038 -9.675,-7.072 -10.151,-7.072 -0.467,0 -8.448,5.543 -12.254,8.512 -0.836,0.652 -1.627,1.076 -1.759,0.945 -0.3,-0.3 1.659,-7.115 3.12,-10.857 0.601,-1.54 1.212,-3.445 1.357,-4.234 l 0.264,-1.435 -5.132,-3.732 c -2.823,-2.053 -5.998,-4.378 -7.056,-5.166 l -1.925,-1.433 8.863,-0.2 8.862,-0.2 0.905,-2.8 c 0.498,-1.54 1.104,-3.25 1.346,-3.8 0.242,-0.55 0.995,-2.845 1.674,-5.1 1.579,-5.25 1.875,-5.171 3.734,1.003 m 24.006,48.894 c -0.473,0.191 -0.976,0.536 -1.119,0.767 -0.178,0.288 -0.492,0.274 -1.005,-0.046 -2.603,-1.626 -12.132,5.683 -13.038,10.001 -0.125,0.595 -0.397,1.394 -0.604,1.777 -1.118,2.065 -1.128,8.949 -0.016,11.027 0.242,0.453 0.441,1.153 0.441,1.555 0,1.112 3.343,5.855 5.07,7.192 5.089,3.94 7.448,4.561 15.63,4.117 5.281,-0.287 13.004,-6.746 13.43,-11.231 0.05,-0.526 0.347,-1.406 0.66,-1.956 0.779,-1.367 1.056,-8.394 0.415,-10.547 -0.824,-2.773 -1.677,-4.595 -2.255,-4.817 -0.303,-0.116 -0.55,-0.468 -0.55,-0.782 0,-2.115 -6.779,-6.417 -10.2,-6.472 -1.32,-0.022 -2.793,-0.251 -3.274,-0.511 -1.007,-0.543 -2.353,-0.571 -3.585,-0.074 m 3.777,2.231 c 1.093,0.765 2.58,3.673 3.258,6.372 0.276,1.1 0.569,2.225 0.651,2.5 0.114,0.384 -1.246,0.5 -5.884,0.5 h -6.032 l 0.277,-1.477 c 1.182,-6.299 4.773,-9.967 7.73,-7.895 m -8.115,2.327 c -0.524,1.185 -1.18,3.255 -1.458,4.6 L 130.64,91.2 h -3.52 c -2.126,0 -3.52,-0.162 -3.52,-0.408 0,-1.626 4.926,-6.744 7.707,-8.006 2.349,-1.066 2.365,-1.049 1.296,1.369 m 13.588,-1.317 c 2.367,1.113 5.032,3.504 6.563,5.891 1.652,2.573 1.747,2.471 -2.299,2.471 h -3.546 l -0.498,-2.349 c -0.275,-1.293 -0.988,-3.363 -1.587,-4.6 -1.217,-2.52 -1.145,-2.594 1.367,-1.413 M 339.262,88.3 c -0.526,0.446 -1.135,1.933 -1.676,4.092 -0.468,1.866 -1.187,4.132 -1.598,5.035 -0.412,0.903 -1.057,2.751 -1.434,4.107 L 333.869,104 h -8.161 c -4.86,0 -8.473,0.167 -8.934,0.414 -1.167,0.625 -1.083,3.392 0.122,4.038 0.494,0.264 1.404,0.986 2.023,1.606 0.62,0.619 1.753,1.423 2.518,1.786 0.765,0.363 1.571,0.997 1.791,1.408 0.22,0.411 0.581,0.748 0.803,0.748 0.222,0 1.423,0.765 2.669,1.7 1.247,0.935 2.419,1.807 2.606,1.938 0.187,0.131 -0.097,1.211 -0.631,2.4 -1.718,3.827 -4.038,12.737 -3.624,13.92 0.74,2.117 6.392,0.769 8.149,-1.943 0.11,-0.17 1.28,-0.991 2.6,-1.826 1.32,-0.835 2.537,-1.746 2.705,-2.026 1.309,-2.187 3.079,-1.89 6.721,1.125 1.004,0.832 2.024,1.512 2.266,1.512 0.242,0 0.95,0.54 1.573,1.2 0.623,0.66 1.28,1.2 1.46,1.2 0.181,0 0.918,0.45 1.639,1 2.238,1.707 5.424,1.25 5.444,-0.78 0.01,-0.982 -2.485,-9.934 -2.848,-10.22 -0.14,-0.11 -0.562,-1.266 -0.938,-2.568 -0.847,-2.932 -0.588,-3.504 2.455,-5.432 1.216,-0.77 2.686,-1.815 3.267,-2.323 0.581,-0.508 1.821,-1.38 2.756,-1.938 0.935,-0.558 1.7,-1.168 1.7,-1.354 0,-0.187 0.54,-0.659 1.2,-1.049 0.962,-0.568 1.2,-0.98 1.2,-2.078 0,-2.318 -0.445,-2.431 -9.653,-2.445 l -8.252,-0.013 -0.477,-1.895 c -0.263,-1.042 -0.62,-1.987 -0.794,-2.1 -0.175,-0.113 -0.982,-2.635 -1.795,-5.605 -1.575,-5.756 -2.224,-6.8 -4.229,-6.8 -0.611,0 -1.483,0.315 -1.938,0.7 M 50.08,88.88 c -0.264,0.264 -0.48,0.72 -0.48,1.014 0,0.294 -0.248,0.933 -0.552,1.42 -0.303,0.487 -1.215,3.136 -2.025,5.886 -0.81,2.75 -1.685,5.495 -1.945,6.1 l -0.473,1.1 h -8.423 c -9.155,0 -9.382,0.053 -9.382,2.208 0,1.416 1.397,3.158 3.6,4.492 0.77,0.466 1.764,1.174 2.209,1.573 1.114,1 4.462,3.327 4.787,3.327 0.948,0 2.611,2.44 2.372,3.481 -0.55,2.4 -1.906,6.729 -2.168,6.919 -0.447,0.324 -2,5.823 -2,7.082 0,3.215 4.875,2.597 8.812,-1.117 0.859,-0.81 4.27,-3.165 4.584,-3.165 0.146,0 0.798,-0.532 1.448,-1.182 1.333,-1.334 1.92,-1.275 3.756,0.377 0.66,0.594 1.88,1.485 2.711,1.981 0.83,0.496 1.779,1.171 2.107,1.499 0.937,0.937 4.517,3.325 4.985,3.325 0.232,0 0.526,0.27 0.652,0.6 0.368,0.958 2.006,0.703 2.916,-0.454 0.828,-1.053 1.19,-4.146 0.485,-4.146 -0.19,0 -0.753,-1.485 -1.252,-3.3 -1.775,-6.457 -2.487,-8.704 -2.822,-8.911 -0.43,-0.266 2.619,-3.078 4.226,-3.898 0.665,-0.339 1.655,-1.04 2.2,-1.557 0.546,-0.517 2.036,-1.641 3.311,-2.499 2.617,-1.759 3.081,-2.411 3.081,-4.329 0,-2.262 -0.176,-2.306 -9.256,-2.306 h -8.296 l -1.024,-3.358 C 57.661,99.195 57.2,97.485 57.2,97.242 57.2,96.999 57.047,96.8 56.861,96.8 c -0.187,0 -0.75,-1.575 -1.251,-3.5 -1.204,-4.622 -3.496,-6.454 -5.53,-4.42 m 292.673,4.62 c 2.07,6.796 2.404,7.85 3.207,10.1 l 0.784,2.2 8.659,0.108 c 10.285,0.128 10.087,-0.167 3.215,4.784 -2.819,2.031 -5.835,4.281 -6.702,5 l -1.578,1.308 2.58,8 c 1.419,4.4 2.421,8.061 2.226,8.135 -0.34,0.13 -5.795,-3.629 -11.097,-7.646 -2.869,-2.173 -2.753,-2.179 -6.159,0.323 -8.173,6.005 -10.134,7.378 -10.539,7.383 -0.471,0.005 1.067,-5.458 3.481,-12.361 l 1.317,-3.766 -1.374,-1.168 c -0.755,-0.643 -2.363,-1.865 -3.573,-2.717 -5.42,-3.814 -8.558,-6.221 -8.704,-6.675 -0.121,-0.377 1.868,-0.517 8.5,-0.6 l 8.658,-0.108 1.989,-6 c 1.093,-3.3 2.264,-6.945 2.601,-8.1 0.845,-2.895 1.145,-2.679 2.509,1.8 M 54.767,97.93 c 1.338,4.141 2.433,7.741 2.433,8 0,0.345 2.272,0.47 8.576,0.47 10.904,0 10.753,-0.19 3.824,4.803 -9.322,6.719 -8.472,5.954 -8.175,7.349 0.146,0.686 0.53,1.878 0.852,2.648 0.322,0.77 1.273,3.65 2.113,6.4 0.841,2.75 1.656,5.315 1.812,5.7 0.538,1.329 -0.655,0.58 -10.002,-6.276 -3.361,-2.464 -4.125,-2.867 -4.783,-2.52 -0.765,0.403 -3.913,2.665 -9.687,6.961 -4.362,3.244 -4.381,3.191 -1.736,-4.965 1.266,-3.905 2.415,-7.581 2.554,-8.17 0.264,-1.119 0.016,-1.325 -11.874,-9.855 -2.695,-1.933 -2.316,-2.045 7.309,-2.167 l 8.559,-0.108 2.581,-7.9 c 1.419,-4.345 2.722,-7.9 2.896,-7.9 0.173,0 1.41,3.388 2.748,7.53 M 130.2,97.8 v 4.2 h -3.85 -3.85 l -0.25,-1.25 c -0.316,-1.578 -0.314,-5.069 0.002,-6.25 0.229,-0.854 0.437,-0.9 4.095,-0.9 h 3.853 v 4.2 m 14.757,-3.567 c 0.134,0.348 0.243,1.953 0.243,3.567 0,4.488 0.455,4.2 -6.643,4.2 H 132.4 v -4.2 -4.2 h 6.157 c 5.246,0 6.193,0.094 6.4,0.633 m 10.28,1.567 c 0.13,1.1 0.13,2.9 0,4 l -0.237,2 -3.9,0.114 -3.9,0.115 V 97.8 93.571 l 3.9,0.115 3.9,0.114 0.237,2 m -24.11,10.9 c 0.268,1.265 0.917,3.342 1.441,4.615 l 0.955,2.314 -0.862,-0.265 c -3.368,-1.038 -9.061,-6.534 -9.061,-8.748 0,-0.119 1.584,-0.216 3.52,-0.216 h 3.52 l 0.487,2.3 m 12.833,0.549 c -2.77,9.995 -8.991,9.188 -10.982,-1.426 l -0.267,-1.423 h 6.019 6.019 l -0.789,2.849 M 154,104.705 c 0,1.634 -4.724,6.455 -7.884,8.047 -2.406,1.212 -2.504,1.106 -1.292,-1.403 0.599,-1.237 1.312,-3.307 1.587,-4.6 l 0.498,-2.349 h 3.546 c 1.95,0 3.545,0.137 3.545,0.305 m -34.04,34.447 c -9.937,0.314 -9.16,-0.315 -9.16,7.417 0,7.24 -0.124,7.031 4.183,7.031 3.427,0 5.485,0.412 6.349,1.272 0.291,0.291 1.197,1.113 2.013,1.828 0.816,0.716 1.882,2.156 2.369,3.2 l 0.886,1.9 V 195 c 0,37.805 0.262,34.93 -3.529,38.667 -2.079,2.05 -4.242,2.733 -8.653,2.733 -3.733,0 -3.702,-0.062 -3.547,7.163 0.109,5.103 0.236,6.117 0.836,6.717 0.716,0.715 57.591,1.051 59.79,0.353 1.337,-0.425 1.703,-2.007 1.703,-7.363 0,-6.72 0.001,-6.718 -4.889,-6.948 -3.686,-0.173 -7.111,-1.3 -7.111,-2.339 0,-0.221 -0.694,-1.162 -1.543,-2.092 -2.876,-3.152 -2.648,0.811 -2.745,-47.645 -0.085,-42.776 -0.108,-43.968 -0.852,-44.489 -0.909,-0.637 -23.247,-1.011 -36.1,-0.605 m 102.917,0.861 c -4.324,0.697 -8.624,2.051 -9.477,2.983 -0.22,0.241 -1.077,0.754 -1.904,1.141 -2.386,1.117 -7.238,5.365 -11.148,9.76 -11.936,13.419 -6.696,33.797 8.852,34.425 13.159,0.531 21.574,-15.755 14.414,-27.897 -0.667,-1.133 -1.214,-2.173 -1.214,-2.311 0,-0.138 -0.289,-0.57 -0.641,-0.96 -0.611,-0.674 1.15,-1.954 2.69,-1.954 0.193,0 0.351,-0.16 0.351,-0.355 0,-0.648 5.209,-1.36 8.266,-1.129 12.326,0.933 16.221,17.873 5.931,25.795 -2.867,2.206 -11.12,5.763 -24.797,10.685 -12.902,4.643 -19.614,10.264 -23.487,19.669 l -1.291,3.135 -0.011,7.6 c -0.016,11.278 0.414,13.276 3.946,18.322 6.131,8.758 11.813,11.627 23.043,11.635 8.899,0.007 19.119,-2.615 22.51,-5.774 0.439,-0.409 1.367,-1.013 2.062,-1.343 0.695,-0.33 1.922,-1.239 2.726,-2.02 0.804,-0.781 1.633,-1.42 1.841,-1.42 0.208,0 0.92,-0.617 1.583,-1.372 1.1,-1.253 1.252,-1.314 1.748,-0.7 0.982,1.215 2.33,3.235 2.33,3.49 0,0.294 4.711,4.982 5.006,4.982 0.111,0 0.946,0.54 1.857,1.2 0.912,0.66 1.885,1.2 2.164,1.2 0.278,0 0.577,0.212 0.663,0.471 0.573,1.717 12.156,1.852 17.649,0.206 6.304,-1.889 12.661,-6.859 12.661,-9.897 0,-0.362 -0.315,-1.053 -0.7,-1.535 -6.563,-8.231 -7.679,-8.893 -10.822,-6.42 -1.828,1.437 -4.161,0.476 -4.873,-2.008 -0.192,-0.67 -0.367,-14.429 -0.389,-30.576 -0.032,-23.123 -0.157,-29.941 -0.588,-32.1 -0.699,-3.498 -2.835,-9.618 -3.848,-11.025 -0.429,-0.596 -0.78,-1.267 -0.78,-1.491 0,-0.223 -0.447,-0.699 -0.993,-1.057 -0.546,-0.358 -1.373,-1.267 -1.839,-2.019 -0.465,-0.753 -1.323,-1.619 -1.907,-1.924 -0.583,-0.306 -1.616,-1.104 -2.294,-1.773 -0.679,-0.669 -2.569,-1.889 -4.2,-2.711 -1.632,-0.821 -3.064,-1.633 -3.182,-1.803 -1.958,-2.822 -21.756,-4.761 -31.908,-3.125 m -68.078,39.301 c -0.001,50.595 -0.066,48.361 1.504,51.549 2.527,5.134 5.688,7.289 11.497,7.836 L 171,239 v 5 5 h -29 -29 v -5.2 -5.2 l 3.8,-0.217 c 6.944,-0.395 10.923,-4.07 12.013,-11.09 0.784,-5.052 0.327,-65.091 -0.512,-67.212 -2.218,-5.613 -5.759,-8.231 -11.389,-8.417 l -4.112,-0.137 v -5.097 c 0,-2.803 0.123,-5.22 0.273,-5.37 0.15,-0.15 9.6,-0.264 21,-0.253 l 20.727,0.02 -0.001,38.487 M 240.8,141.717 c 1.65,0.329 4.26,0.818 5.8,1.087 8.19,1.429 19.02,9.305 22.63,16.456 3.168,6.276 3.175,6.363 3.279,40.74 l 0.091,30.2 0.938,1.636 c 1.896,3.309 7.097,4.057 8.201,1.179 0.406,-1.059 0.894,-0.709 3.818,2.734 3.427,4.037 3.428,4.041 0.543,6.951 -10.352,10.443 -27.344,7.604 -34.9,-5.831 -0.77,-1.369 -1.58,-2.759 -1.801,-3.088 -0.327,-0.488 -1.027,0.018 -3.803,2.751 -16.928,16.664 -41.29,16.588 -51.101,-0.159 -2.983,-5.093 -4.377,-15.991 -2.921,-22.845 1.893,-8.915 10.636,-17.375 21.626,-20.927 1.21,-0.391 3.91,-1.387 6,-2.214 2.09,-0.827 6.68,-2.63 10.2,-4.008 14.156,-5.54 18.128,-10.511 16.957,-21.223 -1.422,-13.013 -16.863,-18.476 -27.73,-9.81 l -1.129,0.9 2.19,2.189 c 10.526,10.527 0.883,31.6 -12.795,27.962 -11.568,-3.078 -14.904,-17.37 -6.643,-28.464 10.11,-13.579 24.637,-19.388 40.55,-16.216 M 26.608,170.099 c -0.423,0.494 -1.362,2.969 -2.087,5.5 -0.725,2.53 -1.587,5.077 -1.917,5.658 -0.329,0.582 -0.743,1.752 -0.919,2.6 l -0.32,1.543 -8.022,0.2 c -9,0.224 -9.343,0.328 -9.343,2.815 0,1.623 1.632,3.258 5.891,5.9 0.962,0.597 2.497,1.76 3.411,2.585 0.915,0.825 1.874,1.5 2.131,1.5 1.408,0 1.175,4.928 -0.283,6 -0.15,0.11 -0.667,1.64 -1.15,3.4 -0.483,1.76 -1.04,3.613 -1.239,4.119 -1.711,4.354 1.578,7.127 4.839,4.081 0.707,-0.66 1.375,-1.2 1.485,-1.2 0.11,0 0.882,-0.54 1.715,-1.2 0.833,-0.66 1.661,-1.2 1.839,-1.2 0.177,0 0.871,-0.506 1.542,-1.124 2.388,-2.201 4.491,-3.312 5.033,-2.659 0.266,0.321 0.692,0.583 0.946,0.583 0.254,0 1.007,0.495 1.672,1.1 0.666,0.605 2.371,1.866 3.79,2.801 1.418,0.936 3.076,2.151 3.685,2.7 3.587,3.236 6.069,0.235 4.476,-5.414 -0.339,-1.203 -0.795,-2.885 -1.013,-3.739 -0.219,-0.854 -0.756,-2.339 -1.194,-3.3 -1.553,-3.409 -1.492,-3.879 0.685,-5.341 1.066,-0.716 2.083,-1.55 2.259,-1.854 0.176,-0.304 0.473,-0.553 0.66,-0.553 0.411,0 4.196,-2.518 5.014,-3.337 0.322,-0.322 1.22,-0.977 1.995,-1.456 1.224,-0.756 1.411,-1.079 1.411,-2.429 0,-2.532 -0.893,-2.778 -10.085,-2.778 H 35.79 l -0.772,-2.7 c -0.425,-1.485 -0.995,-3.15 -1.267,-3.7 -0.272,-0.55 -0.976,-2.71 -1.564,-4.8 -1.476,-5.245 -3.46,-6.775 -5.579,-4.301 m 334.09,0.201 c -0.344,0.385 -0.943,1.69 -1.331,2.9 -0.388,1.21 -0.822,2.29 -0.965,2.4 -0.143,0.11 -0.577,1.37 -0.965,2.8 -0.388,1.43 -1.067,3.815 -1.51,5.3 l -0.805,2.7 h -8.281 c -9.122,0 -9.241,0.031 -9.241,2.41 0,1.292 1.235,3.19 2.076,3.19 0.123,0 0.911,0.63 1.752,1.4 0.841,0.77 1.731,1.4 1.978,1.4 0.248,0 1.063,0.547 1.812,1.216 0.749,0.669 2.222,1.768 3.272,2.442 2.066,1.325 2.1,1.39 1.522,2.91 -0.213,0.561 -0.854,2.774 -1.425,4.918 -0.57,2.143 -1.162,3.991 -1.314,4.106 -1.08,0.811 -1.674,5.847 -0.793,6.728 1.085,1.085 6.72,-0.506 6.72,-1.897 0,-0.189 0.675,-0.74 1.5,-1.224 0.825,-0.484 2.772,-1.852 4.328,-3.039 3.455,-2.64 3.039,-2.648 6.837,0.146 1.724,1.268 3.675,2.646 4.335,3.063 0.66,0.416 1.345,1 1.521,1.297 0.943,1.583 5.522,2.731 6.599,1.654 0.916,-0.916 0.423,-4.326 -1.116,-7.72 -0.744,-1.64 -2.804,-8.505 -2.804,-9.343 0,-0.257 1.035,-1.124 2.3,-1.926 1.265,-0.803 2.445,-1.702 2.621,-1.998 0.177,-0.296 0.987,-0.881 1.8,-1.3 0.814,-0.419 2.064,-1.273 2.778,-1.898 0.715,-0.624 1.75,-1.458 2.3,-1.854 1.131,-0.812 1.423,-3.433 0.47,-4.224 -0.339,-0.281 -3.538,-0.479 -8.855,-0.549 l -8.324,-0.108 -1.603,-5.4 c -0.882,-2.97 -1.743,-5.492 -1.915,-5.605 -0.172,-0.113 -0.526,-1.103 -0.788,-2.2 -0.519,-2.182 -1.579,-3.395 -2.966,-3.395 -0.492,0 -1.176,0.315 -1.52,0.7 M 30.56,176.6 c 0.805,2.64 1.962,6.24 2.57,8 l 1.106,3.2 8.782,0.2 8.782,0.2 -1.4,0.987 c -0.77,0.543 -1.605,1.173 -1.855,1.4 -0.251,0.227 -2.722,2.033 -5.493,4.013 -5.912,4.224 -5.655,3.294 -3.082,11.17 3.408,10.432 3.486,10.259 -2.57,5.759 -2.2,-1.635 -5.113,-3.746 -6.474,-4.691 l -2.474,-1.717 -1.526,1.169 c -0.839,0.643 -2.516,1.886 -3.726,2.763 -1.21,0.877 -3.589,2.618 -5.287,3.87 -4.37,3.222 -4.29,3.649 -1.113,-5.988 3.068,-9.306 3.503,-7.914 -4.215,-13.51 C 8.963,190.799 6,188.508 6,188.333 c 0,-0.174 3.802,-0.366 8.448,-0.425 l 8.448,-0.108 1.144,-3.2 c 0.63,-1.76 1.529,-4.55 1.998,-6.2 2.386,-8.383 2.501,-8.429 4.522,-1.8 m 334.681,3.504 2.642,8.096 8.658,0.108 c 4.763,0.059 8.659,0.25 8.659,0.425 0,0.174 -3.158,2.617 -7.018,5.429 -4.857,3.538 -6.907,5.255 -6.658,5.575 0.198,0.255 1.045,2.713 1.883,5.463 0.837,2.75 1.944,6.129 2.458,7.509 0.514,1.38 0.935,2.595 0.935,2.7 0,0.689 -1.678,-0.326 -6.6,-3.993 -3.08,-2.295 -6.168,-4.484 -6.861,-4.865 l -1.262,-0.691 -6.663,4.87 c -3.664,2.678 -6.852,4.87 -7.085,4.87 -0.463,0 -0.402,-0.273 0.846,-3.8 0.467,-1.32 1.557,-4.643 2.423,-7.384 1.865,-5.906 2.27,-5.006 -4.359,-9.696 -5.664,-4.007 -7.639,-5.553 -7.639,-5.979 0,-0.179 3.9,-0.374 8.667,-0.433 l 8.667,-0.108 0.552,-1.8 c 1.675,-5.463 4.718,-14.399 4.901,-14.396 0.117,0.002 1.402,3.647 2.854,8.1 m -120.13,10.068 c -1.662,2.003 -6.389,5.088 -12.339,8.052 -13.057,6.504 -16.508,11.482 -15.851,22.86 0.955,16.52 18.1,16.968 28.479,0.744 l 1.4,-2.19 v -15.419 c 0,-8.48 -0.135,-15.406 -0.3,-15.39 -0.165,0.016 -0.79,0.62 -1.389,1.343 m -1.322,30.716 c -10.108,15.274 -25.161,14.115 -25.038,-1.928 0.073,-9.549 2.578,-12.783 14.649,-18.912 3.08,-1.564 6.86,-3.7 8.4,-4.746 l 2.8,-1.902 0.106,12.972 0.105,12.972 -1.022,1.544 m 96.178,32.825 c -0.348,0.268 -1.297,2.737 -2.108,5.487 -0.812,2.75 -1.724,5.45 -2.028,6 -0.303,0.55 -0.756,1.765 -1.007,2.7 l -0.455,1.7 -8.284,0.013 c -9.234,0.014 -9.687,0.128 -9.682,2.431 0.002,1.099 0.267,1.536 1.4,2.308 0.768,0.523 1.397,1.103 1.397,1.289 0,0.186 0.585,0.641 1.3,1.011 0.715,0.369 2.657,1.724 4.317,3.01 1.659,1.286 3.229,2.338 3.49,2.338 1.744,0 1.625,4.925 -0.161,6.712 -0.3,0.3 -0.549,0.847 -0.552,1.217 -0.003,0.369 -0.453,2.111 -1,3.871 -2.435,7.84 0.94,9.637 7.297,3.884 0.8,-0.723 2.058,-1.602 2.795,-1.952 0.738,-0.35 1.522,-0.973 1.742,-1.384 0.22,-0.411 0.59,-0.748 0.823,-0.748 0.233,0 0.86,-0.344 1.395,-0.765 1.13,-0.889 2.413,-0.467 4.29,1.41 0.571,0.571 1.898,1.58 2.951,2.244 1.052,0.664 2.057,1.455 2.233,1.759 0.176,0.304 0.51,0.552 0.742,0.552 0.232,0 0.957,0.45 1.611,1 3.226,2.714 6.691,0.378 5.163,-3.481 -0.2,-0.506 -0.86,-2.674 -1.466,-4.819 -0.606,-2.145 -1.224,-3.9 -1.372,-3.9 -0.304,0 -1.419,-4.338 -1.162,-4.523 0.09,-0.065 1.381,-0.896 2.868,-1.847 1.486,-0.951 3.367,-2.336 4.178,-3.079 0.811,-0.743 1.694,-1.351 1.962,-1.351 0.269,0 0.998,-0.54 1.621,-1.2 0.623,-0.66 1.339,-1.2 1.591,-1.2 0.978,0 1.36,-3.683 0.444,-4.276 -0.275,-0.178 -4.265,-0.414 -8.867,-0.524 l -8.368,-0.2 -0.792,-2.4 c -0.436,-1.32 -0.946,-2.46 -1.133,-2.533 -0.187,-0.074 -0.345,-0.434 -0.351,-0.8 -0.024,-1.4 -2.699,-9.765 -3.231,-10.101 -0.801,-0.508 -2.85,-0.424 -3.591,0.147 M 48.901,254.7 c -0.492,0.436 -1.286,2.507 -2.109,5.5 -0.726,2.64 -1.451,4.89 -1.61,5 -0.159,0.11 -0.604,1.325 -0.988,2.7 l -0.699,2.5 h -7.868 c -8.781,0 -8.827,0.014 -8.827,2.633 0,1.667 1.796,4.167 2.994,4.167 0.243,0 1.189,0.675 2.104,1.5 0.914,0.825 2.436,1.985 3.382,2.577 3.808,2.384 3.893,2.513 3.212,4.855 -0.33,1.137 -0.717,2.158 -0.858,2.268 -0.366,0.284 -3.234,10.43 -3.234,11.44 0,2.935 2.146,3.11 5.658,0.46 0.801,-0.605 1.625,-1.1 1.83,-1.1 0.205,0 0.806,-0.462 1.336,-1.026 0.53,-0.564 1.507,-1.285 2.17,-1.601 0.663,-0.316 1.876,-1.191 2.695,-1.944 1.895,-1.741 2.96,-2.089 3.871,-1.265 0.387,0.35 0.813,0.636 0.947,0.636 0.134,0 0.835,0.54 1.557,1.2 0.723,0.66 1.51,1.2 1.749,1.2 0.239,0 0.964,0.515 1.611,1.145 3.011,2.932 7.18,4.491 8.496,3.175 1.017,-1.017 -0.705,-10.017 -2.448,-12.793 -0.843,-1.343 -1.136,-3.615 -0.559,-4.327 0.6,-0.739 4.093,-3.198 4.552,-3.204 0.184,-0.003 0.945,-0.633 1.691,-1.4 0.746,-0.768 1.561,-1.396 1.811,-1.396 0.25,0 1.058,-0.551 1.795,-1.225 0.738,-0.673 1.768,-1.504 2.29,-1.846 1.114,-0.73 1.279,-2.54 0.319,-3.5 -0.777,-0.778 -0.039,-0.73 -9.599,-0.635 l -8.028,0.079 -0.495,-2.211 C 57.377,267.046 57,265.995 56.811,265.926 56.622,265.857 55.988,264.09 55.403,262 c -0.586,-2.09 -1.288,-4.579 -1.561,-5.531 -0.722,-2.523 -3.125,-3.383 -4.941,-1.769 m 294.859,5.9 c 0.805,2.64 1.962,6.24 2.57,8 l 1.106,3.2 8.752,0.2 8.753,0.2 -1.894,1.4 c -1.042,0.77 -2.739,2.034 -3.771,2.809 -1.032,0.774 -3.348,2.459 -5.147,3.743 -1.799,1.284 -3.208,2.54 -3.131,2.791 0.076,0.251 0.952,2.977 1.947,6.057 0.994,3.08 1.979,6.23 2.188,7 0.209,0.77 0.509,1.715 0.666,2.1 0.642,1.568 -2.122,-0.135 -11.343,-6.989 -2.891,-2.149 -2.592,-2.186 -6.538,0.81 -4.787,3.637 -9.444,6.879 -9.88,6.879 -0.636,0 -0.653,0.069 1.962,-7.865 2.994,-9.082 3.217,-7.919 -2.3,-11.996 -2.585,-1.91 -5.69,-4.208 -6.9,-5.106 l -2.2,-1.633 8.784,-0.2 8.783,-0.2 2.122,-6.6 c 3.813,-11.866 3.37,-11.493 5.471,-4.6 m -289.938,3.592 2.682,8.193 8.848,0.107 8.848,0.108 -4.6,3.416 c -2.53,1.879 -5.718,4.219 -7.084,5.2 -1.953,1.402 -2.439,1.955 -2.272,2.584 0.541,2.04 1.82,6.079 2.153,6.8 0.497,1.076 2.403,7.518 2.403,8.121 0,1.143 -0.247,0.991 -10.046,-6.194 -4.277,-3.136 -3.149,-3.372 -10.872,2.273 -8.5,6.213 -8.027,6.574 -4.682,-3.567 2.929,-8.882 2.989,-7.849 -0.6,-10.455 -12.395,-8.998 -12.271,-8.329 -1.574,-8.47 l 8.225,-0.108 1.895,-5.6 c 1.041,-3.08 2.209,-6.725 2.595,-8.1 0.995,-3.551 1.105,-3.398 4.081,5.692 m 57.201,51.497 c -0.343,0.489 -0.624,1.164 -0.625,1.5 -0.002,0.336 -0.287,1.151 -0.635,1.811 -0.348,0.66 -1.305,3.54 -2.126,6.4 l -1.494,5.2 -8.54,0.108 c -5.478,0.07 -8.731,0.266 -9.072,0.549 -0.975,0.81 -0.651,3.293 0.569,4.361 1.476,1.291 4.892,3.582 5.34,3.582 0.198,0 0.36,0.162 0.36,0.361 0,0.199 0.994,1.021 2.21,1.828 1.215,0.806 2.664,1.921 3.219,2.477 l 1.011,1.01 -0.773,2.462 c -0.424,1.354 -1.1,3.632 -1.5,5.062 -0.401,1.43 -0.843,2.69 -0.982,2.8 -1.008,0.795 -1.521,5.104 -0.705,5.92 0.608,0.608 3.702,0.625 4.82,0.026 0.85,-0.454 7.108,-5.023 8.373,-6.113 2.458,-2.116 3.174,-2.125 5.097,-0.07 0.533,0.57 1.138,1.037 1.343,1.037 0.205,0 1.502,0.898 2.881,1.995 4.614,3.672 7.927,4.924 9.326,3.525 0.869,-0.869 0.38,-5.184 -0.671,-5.912 -0.165,-0.114 -0.959,-2.579 -1.763,-5.478 l -1.463,-5.27 1.088,-1.14 c 0.599,-0.628 2.023,-1.733 3.164,-2.456 1.142,-0.724 2.132,-1.439 2.2,-1.59 0.179,-0.393 3.882,-2.874 4.291,-2.874 0.612,0 1.634,-1.944 1.634,-3.109 0,-2.577 -0.299,-2.67 -9.241,-2.891 l -8.107,-0.2 -1.607,-5.4 c -0.884,-2.97 -1.745,-5.458 -1.914,-5.529 -0.168,-0.071 -0.422,-0.791 -0.563,-1.6 -0.569,-3.248 -3.567,-4.636 -5.145,-2.382 M 278.492,315.3 c -0.223,0.275 -0.803,1.94 -1.288,3.7 -0.486,1.76 -1.157,3.787 -1.491,4.505 -0.335,0.718 -1.006,2.608 -1.493,4.2 l -0.883,2.895 -8.537,0.108 c -5.666,0.072 -8.723,0.262 -9.089,0.566 -0.813,0.675 -0.503,3.533 0.444,4.085 0.416,0.243 1.226,0.864 1.8,1.381 0.575,0.517 1.578,1.217 2.23,1.554 0.652,0.338 1.701,1.13 2.331,1.76 0.63,0.63 1.374,1.146 1.653,1.146 0.28,0 1.121,0.594 1.87,1.32 0.748,0.726 1.685,1.444 2.08,1.595 0.71,0.271 0.634,2.932 -0.099,3.485 -0.674,0.509 -3.62,10.542 -3.62,12.328 0,2.309 3.031,2.906 5.436,1.072 0.721,-0.55 1.469,-1 1.662,-1 0.194,0 0.866,-0.536 1.494,-1.192 0.628,-0.655 2.102,-1.773 3.275,-2.484 1.173,-0.711 2.133,-1.429 2.133,-1.596 0,-1.798 3.181,-1.348 5.534,0.782 0.553,0.501 1.649,1.301 2.436,1.778 0.786,0.478 1.568,1.091 1.736,1.364 0.168,0.273 1.383,1.151 2.7,1.951 1.317,0.8 2.394,1.622 2.394,1.826 0,0.753 2.502,0.376 3.253,-0.49 0.95,-1.095 0.937,-1.428 -0.217,-5.539 -1.075,-3.827 -1.459,-4.91 -1.843,-5.2 -0.146,-0.11 -0.632,-1.608 -1.081,-3.33 l -0.816,-3.13 0.97,-0.97 c 0.534,-0.533 1.071,-0.97 1.195,-0.97 0.123,0 0.906,-0.54 1.739,-1.2 0.833,-0.66 1.669,-1.203 1.858,-1.207 0.188,-0.004 0.777,-0.465 1.309,-1.026 0.532,-0.561 1.612,-1.359 2.4,-1.774 0.788,-0.416 1.857,-1.214 2.375,-1.774 0.518,-0.561 1.103,-1.019 1.3,-1.019 0.673,0 0.375,-2.661 -0.373,-3.338 -0.631,-0.571 -1.867,-0.662 -8.984,-0.662 h -8.253 l -0.496,-1.7 c -0.274,-0.935 -0.621,-1.79 -0.773,-1.9 -0.152,-0.11 -0.962,-2.536 -1.801,-5.39 -0.838,-2.855 -1.88,-5.6 -2.315,-6.1 -0.887,-1.021 -3.454,-1.274 -4.155,-0.41 m -164.151,4.2 c 0.493,1.485 1.654,5.074 2.578,7.976 l 1.681,5.276 8.268,0.124 c 4.547,0.068 8.417,0.28 8.6,0.47 0.375,0.392 0.042,0.668 -7.568,6.274 -3.025,2.229 -5.5,4.173 -5.5,4.321 0,0.148 1.15,3.777 2.556,8.064 1.406,4.287 2.487,7.869 2.402,7.96 -0.297,0.317 -1.985,-0.693 -5.379,-3.219 -6.045,-4.498 -8.397,-6.146 -8.773,-6.146 -0.393,0 -3.916,2.443 -9.374,6.5 -4.774,3.549 -5.292,3.441 -3.822,-0.8 1.354,-3.906 3.99,-12.11 3.99,-12.418 0,-0.218 -8.575,-6.612 -12.1,-9.021 -2.06,-1.409 -2.421,-2.136 -1,-2.014 3.803,0.327 17.1,-0.105 17.1,-0.556 0,-0.941 4.822,-15.491 5.135,-15.491 0.169,0 0.712,1.215 1.206,2.7 m 167.515,0.132 c 0.476,1.412 1.323,4.008 1.884,5.768 0.56,1.76 1.342,4.143 1.739,5.295 l 0.721,2.094 8.7,0.006 c 9.443,0.005 9.706,0.081 7,2.015 -8.631,6.166 -11.884,8.68 -11.891,9.191 -0.012,0.783 1.168,4.661 3.163,10.399 2.511,7.223 2.882,7.158 -5.572,0.974 -2.75,-2.012 -5.467,-3.956 -6.038,-4.321 -1.035,-0.662 -1.052,-0.652 -7.657,4.142 -5.604,4.068 -7.524,5.273 -7.501,4.705 0.015,-0.36 2.884,-9.339 3.611,-11.3 1.921,-5.185 2.432,-4.25 -5.464,-10.007 -6.702,-4.888 -7.754,-5.851 -6.251,-5.725 0.385,0.032 4.317,0.03 8.739,-0.005 l 8.039,-0.063 2.464,-7.5 c 1.356,-4.125 2.463,-7.74 2.462,-8.033 -0.009,-1.337 1.069,0.039 1.852,2.365 m -85.522,20.837 c -0.548,0.436 -2.601,6.571 -3.425,10.231 -0.111,0.495 -0.338,0.9 -0.503,0.9 -0.165,0 -0.608,1.097 -0.985,2.438 l -0.684,2.439 -8.583,-0.139 c -9.451,-0.152 -9.336,-0.181 -9.348,2.324 -0.005,1.075 0.26,1.418 1.794,2.317 0.99,0.58 1.8,1.233 1.8,1.451 0,0.218 0.315,0.525 0.7,0.683 1.001,0.411 4.086,2.526 5.259,3.605 0.549,0.505 1.682,1.304 2.519,1.774 0.837,0.47 1.522,1.109 1.522,1.42 0,0.862 -1.267,5.061 -1.596,5.288 -0.497,0.344 -2.804,8.628 -2.804,10.069 0,3.619 3.641,3.036 8.552,-1.369 0.674,-0.605 1.422,-1.1 1.661,-1.1 0.239,0 0.964,-0.513 1.611,-1.139 3.586,-3.474 5.22,-3.564 8.419,-0.465 0.683,0.662 1.366,1.204 1.517,1.204 0.151,0 1.728,1.08 3.505,2.4 7.833,5.82 8.993,1.875 3.642,-12.398 -0.937,-2.498 -0.946,-2.617 -0.24,-3.112 0.403,-0.282 2.308,-1.678 4.234,-3.102 1.926,-1.423 3.67,-2.588 3.877,-2.588 0.207,0 0.612,-0.315 0.899,-0.7 0.288,-0.385 1.198,-1.204 2.023,-1.821 1.168,-0.872 1.5,-1.393 1.5,-2.355 0,-2.157 -0.571,-2.297 -9.434,-2.311 l -8.035,-0.013 -0.685,-2.466 c -0.377,-1.356 -1.014,-3.201 -1.415,-4.1 -0.401,-0.899 -1.134,-3.189 -1.629,-5.089 -0.495,-1.901 -1.035,-3.675 -1.201,-3.944 -0.451,-0.729 -3.669,-0.969 -4.467,-0.332 m 2.863,3.031 c 1.185,3.87 4.586,14.322 4.719,14.5 0.082,0.11 4.044,0.29 8.806,0.4 l 8.657,0.2 -2.423,1.8 c -1.332,0.99 -4.428,3.24 -6.88,5 -5.241,3.762 -5.005,2.637 -2.293,10.927 3.457,10.569 3.64,10.144 -2.431,5.655 -2.394,-1.769 -5.404,-3.948 -6.69,-4.84 l -2.338,-1.623 -1.862,1.304 c -2.034,1.424 -4.196,2.995 -8.995,6.535 -1.723,1.27 -3.227,2.216 -3.342,2.1 -0.115,-0.115 0.987,-3.851 2.45,-8.302 2.161,-6.574 2.563,-8.185 2.142,-8.582 -0.284,-0.269 -3.471,-2.669 -7.08,-5.332 -3.61,-2.663 -6.4,-4.847 -6.2,-4.853 0.199,-0.006 4.141,-0.051 8.759,-0.1 l 8.396,-0.089 1.329,-3.8 c 0.731,-2.09 1.754,-5.24 2.274,-7 1.77,-5.988 2.194,-6.539 3.002,-3.9"
       id="path0"
       inkscape:connector-curvature="0"
       style="fill:#090705;fill-rule:evenodd;stroke:none" />
    <path
       d="m 194.227,14.592 -2.686,8.193 -8.862,0.107 -8.862,0.108 2.791,1.975 c 6.244,4.416 11.392,8.353 11.392,8.711 0,0.208 -0.617,2.21 -1.371,4.447 -2.388,7.086 -3.474,10.742 -3.35,11.28 0.112,0.482 1.449,-0.413 11.435,-7.651 l 2.513,-1.822 3.687,2.702 c 2.027,1.486 4.586,3.366 5.686,4.177 5.298,3.907 5.256,3.987 2.492,-4.724 -1.239,-3.902 -2.357,-7.48 -2.484,-7.95 -0.2,-0.734 0.754,-1.575 6.813,-6 l 7.046,-5.145 -8.788,-0.108 -8.787,-0.107 -0.82,-2.293 c -0.451,-1.26 -1.658,-4.947 -2.683,-8.192 -1.025,-3.245 -2.001,-5.9 -2.17,-5.9 -0.169,0 -1.515,3.687 -2.992,8.192 M 280.611,29.7 c -0.801,2.475 -1.919,5.94 -2.486,7.7 -1.465,4.548 -0.622,4.2 -10.174,4.2 -4.593,0 -8.351,0.146 -8.351,0.325 0,0.357 0.185,0.5 6.746,5.22 2.501,1.798 5.064,3.674 5.695,4.168 l 1.149,0.899 -1.535,4.994 c -0.845,2.747 -2.011,6.305 -2.592,7.908 -1.412,3.898 -0.83,4.127 3.048,1.199 10.059,-7.595 10.073,-7.602 12.216,-6.037 0.81,0.592 2.373,1.728 3.473,2.524 1.1,0.796 3.389,2.471 5.087,3.723 3.207,2.365 4.223,2.798 3.698,1.577 -0.166,-0.385 -1.075,-3.22 -2.02,-6.3 -0.945,-3.08 -1.897,-5.893 -2.115,-6.251 -0.217,-0.358 -0.513,-1.28 -0.657,-2.048 l -0.263,-1.398 6.135,-4.451 c 7.369,-5.346 7.535,-5.474 7.535,-5.788 0,-0.137 -3.89,-0.297 -8.644,-0.356 l -8.645,-0.108 -2.655,-8.095 c -1.461,-4.452 -2.776,-8.097 -2.923,-8.1 -0.147,-0.003 -0.922,2.02 -1.722,4.495 m -171.41,0 c -0.679,2.255 -1.432,4.55 -1.674,5.1 -0.242,0.55 -0.848,2.26 -1.346,3.8 l -0.905,2.8 -8.862,0.2 -8.863,0.2 1.925,1.433 c 1.058,0.788 4.233,3.113 7.056,5.166 l 5.132,3.732 -0.264,1.435 c -0.145,0.789 -0.756,2.694 -1.357,4.234 -1.461,3.742 -3.42,10.557 -3.12,10.857 0.132,0.131 0.923,-0.293 1.759,-0.945 3.806,-2.969 11.787,-8.512 12.254,-8.512 0.476,0 1.961,1.034 10.151,7.072 2.454,1.808 4.113,2.602 4.113,1.967 0,-0.089 -0.656,-2.024 -1.457,-4.3 -0.802,-2.277 -1.967,-5.849 -2.589,-7.939 l -1.132,-3.8 0.889,-0.693 c 0.489,-0.381 3.139,-2.312 5.889,-4.29 2.75,-1.979 5.54,-4.045 6.2,-4.593 l 1.2,-0.995 -8.9,-0.015 c -6.094,-0.009 -8.9,-0.15 -8.9,-0.446 0,-0.237 -0.434,-1.542 -0.965,-2.9 -0.531,-1.357 -1.656,-4.762 -2.5,-7.565 -1.859,-6.174 -2.155,-6.253 -3.734,-1.003 m 27.272,52.5 c -1.215,1.022 -2.98,4.833 -3.485,7.523 l -0.277,1.477 h 6.032 c 4.638,0 5.998,-0.116 5.884,-0.5 -0.082,-0.275 -0.375,-1.4 -0.651,-2.5 -1.533,-6.1 -4.533,-8.499 -7.503,-6 m -5.166,0.586 c -2.781,1.262 -7.707,6.38 -7.707,8.006 0,0.246 1.394,0.408 3.52,0.408 h 3.52 l 0.505,-2.445 c 0.278,-1.345 0.934,-3.415 1.458,-4.6 1.069,-2.418 1.053,-2.435 -1.296,-1.369 m 13.517,1.465 c 0.599,1.237 1.312,3.307 1.587,4.6 l 0.498,2.349 h 3.546 c 4.046,0 3.951,0.102 2.299,-2.471 -1.531,-2.387 -4.196,-4.778 -6.563,-5.891 -2.512,-1.181 -2.584,-1.107 -1.367,1.413 m 195.42,7.449 c -0.337,1.155 -1.508,4.8 -2.601,8.1 l -1.989,6 -8.658,0.108 c -6.632,0.083 -8.621,0.223 -8.5,0.6 0.146,0.454 3.284,2.861 8.704,6.675 1.21,0.852 2.818,2.074 3.573,2.717 l 1.374,1.168 -1.317,3.766 c -2.414,6.903 -3.952,12.366 -3.481,12.361 0.405,-0.005 2.366,-1.378 10.539,-7.383 3.406,-2.502 3.29,-2.496 6.159,-0.323 5.302,4.017 10.757,7.776 11.097,7.646 0.195,-0.074 -0.807,-3.735 -2.226,-8.135 l -2.58,-8 1.578,-1.308 c 0.867,-0.719 3.883,-2.969 6.702,-5 6.872,-4.951 7.07,-4.656 -3.215,-4.784 l -8.659,-0.108 -0.784,-2.2 c -0.803,-2.25 -1.137,-3.304 -3.207,-10.1 -1.364,-4.479 -1.664,-4.695 -2.509,-1.8 m -291.121,6.6 -2.581,7.9 -8.559,0.108 c -9.625,0.122 -10.004,0.234 -7.309,2.167 11.89,8.53 12.138,8.736 11.874,9.855 -0.139,0.589 -1.288,4.265 -2.554,8.17 -2.645,8.156 -2.626,8.209 1.736,4.965 5.774,-4.296 8.922,-6.558 9.687,-6.961 0.658,-0.347 1.422,0.056 4.783,2.52 9.347,6.856 10.54,7.605 10.002,6.276 -0.156,-0.385 -0.971,-2.95 -1.812,-5.7 -0.84,-2.75 -1.791,-5.63 -2.113,-6.4 -0.322,-0.77 -0.706,-1.962 -0.852,-2.648 -0.297,-1.395 -1.147,-0.63 8.175,-7.349 6.929,-4.993 7.08,-4.803 -3.824,-4.803 -6.304,0 -8.576,-0.125 -8.576,-0.47 0,-0.925 -4.873,-15.53 -5.181,-15.53 -0.174,0 -1.477,3.555 -2.896,7.9 m 73.129,-3.8 c -0.316,1.181 -0.318,4.672 -0.002,6.25 l 0.25,1.25 h 3.85 3.85 v -4.2 -4.2 h -3.853 c -3.658,0 -3.866,0.046 -4.095,0.9 m 10.148,3.3 v 4.2 h 6.157 c 7.098,0 6.643,0.288 6.643,-4.2 0,-4.488 0.455,-4.2 -6.643,-4.2 H 132.4 v 4.2 m 14.8,0 v 4.229 l 3.9,-0.115 3.9,-0.114 0.237,-2 c 0.13,-1.1 0.13,-2.9 0,-4 l -0.237,-2 -3.9,-0.114 -3.9,-0.115 V 97.8 m -23.6,6.816 c 0,2.214 5.693,7.71 9.061,8.748 l 0.862,0.265 -0.955,-2.314 c -0.524,-1.273 -1.173,-3.35 -1.441,-4.615 l -0.487,-2.3 h -3.52 c -1.936,0 -3.52,0.097 -3.52,0.216 m 9.378,1.207 c 1.991,10.614 8.212,11.421 10.982,1.426 l 0.789,-2.849 h -6.019 -6.019 l 0.267,1.423 m 13.433,0.926 c -0.275,1.293 -0.988,3.363 -1.587,4.6 -1.212,2.509 -1.114,2.615 1.292,1.403 3.16,-1.592 7.884,-6.413 7.884,-8.047 0,-0.168 -1.595,-0.305 -3.545,-0.305 h -3.546 l -0.498,2.349 m -33.338,34.311 c -0.15,0.15 -0.273,2.567 -0.273,5.37 v 5.097 l 4.112,0.137 c 5.63,0.186 9.171,2.804 11.389,8.417 0.839,2.121 1.296,62.16 0.512,67.212 -1.09,7.02 -5.069,10.695 -12.013,11.09 L 113,238.6 v 5.2 5.2 h 29 29 v -5 -5 l -3.2,-0.301 c -5.809,-0.547 -8.97,-2.702 -11.497,-7.836 -1.57,-3.188 -1.505,-0.954 -1.504,-51.549 l 0.001,-38.487 -20.727,-0.02 c -11.4,-0.011 -20.85,0.103 -21,0.253 m 110.725,0.873 c -9.688,2.19 -16.929,7.11 -23.548,16 -8.261,11.094 -4.925,25.386 6.643,28.464 13.678,3.638 23.321,-17.435 12.795,-27.962 l -2.19,-2.189 1.129,-0.9 c 10.867,-8.666 26.308,-3.203 27.73,9.81 1.171,10.712 -2.801,15.683 -16.957,21.223 -3.52,1.378 -8.11,3.181 -10.2,4.008 -2.09,0.827 -4.79,1.823 -6,2.214 -10.99,3.552 -19.733,12.012 -21.626,20.927 -1.456,6.854 -0.062,17.752 2.921,22.845 9.811,16.747 34.173,16.823 51.101,0.159 2.776,-2.733 3.476,-3.239 3.803,-2.751 0.221,0.329 1.031,1.719 1.801,3.088 7.556,13.435 24.548,16.274 34.9,5.831 2.885,-2.91 2.884,-2.914 -0.543,-6.951 -2.924,-3.443 -3.412,-3.793 -3.818,-2.734 -1.104,2.878 -6.305,2.13 -8.201,-1.179 L 272.6,230.2 272.509,200 c -0.104,-34.377 -0.111,-34.464 -3.279,-40.74 -3.61,-7.151 -14.44,-15.027 -22.63,-16.456 -1.54,-0.269 -4.15,-0.758 -5.8,-1.087 -5.506,-1.097 -11.534,-1.021 -17.002,0.216 m -196.109,31.33 c -0.438,1.175 -1.181,3.487 -1.651,5.137 -0.469,1.65 -1.368,4.44 -1.998,6.2 l -1.144,3.2 -8.448,0.108 C 9.802,187.967 6,188.159 6,188.333 c 0,0.175 2.963,2.466 6.585,5.092 7.718,5.596 7.283,4.204 4.215,13.51 -3.177,9.637 -3.257,9.21 1.113,5.988 1.698,-1.252 4.077,-2.993 5.287,-3.87 1.21,-0.877 2.887,-2.12 3.726,-2.763 l 1.526,-1.169 2.474,1.717 c 1.361,0.945 4.274,3.056 6.474,4.691 6.056,4.5 5.978,4.673 2.57,-5.759 -2.573,-7.876 -2.83,-6.946 3.082,-11.17 2.771,-1.98 5.242,-3.786 5.493,-4.013 0.25,-0.227 1.085,-0.857 1.855,-1.4 l 1.4,-0.987 -8.782,-0.2 -8.782,-0.2 -1.106,-3.2 c -0.608,-1.76 -1.765,-5.36 -2.57,-8 -1.795,-5.89 -1.882,-5.991 -2.871,-3.337 m 332.417,5.037 c -1.137,3.465 -2.317,7.11 -2.62,8.1 l -0.552,1.8 -8.667,0.108 c -4.767,0.059 -8.667,0.254 -8.667,0.433 0,0.426 1.975,1.972 7.639,5.979 6.629,4.69 6.224,3.79 4.359,9.696 -0.866,2.741 -1.956,6.064 -2.423,7.384 -1.248,3.527 -1.309,3.8 -0.846,3.8 0.233,0 3.421,-2.192 7.085,-4.87 l 6.663,-4.87 1.262,0.691 c 0.693,0.381 3.781,2.57 6.861,4.865 4.922,3.667 6.6,4.682 6.6,3.993 0,-0.105 -0.421,-1.32 -0.935,-2.7 -0.514,-1.38 -1.621,-4.759 -2.458,-7.509 -0.838,-2.75 -1.685,-5.208 -1.883,-5.463 -0.249,-0.32 1.801,-2.037 6.658,-5.575 3.86,-2.812 7.018,-5.255 7.018,-5.429 0,-0.175 -3.896,-0.366 -8.659,-0.425 l -8.658,-0.108 -2.642,-8.096 c -1.452,-4.453 -2.737,-8.098 -2.854,-8.1 -0.117,-0.002 -1.143,2.831 -2.281,6.296 M 246.8,204.219 v 15.419 l -1.4,2.19 c -10.379,16.224 -27.524,15.776 -28.479,-0.744 -0.657,-11.378 2.794,-16.356 15.851,-22.86 5.95,-2.964 10.677,-6.049 12.339,-8.052 0.599,-0.723 1.224,-1.327 1.389,-1.343 0.165,-0.016 0.3,6.91 0.3,15.39 m 94.251,52.647 c -0.353,0.954 -1.596,4.704 -2.762,8.334 l -2.122,6.6 -8.783,0.2 -8.784,0.2 2.2,1.633 c 1.21,0.898 4.315,3.196 6.9,5.106 5.517,4.077 5.294,2.914 2.3,11.996 -2.615,7.934 -2.598,7.865 -1.962,7.865 0.436,0 5.093,-3.242 9.88,-6.879 3.946,-2.996 3.647,-2.959 6.538,-0.81 9.221,6.854 11.985,8.557 11.343,6.989 -0.157,-0.385 -0.457,-1.33 -0.666,-2.1 -0.209,-0.77 -1.194,-3.92 -2.188,-7 -0.995,-3.08 -1.871,-5.806 -1.947,-6.057 -0.077,-0.251 1.332,-1.507 3.131,-2.791 1.799,-1.284 4.115,-2.969 5.147,-3.743 1.032,-0.775 2.729,-2.039 3.771,-2.809 l 1.894,-1.4 -8.753,-0.2 -8.752,-0.2 -1.106,-3.2 c -0.608,-1.76 -1.765,-5.36 -2.57,-8 -1.758,-5.766 -1.89,-5.948 -2.709,-3.734 M 49.741,258.5 c -0.386,1.375 -1.554,5.02 -2.595,8.1 l -1.895,5.6 -8.225,0.108 c -10.697,0.141 -10.821,-0.528 1.574,8.47 3.589,2.606 3.529,1.573 0.6,10.455 -3.345,10.141 -3.818,9.78 4.682,3.567 7.723,-5.645 6.595,-5.409 10.872,-2.273 9.799,7.185 10.046,7.337 10.046,6.194 0,-0.603 -1.906,-7.045 -2.403,-8.121 -0.333,-0.721 -1.612,-4.76 -2.153,-6.8 -0.167,-0.629 0.319,-1.182 2.272,-2.584 1.366,-0.981 4.554,-3.321 7.084,-5.2 l 4.6,-3.416 -8.848,-0.108 -8.848,-0.107 -2.682,-8.193 c -2.976,-9.09 -3.086,-9.243 -4.081,-5.692 m 60.672,65.791 c -1.327,4.121 -2.413,7.721 -2.413,8 0,0.451 -13.297,0.883 -17.1,0.556 -1.421,-0.122 -1.06,0.605 1,2.014 3.525,2.409 12.1,8.803 12.1,9.021 0,0.308 -2.636,8.512 -3.99,12.418 -1.47,4.241 -0.952,4.349 3.822,0.8 5.458,-4.057 8.981,-6.5 9.374,-6.5 0.376,0 2.728,1.648 8.773,6.146 3.394,2.526 5.082,3.536 5.379,3.219 0.085,-0.091 -0.996,-3.673 -2.402,-7.96 -1.406,-4.287 -2.556,-7.916 -2.556,-8.064 0,-0.148 2.475,-2.092 5.5,-4.321 7.61,-5.606 7.943,-5.882 7.568,-6.274 -0.183,-0.19 -4.053,-0.402 -8.6,-0.47 l -8.268,-0.124 -1.681,-5.276 c -2.842,-8.92 -3.464,-10.676 -3.784,-10.676 -0.17,0 -1.395,3.371 -2.722,7.491 m 169.591,-7.024 c 10e-4,0.293 -1.106,3.908 -2.462,8.033 l -2.464,7.5 -8.039,0.063 c -4.422,0.035 -8.354,0.037 -8.739,0.005 -1.503,-0.126 -0.451,0.837 6.251,5.725 7.896,5.757 7.385,4.822 5.464,10.007 -0.727,1.961 -3.596,10.94 -3.611,11.3 -0.023,0.568 1.897,-0.637 7.501,-4.705 6.605,-4.794 6.622,-4.804 7.657,-4.142 0.571,0.365 3.288,2.309 6.038,4.321 8.454,6.184 8.083,6.249 5.572,-0.974 -1.995,-5.738 -3.175,-9.616 -3.163,-10.399 0.007,-0.511 3.26,-3.025 11.891,-9.191 2.706,-1.934 2.443,-2.01 -7,-2.015 l -8.7,-0.006 -0.721,-2.094 c -0.397,-1.152 -1.179,-3.535 -1.739,-5.295 -2.112,-6.634 -2.763,-8.341 -3.245,-8.502 -0.272,-0.09 -0.493,0.075 -0.491,0.369 M 197.561,343.1 c -0.231,0.605 -0.845,2.54 -1.366,4.3 -0.52,1.76 -1.543,4.91 -2.274,7 l -1.329,3.8 -8.396,0.089 c -4.618,0.049 -8.56,0.094 -8.759,0.1 -0.2,0.006 2.59,2.19 6.2,4.853 3.609,2.663 6.796,5.063 7.08,5.332 0.421,0.397 0.019,2.008 -2.142,8.582 -1.463,4.451 -2.565,8.187 -2.45,8.302 0.115,0.116 1.619,-0.83 3.342,-2.1 4.799,-3.54 6.961,-5.111 8.995,-6.535 l 1.862,-1.304 2.338,1.623 c 1.286,0.892 4.296,3.071 6.69,4.84 6.071,4.489 5.888,4.914 2.431,-5.655 -2.712,-8.29 -2.948,-7.165 2.293,-10.927 2.452,-1.76 5.548,-4.01 6.88,-5 l 2.423,-1.8 -8.657,-0.2 c -4.762,-0.11 -8.724,-0.29 -8.806,-0.4 -0.133,-0.178 -3.534,-10.63 -4.719,-14.5 -0.545,-1.779 -1.062,-1.906 -1.636,-0.4"
       id="path1"
       inkscape:connector-curvature="0"
       style="fill:#fac204;fill-rule:evenodd;stroke:none" />
    <path
       d="m 190.2,54.15 c -2.385,0.521 -5.817,1.765 -6.2,2.247 -0.11,0.138 -1.37,0.956 -2.8,1.816 -2.386,1.435 -10,8.613 -10,9.427 0,0.19 -0.451,0.844 -1.003,1.453 -1.407,1.554 -5.637,8.165 -6.668,10.422 -0.473,1.037 -1.081,2.155 -1.35,2.485 -0.269,0.33 -1.174,2.22 -2.011,4.2 -0.838,1.98 -1.633,3.69 -1.768,3.8 -0.722,0.588 -1.171,3.094 -1.292,7.2 -0.09,3.052 -0.33,4.937 -0.712,5.6 -0.316,0.55 -0.616,1.427 -0.665,1.95 -0.102,1.065 -1.525,3.357 -3.756,6.05 -1.566,1.89 -2.275,4.153 -3.826,12.2 -0.382,1.98 -0.819,3.69 -0.972,3.8 -0.357,0.257 -2.315,11.929 -2.046,12.198 0.111,0.111 2.467,0.206 5.236,0.211 4.379,0.008 5.163,0.11 6.033,0.791 1.555,1.216 59.1,1.216 66.8,0 5.977,-0.944 10.861,-0.999 17.6,-0.2 2.75,0.326 5.062,0.595 5.138,0.597 0.234,0.005 -0.418,-4.129 -0.754,-4.781 -0.174,-0.339 -0.962,-4.173 -1.751,-8.522 -0.788,-4.348 -1.612,-8.218 -1.83,-8.6 -0.218,-0.381 -1.017,-3.254 -1.776,-6.382 -0.758,-3.129 -1.645,-6.279 -1.97,-7 -0.325,-0.722 -1.162,-3.112 -1.86,-5.312 -0.697,-2.2 -1.792,-5.138 -2.432,-6.528 -0.641,-1.39 -1.165,-2.713 -1.165,-2.939 0,-0.523 -5.623,-12.064 -6.008,-12.333 -0.158,-0.11 -0.856,-1.27 -1.551,-2.577 -0.694,-1.307 -1.53,-2.657 -1.857,-3 -0.327,-0.343 -1.195,-1.523 -1.928,-2.623 -3.137,-4.706 -11.465,-12.6 -13.294,-12.6 -0.242,0 -0.857,-0.362 -1.367,-0.804 -2.457,-2.131 -11.184,-3.342 -16.195,-2.246 m -36.6,5.522 c -0.77,0.22 -1.58,0.538 -1.8,0.706 -0.22,0.168 -2.47,0.979 -5,1.802 -2.53,0.824 -4.69,1.625 -4.8,1.781 -0.11,0.156 -1.682,0.869 -3.492,1.584 -2.995,1.184 -11.339,5.293 -12.308,6.061 -0.22,0.174 -1.3,0.806 -2.4,1.404 -3.314,1.801 -3.553,1.948 -5.042,3.09 -0.788,0.605 -1.578,1.1 -1.755,1.1 -0.176,0 -1.059,0.592 -1.962,1.314 -0.902,0.723 -2.175,1.653 -2.828,2.067 -4.559,2.887 -15.245,12.465 -21.232,19.03 -4.511,4.947 -9.709,11.477 -10.737,13.489 -0.366,0.715 -0.807,1.3 -0.981,1.3 -0.173,0 -0.74,0.765 -1.257,1.7 -0.518,0.935 -1.607,2.69 -2.419,3.9 -0.813,1.21 -2.054,3.28 -2.758,4.6 -0.704,1.32 -1.809,3.3 -2.455,4.4 -0.646,1.1 -1.456,2.942 -1.8,4.093 -0.345,1.151 -0.813,2.208 -1.042,2.349 -0.604,0.373 -1.913,3.407 -1.923,4.458 l -0.009,0.9 h 22.437 c 21.831,0 22.464,-0.022 23.454,-0.8 0.935,-0.735 1.623,-0.8 8.525,-0.8 h 7.509 l 0.26,-2.1 c 0.143,-1.155 0.413,-2.46 0.601,-2.9 0.187,-0.44 1.009,-4.49 1.826,-9 0.817,-4.51 1.685,-8.449 1.929,-8.752 0.497,-0.619 0.493,-0.623 -3.741,-3.395 -6.567,-4.298 -10.332,-15.218 -7.225,-20.957 0.207,-0.383 0.479,-1.182 0.604,-1.777 0.903,-4.3 10.434,-11.627 13.022,-10.011 0.569,0.355 0.836,0.329 1.205,-0.115 0.791,-0.953 3.077,-1.166 4.719,-0.439 2.516,1.113 3.609,0.506 4.995,-2.776 0.646,-1.528 1.31,-2.868 1.476,-2.978 0.166,-0.11 0.973,-1.535 1.792,-3.168 0.82,-1.632 1.75,-3.227 2.067,-3.544 0.317,-0.317 1.016,-1.443 1.553,-2.503 0.536,-1.059 1.429,-2.416 1.984,-3.014 0.554,-0.598 1.008,-1.422 1.008,-1.829 0,-0.827 -0.034,-0.832 -2,-0.27 m 81.6,0.191 c 0,0.411 0.675,1.729 1.5,2.928 5.031,7.311 10.633,18.635 14.154,28.609 0.855,2.42 1.731,4.76 1.948,5.2 0.476,0.964 2.798,8.787 2.798,9.427 0,0.249 0.261,1.019 0.581,1.713 0.696,1.51 1.869,6.122 3.016,11.86 0.462,2.31 1.011,4.56 1.221,5 0.296,0.62 2.782,14.887 2.782,15.963 0,0.521 61.925,0.259 62.115,-0.263 0.1,-0.275 -0.24,-1.31 -0.757,-2.3 -0.517,-0.99 -1.508,-3.15 -2.202,-4.8 -0.695,-1.65 -1.388,-3.09 -1.541,-3.2 -0.154,-0.11 -1.052,-1.73 -1.997,-3.6 -0.945,-1.87 -1.845,-3.49 -1.999,-3.6 -0.155,-0.11 -0.787,-1.137 -1.405,-2.283 -0.617,-1.145 -1.458,-2.443 -1.868,-2.883 -0.41,-0.44 -0.755,-0.943 -0.766,-1.117 -0.011,-0.174 -0.821,-1.397 -1.798,-2.717 -0.978,-1.32 -2.267,-3.12 -2.865,-4 -0.598,-0.88 -1.724,-2.35 -2.502,-3.267 -0.778,-0.917 -2.135,-2.537 -3.015,-3.599 -2.557,-3.089 -12.508,-12.944 -16,-15.845 -1.76,-1.463 -3.863,-3.217 -4.674,-3.897 C 277.688,79.634 265.315,71.74 260.2,69.33 c -1.32,-0.621 -2.49,-1.227 -2.6,-1.346 -0.254,-0.274 -5.008,-2.384 -5.372,-2.384 -0.15,0 -1.308,-0.514 -2.573,-1.141 -1.265,-0.628 -4.09,-1.732 -6.278,-2.454 -2.187,-0.721 -4.157,-1.443 -4.377,-1.603 -0.22,-0.161 -0.878,-0.406 -1.463,-0.545 -0.584,-0.14 -1.349,-0.364 -1.7,-0.498 -0.443,-0.17 -0.637,-0.017 -0.637,0.504 M 58.654,160.3 c -0.335,1.485 -0.904,4.41 -1.264,6.5 -0.36,2.09 -0.816,4.16 -1.014,4.6 -2.248,5.002 -2.248,40.998 0,46 0.198,0.44 0.654,2.51 1.014,4.6 0.36,2.09 0.929,5.015 1.264,6.5 l 0.61,2.7 h 32.981 32.98 l -0.266,-4.3 c -0.147,-2.365 -0.406,-4.48 -0.577,-4.7 -0.171,-0.22 -0.532,-5.62 -0.803,-12 -0.696,-16.419 -0.238,-34.092 1.218,-47 0.236,-2.09 0.33,-4.205 0.208,-4.7 l -0.22,-0.9 H 92.024 59.264 l -0.61,2.7 m 98.232,32.6 c 0.112,34.795 0.126,35.32 0.936,36.7 l 0.823,1.4 h 15.577 15.578 l -0.2,-1.4 c -0.11,-0.77 -0.195,-4.82 -0.189,-9 l 0.011,-7.6 1.291,-3.135 c 3.873,-9.405 10.585,-15.026 23.487,-19.669 22.208,-7.992 27.473,-11.002 29.878,-17.082 1.407,-3.556 0.634,-10.773 -1.501,-14.014 l -0.988,-1.5 h -9.595 c -5.835,0 -9.594,0.15 -9.594,0.382 0,0.211 0.547,1.31 1.214,2.443 5.525,9.369 1.125,23.628 -8.396,27.214 -14.523,5.472 -27.067,-12.457 -18.998,-27.153 0.759,-1.382 1.38,-2.597 1.38,-2.7 0,-0.102 -9.186,-0.186 -20.414,-0.186 h -20.415 l 0.115,35.3 M 271.2,158.071 c 0,0.259 0.521,1.924 1.157,3.7 1.998,5.574 2.029,6.122 2.057,37.229 0.017,18.411 0.177,29.77 0.433,30.742 l 0.407,1.543 3.073,-0.259 c 1.69,-0.143 3.613,-0.237 4.273,-0.209 0.66,0.028 11.85,0.128 24.867,0.223 l 23.667,0.172 0.279,-1.306 c 0.154,-0.718 0.416,-1.486 0.582,-1.706 0.884,-1.167 3.053,-15.327 3.48,-22.715 0.137,-2.373 0.401,-4.408 0.587,-4.523 0.442,-0.273 0.441,-12.851 0,-13.124 -0.186,-0.115 -0.457,-2.285 -0.602,-4.822 -0.407,-7.134 -2.593,-21.347 -3.447,-22.416 -0.177,-0.22 -0.446,-0.985 -0.599,-1.7 l -0.278,-1.3 h -29.968 c -22.724,0 -29.968,0.114 -29.968,0.471 m -29.4,37.231 c -1.54,1.046 -5.32,3.182 -8.4,4.746 -12.071,6.129 -14.576,9.363 -14.649,18.912 -0.067,8.766 2.745,12.24 9.91,12.24 5.182,0 10.942,-3.906 15.084,-10.228 l 1.066,-1.628 -0.105,-12.972 -0.106,-12.972 -2.8,1.902 M 65.6,249.04 c 0,1.571 7.089,15.526 10.242,20.16 0.674,0.99 1.648,2.565 2.165,3.5 0.517,0.935 1.07,1.7 1.229,1.7 0.158,0 0.737,0.765 1.285,1.7 1.259,2.147 5.732,7.779 9.879,12.441 2.743,3.082 9.627,9.863 11.834,11.656 1.081,0.878 2.236,1.892 2.566,2.253 0.33,0.36 2.31,1.927 4.4,3.482 2.09,1.554 4.34,3.263 5,3.798 0.66,0.535 1.92,1.372 2.8,1.86 0.88,0.489 1.96,1.185 2.4,1.549 0.858,0.709 1.696,1.206 4.329,2.569 0.919,0.476 1.972,1.141 2.341,1.478 0.368,0.338 1.898,1.143 3.4,1.79 1.501,0.647 3.18,1.495 3.73,1.885 0.55,0.389 2.435,1.277 4.189,1.972 1.753,0.696 3.553,1.498 4,1.784 0.446,0.285 2.791,1.167 5.211,1.959 2.42,0.793 4.94,1.685 5.6,1.983 3.373,1.521 4.471,0.812 2.427,-1.567 -0.536,-0.624 -1.37,-1.904 -1.854,-2.845 -0.484,-0.941 -1.176,-2.035 -1.538,-2.429 -0.361,-0.395 -1.345,-2.068 -2.187,-3.718 -0.842,-1.65 -1.869,-3.63 -2.283,-4.4 -1.503,-2.798 -4.671,-9.862 -5.56,-12.4 -0.501,-1.43 -1.223,-3.23 -1.604,-4 -0.381,-0.77 -1.274,-3.38 -1.983,-5.8 -0.71,-2.42 -1.429,-4.546 -1.598,-4.724 -0.169,-0.178 -1.098,-3.508 -2.064,-7.4 -0.966,-3.892 -1.866,-7.166 -2.001,-7.276 -0.134,-0.11 -0.334,-0.74 -0.444,-1.4 -1.059,-6.361 -2.828,-15.338 -3.132,-15.895 -0.208,-0.382 -0.379,-1.215 -0.379,-1.851 0,-1.903 -0.504,-2.028 -8.63,-2.145 l -7.57,-0.109 -0.572,-1.3 -0.572,-1.3 H 88.128 65.6 v 1.04 m 107.212,0.131 c -0.698,1.684 -0.594,1.672 -14.198,1.65 -6.828,-0.011 -12.647,0.131 -12.932,0.314 -0.524,0.338 0.845,10.376 1.481,10.865 0.143,0.11 0.585,1.82 0.983,3.8 1.219,6.071 2.4,10.793 2.735,10.933 0.176,0.074 0.319,0.351 0.319,0.617 0,0.842 2.764,10.398 3.369,11.65 0.319,0.66 1.245,3.09 2.057,5.4 0.812,2.31 1.6,4.29 1.751,4.4 0.151,0.11 1.043,2.035 1.983,4.278 0.94,2.243 1.837,4.133 1.994,4.2 0.156,0.067 0.7,1.016 1.208,2.109 0.508,1.093 1.685,3.163 2.614,4.6 0.93,1.437 2.029,3.198 2.443,3.913 0.415,0.715 0.897,1.3 1.073,1.3 0.176,0 0.632,0.511 1.014,1.135 3.886,6.356 13.042,13.043 19.569,14.292 5.921,1.133 16.925,-0.607 16.925,-2.676 0,-0.193 0.225,-0.354 0.5,-0.358 2.322,-0.034 14.7,-12.415 14.7,-14.704 0,-0.222 0.247,-0.498 0.549,-0.614 0.302,-0.116 0.945,-1.03 1.43,-2.031 0.485,-1.002 1.288,-2.42 1.784,-3.151 1.037,-1.528 6.237,-12.076 6.237,-12.652 0,-0.21 0.603,-1.701 1.34,-3.312 0.737,-1.611 1.853,-4.639 2.481,-6.729 0.627,-2.09 1.255,-3.89 1.395,-4 0.299,-0.235 0.374,-0.499 2.206,-7.8 0.773,-3.08 1.588,-5.965 1.811,-6.41 0.223,-0.446 1.109,-4.406 1.968,-8.8 0.859,-4.395 1.773,-8.927 2.03,-10.072 0.763,-3.393 0.908,-3.318 -6.434,-3.318 -5.905,0 -6.84,0.104 -11.512,1.28 -7.506,1.89 -15.647,1.89 -21.326,-0.001 L 202.517,248 h -14.61 -14.61 l -0.485,1.171 m 105.788,0.284 c -4.494,1.413 -8.768,1.628 -14.207,0.715 l -1.408,-0.236 -1.145,7.133 c -0.63,3.923 -1.282,7.313 -1.449,7.533 -0.167,0.22 -0.518,1.48 -0.779,2.8 -1.046,5.295 -2.919,13.212 -3.169,13.4 -0.146,0.11 -0.953,2.72 -1.792,5.8 -0.84,3.08 -1.652,5.69 -1.806,5.8 -0.153,0.11 -0.964,2.27 -1.802,4.8 -0.837,2.53 -1.695,4.811 -1.906,5.069 -0.211,0.258 -0.733,1.383 -1.16,2.5 -0.427,1.117 -1.133,2.963 -1.569,4.102 -0.435,1.139 -0.93,2.174 -1.1,2.3 -0.169,0.126 -1.08,1.759 -2.023,3.629 -2.006,3.976 -5.254,9.712 -5.662,10 -1.535,1.083 -3.098,5.145 -1.786,4.641 0.351,-0.134 1.116,-0.358 1.7,-0.498 0.585,-0.139 1.243,-0.381 1.463,-0.537 0.22,-0.155 2.2,-0.872 4.4,-1.593 2.2,-0.721 4.9,-1.728 6,-2.239 1.1,-0.511 3.17,-1.434 4.6,-2.051 6.537,-2.823 18.795,-9.887 22.774,-13.123 0.811,-0.66 2.319,-1.731 3.35,-2.38 1.032,-0.649 1.876,-1.319 1.876,-1.489 0,-0.171 0.495,-0.579 1.1,-0.907 1.169,-0.635 2.189,-1.503 7.9,-6.729 3.731,-3.415 8.68,-8.555 11.8,-12.256 0.99,-1.175 2.352,-2.789 3.026,-3.587 0.675,-0.799 1.648,-2.082 2.162,-2.852 0.515,-0.77 1.139,-1.58 1.388,-1.8 0.608,-0.539 5.528,-8.045 6.422,-9.8 0.393,-0.77 0.85,-1.49 1.016,-1.6 0.167,-0.11 1.044,-1.64 1.949,-3.4 0.905,-1.76 1.825,-3.418 2.044,-3.685 0.526,-0.643 3.193,-6.723 3.193,-7.28 0,-0.239 0.162,-0.435 0.361,-0.435 0.629,0 1.221,-2.258 0.723,-2.756 -0.315,-0.315 -6.501,-0.434 -21.264,-0.409 l -20.82,0.036 -4.4,1.384"
       id="path2-0"
       inkscape:connector-curvature="0"
       style="fill:#0494dc;fill-rule:evenodd;stroke:none" />
  </g>
</svg>
