<svg id="svg" xmlns="http://www.w3.org/2000/svg" xmlns:xlink="http://www.w3.org/1999/xlink" width="400" height="290.40000000000003" viewBox="0, 0, 400,290.40000000000003" version="1.1"><g id="svgg"><path id="path0" d="M0.000 50.100 L 0.000 72.800 200.000 72.800 L 400.000 72.800 400.000 50.100 L 400.000 27.400 200.000 27.400 L 0.000 27.400 0.000 50.100 M195.200 93.002 C 195.200 93.224,197.595 96.536,198.850 98.050 L 199.637 99.000 202.500 99.000 L 205.363 99.000 206.150 98.050 C 207.405 96.536,209.800 93.224,209.800 93.002 C 209.800 92.870,207.286 92.800,202.500 92.800 C 197.714 92.800,195.200 92.870,195.200 93.002 M138.950 97.948 C 138.208 97.987,137.600 98.095,137.600 98.189 C 137.600 98.477,139.027 100.497,140.499 102.293 L 141.898 104.000 144.675 104.000 L 147.453 104.000 148.158 103.252 C 148.970 102.391,152.000 98.406,152.000 98.199 C 152.000 97.871,143.570 97.709,138.950 97.948 M156.800 97.944 C 155.865 97.979,154.983 98.050,154.841 98.101 C 154.567 98.200,156.808 101.274,158.436 103.034 L 159.300 103.968 162.090 104.034 L 164.880 104.100 167.240 101.207 C 168.538 99.616,169.600 98.258,169.600 98.188 C 169.600 97.900,161.931 97.754,156.800 97.944 M172.455 98.054 C 172.515 98.210,173.648 99.642,174.973 101.235 L 177.382 104.132 180.141 104.051 L 182.900 103.971 183.600 103.163 C 185.292 101.211,187.349 98.292,187.169 98.100 C 186.839 97.750,172.320 97.704,172.455 98.054 M218.543 97.978 C 218.127 98.045,217.767 98.153,217.743 98.218 C 217.694 98.353,220.668 102.368,221.532 103.335 L 222.100 103.970 224.859 104.051 L 227.618 104.132 230.027 101.235 C 231.352 99.642,232.483 98.217,232.540 98.069 C 232.648 97.786,220.241 97.705,218.543 97.978 M237.550 97.934 C 236.368 97.978,235.400 98.081,235.400 98.164 C 235.400 98.247,236.462 99.616,237.760 101.207 L 240.120 104.100 242.910 104.034 L 245.700 103.968 246.564 103.034 C 247.997 101.484,250.410 98.230,250.215 98.109 C 249.979 97.964,240.350 97.830,237.550 97.934 M254.450 97.949 C 253.653 97.986,253.000 98.090,253.000 98.178 C 253.000 98.401,255.984 102.343,256.842 103.252 L 257.547 104.000 260.325 104.000 L 263.102 104.000 264.501 102.293 C 265.929 100.551,267.400 98.479,267.400 98.210 C 267.400 97.868,259.499 97.708,254.450 97.949 M199.198 111.250 C 199.197 117.328,199.140 122.638,199.072 123.050 C 198.915 123.998,198.652 124.011,196.190 123.186 C 188.745 120.692,183.733 114.274,183.076 106.397 C 182.948 104.870,182.914 104.776,182.520 104.882 C 182.289 104.944,180.998 104.996,179.650 104.997 L 177.200 105.000 177.200 106.779 C 177.200 117.489,187.272 128.610,197.986 129.730 L 199.200 129.857 199.200 135.846 L 199.200 141.835 198.350 141.701 C 179.236 138.684,165.975 125.039,165.058 107.446 C 164.920 104.800,165.324 105.078,161.345 104.894 L 158.590 104.767 158.697 105.534 C 158.756 105.955,158.944 107.380,159.116 108.700 C 159.287 110.020,159.507 111.460,159.603 111.900 C 160.259 114.907,160.500 115.893,160.948 117.400 C 162.745 123.450,165.009 127.594,169.423 132.917 C 170.777 134.549,174.330 138.000,174.656 138.000 C 174.753 138.000,175.208 138.304,175.666 138.676 C 180.352 142.473,188.498 145.964,196.000 147.391 C 197.265 147.631,198.503 147.868,198.750 147.918 L 199.200 148.008 199.200 153.404 L 199.200 158.800 198.150 158.796 C 186.660 158.750,168.865 149.876,160.891 140.215 C 160.126 139.289,159.287 138.299,159.026 138.015 C 158.342 137.273,155.008 132.164,154.053 130.396 C 150.094 123.067,147.800 114.633,147.800 107.405 L 147.800 105.025 146.950 104.901 C 146.483 104.833,145.110 104.805,143.900 104.839 L 141.700 104.900 141.632 105.900 C 141.537 107.312,141.959 112.095,142.408 114.700 C 146.181 136.567,162.137 154.981,183.100 161.661 C 186.358 162.699,190.314 163.569,197.600 164.847 L 199.100 165.110 199.097 175.641 C 199.096 181.433,199.037 186.230,198.966 186.301 C 198.834 186.433,197.456 186.727,194.300 187.297 C 192.628 187.599,191.879 187.753,188.400 188.506 C 183.710 189.521,178.967 190.526,175.600 191.217 C 173.455 191.657,171.543 192.065,171.350 192.122 C 170.991 192.230,170.815 195.285,171.121 196.084 C 171.308 196.569,233.692 196.569,233.879 196.084 C 234.185 195.285,234.009 192.230,233.650 192.122 C 233.457 192.065,231.545 191.657,229.400 191.217 C 226.033 190.526,221.290 189.521,216.600 188.506 C 213.121 187.753,212.372 187.599,210.700 187.297 C 207.544 186.727,206.166 186.433,206.034 186.301 C 205.963 186.230,205.904 181.433,205.903 175.641 L 205.900 165.110 207.400 164.847 C 214.686 163.569,218.642 162.699,221.900 161.661 C 242.863 154.981,258.819 136.567,262.592 114.700 C 263.041 112.095,263.463 107.312,263.368 105.900 L 263.300 104.900 261.100 104.839 C 259.890 104.805,258.518 104.833,258.050 104.901 L 257.200 105.025 257.200 107.405 C 257.200 114.633,254.906 123.067,250.947 130.396 C 249.992 132.164,246.658 137.273,245.974 138.015 C 245.713 138.299,244.874 139.289,244.109 140.215 C 238.768 146.687,229.230 152.944,220.090 155.972 C 215.426 157.517,209.479 158.785,206.850 158.796 L 205.800 158.800 205.800 153.404 L 205.800 148.008 206.250 147.918 C 206.498 147.868,207.735 147.631,209.000 147.391 C 216.502 145.964,224.648 142.473,229.334 138.676 C 229.792 138.304,230.247 138.000,230.344 138.000 C 230.670 138.000,234.223 134.549,235.577 132.917 C 239.991 127.594,242.255 123.450,244.052 117.400 C 244.500 115.893,244.741 114.907,245.397 111.900 C 245.493 111.460,245.713 110.020,245.884 108.700 C 246.056 107.380,246.244 105.955,246.303 105.534 L 246.410 104.767 243.655 104.894 C 239.676 105.078,240.080 104.800,239.942 107.446 C 239.025 125.039,225.764 138.684,206.650 141.701 L 205.800 141.835 205.800 135.846 L 205.800 129.857 207.014 129.730 C 217.728 128.610,227.800 117.489,227.800 106.779 L 227.800 105.000 225.350 104.997 C 224.003 104.996,222.711 104.944,222.480 104.882 C 222.086 104.776,222.052 104.870,221.924 106.397 C 221.267 114.274,216.255 120.692,208.810 123.186 C 206.348 124.011,206.085 123.998,205.928 123.050 C 205.860 122.638,205.803 117.328,205.802 111.250 L 205.800 100.200 202.500 100.200 L 199.200 100.200 199.198 111.250 M0.000 240.900 L 0.000 263.600 200.000 263.600 L 400.000 263.600 400.000 240.900 L 400.000 218.200 200.000 218.200 L 0.000 218.200 0.000 240.900 " stroke="none" fill="#040404" fill-rule="evenodd"></path><path id="path1" d="M0.000 13.700 L 0.000 27.400 200.000 27.400 L 400.000 27.400 400.000 13.700 L 400.000 0.000 200.000 0.000 L 0.000 0.000 0.000 13.700 M0.000 145.500 L 0.000 218.200 200.000 218.200 L 400.000 218.200 400.000 145.500 L 400.000 72.800 200.000 72.800 L 0.000 72.800 0.000 145.500 M209.800 93.002 C 209.800 93.224,207.405 96.536,206.150 98.050 L 205.363 99.000 202.500 99.000 L 199.637 99.000 198.850 98.050 C 197.595 96.536,195.200 93.224,195.200 93.002 C 195.200 92.870,197.714 92.800,202.500 92.800 C 207.286 92.800,209.800 92.870,209.800 93.002 M149.869 97.930 C 151.041 98.002,152.000 98.123,152.000 98.199 C 152.000 98.406,148.970 102.391,148.158 103.252 L 147.453 104.000 144.675 104.000 L 141.898 104.000 140.499 102.293 C 139.027 100.497,137.600 98.477,137.600 98.189 C 137.600 97.874,146.038 97.696,149.869 97.930 M166.450 97.932 C 168.183 98.004,169.600 98.119,169.600 98.188 C 169.600 98.258,168.538 99.616,167.240 101.207 L 164.880 104.100 162.090 104.034 L 159.300 103.968 158.436 103.034 C 156.808 101.274,154.567 98.200,154.841 98.101 C 155.488 97.868,162.452 97.766,166.450 97.932 M187.169 98.100 C 187.349 98.292,185.292 101.211,183.600 103.163 L 182.900 103.971 180.141 104.051 L 177.382 104.132 174.973 101.235 C 173.648 99.642,172.515 98.210,172.455 98.054 C 172.320 97.704,186.839 97.750,187.169 98.100 M232.540 98.069 C 232.483 98.217,231.352 99.642,230.027 101.235 L 227.618 104.132 224.859 104.051 L 222.100 103.970 221.532 103.335 C 220.668 102.368,217.694 98.353,217.743 98.218 C 217.845 97.942,219.678 97.855,225.971 97.828 C 231.487 97.805,232.625 97.847,232.540 98.069 M250.215 98.109 C 250.410 98.230,247.997 101.484,246.564 103.034 L 245.700 103.968 242.910 104.034 L 240.120 104.100 237.760 101.207 C 236.462 99.616,235.400 98.247,235.400 98.164 C 235.400 97.851,249.712 97.799,250.215 98.109 M265.450 97.931 C 266.522 98.002,267.400 98.128,267.400 98.210 C 267.400 98.479,265.929 100.551,264.501 102.293 L 263.102 104.000 260.325 104.000 L 257.547 104.000 256.842 103.252 C 255.984 102.343,253.000 98.401,253.000 98.178 C 253.000 97.878,261.967 97.701,265.450 97.931 M205.802 111.250 C 205.803 117.328,205.860 122.638,205.928 123.050 C 206.085 123.998,206.348 124.011,208.810 123.186 C 216.255 120.692,221.267 114.274,221.924 106.397 C 222.052 104.870,222.086 104.776,222.480 104.882 C 222.711 104.944,224.003 104.996,225.350 104.997 L 227.800 105.000 227.800 106.779 C 227.800 117.489,217.728 128.610,207.014 129.730 L 205.800 129.857 205.800 135.846 L 205.800 141.835 206.650 141.701 C 225.764 138.684,239.025 125.039,239.942 107.446 C 240.080 104.800,239.676 105.078,243.655 104.894 L 246.410 104.767 246.303 105.534 C 246.244 105.955,246.056 107.380,245.884 108.700 C 245.713 110.020,245.493 111.460,245.397 111.900 C 244.741 114.907,244.500 115.893,244.052 117.400 C 242.255 123.450,239.991 127.594,235.577 132.917 C 234.223 134.549,230.670 138.000,230.344 138.000 C 230.247 138.000,229.792 138.304,229.334 138.676 C 224.648 142.473,216.502 145.964,209.000 147.391 C 207.735 147.631,206.498 147.868,206.250 147.918 L 205.800 148.008 205.800 153.404 L 205.800 158.800 206.850 158.796 C 218.340 158.750,236.135 149.876,244.109 140.215 C 244.874 139.289,245.713 138.299,245.974 138.015 C 246.658 137.273,249.992 132.164,250.947 130.396 C 254.906 123.067,257.200 114.633,257.200 107.405 L 257.200 105.025 258.050 104.901 C 258.518 104.833,259.890 104.805,261.100 104.839 L 263.300 104.900 263.368 105.900 C 263.463 107.312,263.041 112.095,262.592 114.700 C 258.819 136.567,242.863 154.981,221.900 161.661 C 218.642 162.699,214.686 163.569,207.400 164.847 L 205.900 165.110 205.903 175.641 C 205.904 181.433,205.963 186.230,206.034 186.301 C 206.166 186.433,207.544 186.727,210.700 187.297 C 212.372 187.599,213.121 187.753,216.600 188.506 C 221.290 189.521,226.033 190.526,229.400 191.217 C 231.545 191.657,233.457 192.065,233.650 192.122 C 234.009 192.230,234.185 195.285,233.879 196.084 C 233.692 196.569,171.308 196.569,171.121 196.084 C 170.815 195.285,170.991 192.230,171.350 192.122 C 171.543 192.065,173.455 191.657,175.600 191.217 C 178.967 190.526,183.710 189.521,188.400 188.506 C 191.879 187.753,192.628 187.599,194.300 187.297 C 197.456 186.727,198.834 186.433,198.966 186.301 C 199.037 186.230,199.096 181.433,199.097 175.641 L 199.100 165.110 197.600 164.847 C 190.314 163.569,186.358 162.699,183.100 161.661 C 162.137 154.981,146.181 136.567,142.408 114.700 C 141.959 112.095,141.537 107.312,141.632 105.900 L 141.700 104.900 143.900 104.839 C 145.110 104.805,146.483 104.833,146.950 104.901 L 147.800 105.025 147.800 107.405 C 147.800 114.633,150.094 123.067,154.053 130.396 C 155.008 132.164,158.342 137.273,159.026 138.015 C 159.287 138.299,160.126 139.289,160.891 140.215 C 166.232 146.687,175.770 152.944,184.910 155.972 C 189.574 157.517,195.521 158.785,198.150 158.796 L 199.200 158.800 199.200 153.404 L 199.200 148.008 198.750 147.918 C 198.503 147.868,197.265 147.631,196.000 147.391 C 188.498 145.964,180.352 142.473,175.666 138.676 C 175.208 138.304,174.753 138.000,174.656 138.000 C 174.330 138.000,170.777 134.549,169.423 132.917 C 165.009 127.594,162.745 123.450,160.948 117.400 C 160.500 115.893,160.259 114.907,159.603 111.900 C 159.507 111.460,159.287 110.020,159.116 108.700 C 158.944 107.380,158.756 105.955,158.697 105.534 L 158.590 104.767 161.345 104.894 C 165.324 105.078,164.920 104.800,165.058 107.446 C 165.975 125.039,179.236 138.684,198.350 141.701 L 199.200 141.835 199.200 135.846 L 199.200 129.857 197.986 129.730 C 187.272 128.610,177.200 117.489,177.200 106.779 L 177.200 105.000 179.650 104.997 C 180.998 104.996,182.289 104.944,182.520 104.882 C 182.914 104.776,182.948 104.870,183.076 106.397 C 183.733 114.274,188.745 120.692,196.190 123.186 C 198.652 124.011,198.915 123.998,199.072 123.050 C 199.140 122.638,199.197 117.328,199.198 111.250 L 199.200 100.200 202.500 100.200 L 205.800 100.200 205.802 111.250 M0.000 277.000 L 0.000 290.400 200.000 290.400 L 400.000 290.400 400.000 277.000 L 400.000 263.600 200.000 263.600 L 0.000 263.600 0.000 277.000 " stroke="none" fill="#fbfbfb" fill-rule="evenodd"></path></g></svg>